<svg xmlns="http://www.w3.org/2000/svg" width="76" height="76" viewBox="0 0 76 76">
  <g id="Group_815" data-name="Group 815" transform="translate(-1204 -1343)">
    <circle id="Ellipse_118" data-name="Ellipse 118" cx="38" cy="38" r="38" transform="translate(1204 1343)" fill="#005968"/>
    <g id="ear" transform="translate(1152.823 1354.103)">
      <path id="Path_2378" data-name="Path 2378" d="M216.278,242.529a.827.827,0,0,0-.827.827V265.2a5.689,5.689,0,0,1-6.424,5.65,33.964,33.964,0,0,1-19.458-9.687.827.827,0,0,0-1.173,1.165,35.4,35.4,0,0,0,20.41,10.161,7.343,7.343,0,0,0,8.3-7.289V243.356A.827.827,0,0,0,216.278,242.529Z" transform="translate(-110.315 -215.797)" fill="#fff"/>
      <path id="Path_2379" data-name="Path 2379" d="M87.3,0A19.46,19.46,0,0,0,70.919,8.846l-2.011-.537a2.6,2.6,0,0,0-1.343,5.032l1.093.292a19.413,19.413,0,0,0-.684,2.99l-.851-.1a2.6,2.6,0,1,0-.623,5.171l1.269.153c.01,1.057.066,2.117.169,3.166l-1.309.077a2.6,2.6,0,0,0,.152,5.2c.11,0-.007.005,2.051-.117a35.632,35.632,0,0,0,6.613,13.39.827.827,0,1,0,1.3-1.028,33.979,33.979,0,0,1-6.227-12.462l4.031-.239a29.911,29.911,0,0,0,15.57,18.579,7.628,7.628,0,0,0,5.546.472,5.165,5.165,0,0,0,1.281-9.278,6.412,6.412,0,0,1,1.043-11.342,5.161,5.161,0,0,0,3.236-4.8V19.55a13.932,13.932,0,0,0-6.5-11.807.827.827,0,0,0-.887,1.4q.5.317.96.675a9.316,9.316,0,0,0-7.381,9.1v3.531a8.548,8.548,0,0,0,2.52,6.084A.827.827,0,0,0,91.1,27.36a6.905,6.905,0,0,1-2.036-4.915V18.914a7.656,7.656,0,0,1,7.31-7.639,12.261,12.261,0,0,1,3.191,8.275V23.47a3.514,3.514,0,0,1-2.205,3.266A8.065,8.065,0,0,0,96.049,41a3.51,3.51,0,0,1-.861,6.3,5.9,5.9,0,0,1-4.347-.372,28.247,28.247,0,0,1-14.6-17.194l1.478-.088a2.6,2.6,0,1,0-.308-5.2l-2.234.132c-.07-.619-.12-1.241-.151-1.864C77.374,23,77.317,23,77.534,23a2.6,2.6,0,0,0,.31-5.19l-2.672-.322a12.407,12.407,0,0,1,.515-1.98c2.5.667,2.532.705,2.982.705a2.6,2.6,0,0,0,.672-5.12l-.777-.208a12.087,12.087,0,0,1,11-3.446.827.827,0,1,0,.311-1.624,13.884,13.884,0,0,0-13.11,4.589L72.608,9.3A17.684,17.684,0,0,1,87.239,1.653a18.017,18.017,0,0,1,17.9,18.076V23.7a.827.827,0,0,0,1.653,0V19.73A19.674,19.674,0,0,0,87.3,0ZM77.506,26.1a.951.951,0,0,1,.112,1.9l-10.781.638a.951.951,0,0,1-.112-1.9ZM73.521,24.68l-3.933.233c-.095-.95-.15-1.911-.165-2.869l3.936.474C73.388,23.239,73.442,23.962,73.521,24.68Zm4.956-4.169a.95.95,0,0,1-1.058.83L66.7,20.05a.951.951,0,1,1,.227-1.888l10.722,1.292A.952.952,0,0,1,78.477,20.511Zm-4.947-3.219-3.914-.472a17.742,17.742,0,0,1,.641-2.76l3.83,1.022A14.063,14.063,0,0,0,73.529,17.292Zm5.964-4.157a.952.952,0,0,1-1.068,1.395L67.991,11.744a.951.951,0,0,1,.49-1.837l10.434,2.786A.945.945,0,0,1,79.493,13.135Z" fill="#fff"/>
      <path id="Path_2380" data-name="Path 2380" d="M358.116,277.656a4.126,4.126,0,1,0-4.126,4.126A4.13,4.13,0,0,0,358.116,277.656Zm-4.126,2.472a2.472,2.472,0,1,1,2.472-2.472A2.475,2.475,0,0,1,353.99,280.129Z" transform="translate(-254.199 -243.382)" fill="#fff"/>
    </g>
  </g>
</svg>
