<svg xmlns="http://www.w3.org/2000/svg" width="76" height="76" viewBox="0 0 76 76">
  <g id="Group_809" data-name="Group 809" transform="translate(-408 -1343)">
    <circle id="Ellipse_119" data-name="Ellipse 119" cx="38" cy="38" r="38" transform="translate(408 1343)" fill="#70bc4f"/>
    <g id="tooth" transform="translate(419.609 1310.398)">
      <path id="Path_2369" data-name="Path 2369" d="M123.939,66.485c.071.788.105,1.561.105,2.33V72.19a4.716,4.716,0,0,0,3.094,4.423c.051-5.818,1.913-12.085,7.731-12.085s7.68,6.272,7.731,12.085a4.716,4.716,0,0,0,3.094-4.423V68.815c0-.762.034-1.529.1-2.309a39.111,39.111,0,0,1,2.52-10.176A7.7,7.7,0,0,0,135.9,47.981a1.547,1.547,0,0,1-2.07,0,7.7,7.7,0,0,0-12.414,8.348A39.214,39.214,0,0,1,123.939,66.485Z" transform="translate(-108.478 0)" fill="#fff"/>
      <path id="Path_2370" data-name="Path 2370" d="M51.236,196.025H43.4a6.143,6.143,0,0,0-2.087.363,26.684,26.684,0,0,0-1.007,7.008v3.375a7.81,7.81,0,0,1-7.8,7.8,1.548,1.548,0,0,1-1.545-1.624c.03-.562.068-1.026.068-1.469,0-5.724-1.593-9.077-4.382-9.269h-.512c-2.79.191-4.383,3.544-4.383,9.269,0,.5.047,1.046.067,1.469a1.547,1.547,0,0,1-1.544,1.624,7.81,7.81,0,0,1-7.8-7.8V203.4a26.7,26.7,0,0,0-1.008-7.009,6.15,6.15,0,0,0-2.083-.362H1.546A1.547,1.547,0,0,0,0,197.571v24.742a1.547,1.547,0,0,0,1.546,1.546h49.69a1.547,1.547,0,0,0,1.546-1.546V197.571A1.547,1.547,0,0,0,51.236,196.025Z" transform="translate(0 -134.581)" fill="#fff"/>
    </g>
  </g>
</svg>
