<svg xmlns="http://www.w3.org/2000/svg" width="76" height="76" viewBox="0 0 76 76">
  <g id="Group_813" data-name="Group 813" transform="translate(-795 -1205)">
    <circle id="Ellipse_115" data-name="Ellipse 115" cx="38" cy="38" r="38" transform="translate(795 1205)" fill="#ffc214"/>
    <g id="scalpel" transform="translate(761.767 1215.438)">
      <g id="Group_708" data-name="Group 708" transform="translate(51.614 0)">
        <g id="Group_707" data-name="Group 707">
          <path id="Path_2357" data-name="Path 2357" d="M304.038,228.978a1.077,1.077,0,0,0-1.077,1.077v.973a1.077,1.077,0,1,0,2.153,0v-.973A1.077,1.077,0,0,0,304.038,228.978Z" transform="translate(-275.9 -204.325)" fill="#fff"/>
          <path id="Path_2358" data-name="Path 2358" d="M348.642,396.5a3.979,3.979,0,1,0,3.986,3.979A3.987,3.987,0,0,0,348.642,396.5Zm0,5.8a1.825,1.825,0,1,1,1.832-1.825A1.831,1.831,0,0,1,348.642,402.3Z" transform="translate(-313.106 -353.809)" fill="#fff"/>
          <path id="Path_2359" data-name="Path 2359" d="M188.807,40.162c-.007,0-.367,0-.783.007V15c0-3.864-5.112-11.417-5.723-12.305l0,0a1.036,1.036,0,0,0-1.778,0l0,.006c-.611.888-5.723,8.441-5.723,12.305V40.17c-.416-.006-.776-.007-.783-.007a8.457,8.457,0,1,0,7.4,12.579,8.468,8.468,0,1,0,7.4-12.579ZM182.486,7c1.608,2.7,3.385,6.157,3.385,8v7.426a6.592,6.592,0,0,0-3.385-1.645Zm-5.538,8c0-1.845,1.777-5.3,3.385-8V20.784a6.591,6.591,0,0,0-3.385,1.645Zm3.385,33.617a6.321,6.321,0,1,1-6.321-6.3c.387,0,1.558.016,1.75.034a1.077,1.077,0,0,0,1.187-1.071V33.907a6.592,6.592,0,0,0,3.385,1.645V48.619Zm1.07-15.134a4.46,4.46,0,0,1-4.455-4.455V27.305a4.46,4.46,0,0,1,4.455-4.455h.013a4.46,4.46,0,0,1,4.455,4.455V29.03a4.46,4.46,0,0,1-4.455,4.455Zm7.4,21.438a6.32,6.32,0,0,1-6.321-6.306V35.552a6.592,6.592,0,0,0,3.385-1.645v7.371a1.075,1.075,0,0,0,1.185,1.071c.194-.018,1.364-.034,1.751-.034a6.3,6.3,0,1,1,0,12.607Z" transform="translate(-153.272 -1.952)" fill="#fff"/>
          <path id="Path_2360" data-name="Path 2360" d="M211.216,396.5a3.979,3.979,0,1,0,3.985,3.978A3.986,3.986,0,0,0,211.216,396.5Zm0,5.8a1.825,1.825,0,1,1,1.832-1.825A1.831,1.831,0,0,1,211.216,402.3Z" transform="translate(-190.477 -353.809)" fill="#fff"/>
          <path id="Path_2361" data-name="Path 2361" d="M61.331,20.5a1.077,1.077,0,0,0-1.077,1.077v9.3H53.767V9.7a7.562,7.562,0,0,1,6.487-7.467v9.612a1.077,1.077,0,0,0,2.153,0V1.077A1.077,1.077,0,0,0,61.331,0a9.718,9.718,0,0,0-9.717,9.7v40a5.4,5.4,0,0,0,10.793,0V21.575A1.076,1.076,0,0,0,61.331,20.5ZM60.254,49.7a3.244,3.244,0,0,1-6.487,0V37.656h6.487V49.7Zm0-14.2H53.767v-2.47h6.487Z" transform="translate(-51.614 0)" fill="#fff"/>
          <path id="Path_2362" data-name="Path 2362" d="M133.947,146.041a1.076,1.076,0,1,0-.4,1.307A1.085,1.085,0,0,0,133.947,146.041Z" transform="translate(-123.236 -129.724)" fill="#fff"/>
        </g>
      </g>
    </g>
  </g>
</svg>
