<svg xmlns="http://www.w3.org/2000/svg" width="76" height="76" viewBox="0 0 76 76">
  <g id="Group_808" data-name="Group 808" transform="translate(-408 -1205)">
    <circle id="Ellipse_114" data-name="Ellipse 114" cx="38" cy="38" r="38" transform="translate(408 1205)" fill="#ff624a"/>
    <g id="running" transform="translate(421.609 1197.764)">
      <g id="Group_692" data-name="Group 692" transform="translate(2.858 27.955)">
        <g id="Group_691" data-name="Group 691">
          <path id="Path_2337" data-name="Path 2337" d="M38.67,68.5H31.429a1.429,1.429,0,1,0,0,2.858H38.67a1.429,1.429,0,1,0,0-2.858Z" transform="translate(-30 -68.5)" fill="#fff"/>
        </g>
      </g>
      <g id="Group_694" data-name="Group 694" transform="translate(2.858 39.388)">
        <g id="Group_693" data-name="Group 693">
          <path id="Path_2338" data-name="Path 2338" d="M38.67,188.5H31.429a1.429,1.429,0,0,0,0,2.858H38.67a1.429,1.429,0,0,0,0-2.858Z" transform="translate(-30 -188.5)" fill="#fff"/>
        </g>
      </g>
      <g id="Group_696" data-name="Group 696" transform="translate(0 33.672)">
        <g id="Group_695" data-name="Group 695">
          <path id="Path_2339" data-name="Path 2339" d="M8.67,128.5H1.429a1.429,1.429,0,0,0,0,2.858H8.67a1.429,1.429,0,0,0,0-2.858Z" transform="translate(0 -128.5)" fill="#fff"/>
        </g>
      </g>
      <g id="Group_698" data-name="Group 698" transform="translate(18.674 32.24)">
        <g id="Group_697" data-name="Group 697">
          <path id="Path_2340" data-name="Path 2340" d="M223.249,122.054h-8.67v-5.717a2.863,2.863,0,0,0-4.88-2.02L198.266,125.75a2.857,2.857,0,0,0,0,4.042l6.554,6.554-7.983,7.983a2.858,2.858,0,0,0,4.042,4.042l10-10a2.857,2.857,0,0,0,0-4.042l-6.554-6.554,4.533-4.533v1.675a2.859,2.859,0,0,0,2.858,2.858h11.529a2.858,2.858,0,1,0,0-5.717Z" transform="translate(-196 -113.477)" fill="#fff"/>
        </g>
      </g>
      <g id="Group_700" data-name="Group 700" transform="translate(14.387 25.812)">
        <g id="Group_699" data-name="Group 699">
          <path id="Path_2341" data-name="Path 2341" d="M163.3,46.486a2.859,2.859,0,0,0-3.606.357l-7.86,7.86a2.858,2.858,0,1,0,4.042,4.042l6.2-6.2,2.09,1.505,2.792-2.792a5.683,5.683,0,0,1,1.62-1.113Z" transform="translate(-150.999 -46.006)" fill="#fff"/>
        </g>
      </g>
      <g id="Group_702" data-name="Group 702" transform="translate(1.524 47.997)">
        <g id="Group_701" data-name="Group 701">
          <path id="Path_2342" data-name="Path 2342" d="M33.4,281.429a5.665,5.665,0,0,1-1.463-2.579l-15.1,15.1a2.858,2.858,0,0,0,4.042,4.042L35.416,283.45Z" transform="translate(-16 -278.85)" fill="#fff"/>
        </g>
      </g>
      <g id="Group_704" data-name="Group 704" transform="translate(34.835 23.545)">
        <g id="Group_703" data-name="Group 703" transform="translate(0 0)">
          <ellipse id="Ellipse_113" data-name="Ellipse 113" cx="4" cy="4.5" rx="4" ry="4.5" transform="translate(-0.444 -0.309)" fill="#fff"/>
        </g>
      </g>
    </g>
  </g>
</svg>
