<svg xmlns="http://www.w3.org/2000/svg" width="76" height="76" viewBox="0 0 76 76">
  <g id="Group_810" data-name="Group 810" transform="translate(-408 -1481)">
    <circle id="Ellipse_120" data-name="Ellipse 120" cx="38" cy="38" r="38" transform="translate(408 1481)" fill="#febcd7"/>
    <g id="urine" transform="translate(425.686 1496.362)">
      <path id="Path_2381" data-name="Path 2381" d="M213.046.923A.923.923,0,1,1,212.122,0,.923.923,0,0,1,213.046.923Zm0,0" transform="translate(-191.697)" fill="#fff"/>
      <path id="Path_2382" data-name="Path 2382" d="M37.858,0H24.58a.923.923,0,0,0,0,1.847H37.858a.924.924,0,0,1,.923.923v7.387a.924.924,0,0,1-.923.923h-2.77V6.464a.923.923,0,0,0-1.847,0V11.08H29.548V6.464a.923.923,0,1,0-1.847,0V11.08H24.008V6.464a.923.923,0,1,0-1.847,0V11.08H18.467V6.464a.923.923,0,1,0-1.847,0V11.08H12.927V6.464a.923.923,0,1,0-1.847,0V11.08H7.387V6.464a.923.923,0,1,0-1.847,0V11.08H2.77a.924.924,0,0,1-.923-.923V2.77a.924.924,0,0,1,.923-.923h13.5A.923.923,0,1,0,16.27,0H2.77A2.773,2.773,0,0,0,0,2.77v7.387a2.773,2.773,0,0,0,2.77,2.77V44.507a2.773,2.773,0,0,0,2.77,2.77H35.088a2.773,2.773,0,0,0,2.77-2.77V12.927a2.773,2.773,0,0,0,2.77-2.77V2.77A2.773,2.773,0,0,0,37.858,0ZM36.012,36.2H24.931V22.161h11.08Zm0-15.882h-12a.923.923,0,0,0-.923.923V37.12a.923.923,0,0,0,.923.923h12V39.89H22.161a.924.924,0,0,1-.923-.923V19.391a.924.924,0,0,1,.923-.923H36.012Zm0-3.693H22.161a2.773,2.773,0,0,0-2.77,2.77V38.966a2.773,2.773,0,0,0,2.77,2.77H36.012v2.77a.924.924,0,0,1-.923.923H5.54a.924.924,0,0,1-.923-.923V12.927H36.012Zm0,0" fill="#fff"/>
    </g>
  </g>
</svg>
