<svg xmlns="http://www.w3.org/2000/svg" width="76" height="76" viewBox="0 0 76 76">
  <g id="Group_812" data-name="Group 812" transform="translate(-795 -1343)">
    <circle id="Ellipse_117" data-name="Ellipse 117" cx="38" cy="38" r="38" transform="translate(795 1343)" fill="#00c2c7"/>
    <g id="Wart-Removal-Icon-01" transform="translate(796.412 1347.431)">
      <path id="Path_2371" data-name="Path 2371" d="M45.249,5.258c.349.116.669.2.989.32a4.586,4.586,0,0,1,3.14,4.3c.087,2.85.029,5.728.058,8.578v.7a5.026,5.026,0,0,1,4.391-1.192,4.939,4.939,0,0,1,3.46,2.733,5.06,5.06,0,0,1,8.782,2.559,4.282,4.282,0,0,1,3.431-.785,4.117,4.117,0,0,1,3.315,4.071c0,3.984,0,8-.087,11.98a24.829,24.829,0,0,1-.494,2.879,1.192,1.192,0,0,0,.116.785,9.779,9.779,0,0,1-3.315,13.289.713.713,0,0,0-.378.669c.029.9.029,1.8,0,2.733,0,.64-.378.989-.9.93-.465-.058-.727-.378-.727-.96V56.464c-.465.116-.843.2-1.25.291a.854.854,0,0,1-1.1-.552.8.8,0,0,1,.7-.989,8.237,8.237,0,0,0,5.961-11.428,8.15,8.15,0,0,0-7.589-4.856,8.2,8.2,0,0,0-1.687,16.2l.349.087A.811.811,0,1,1,62,56.784a9.818,9.818,0,1,1,8.4-16.923c.087.058.145.145.233.2.029.029.058.029.2.087.087-.7.233-1.367.262-2.065.029-3.838.058-7.677.029-11.515a2.51,2.51,0,0,0-2.5-2.617,2.563,2.563,0,0,0-2.617,2.588c-.029.756,0,1.541-.029,2.3,0,.582-.32.93-.785.93a.845.845,0,0,1-.814-.93V23.984a3.323,3.323,0,0,0-3.111-3.431,3.278,3.278,0,0,0-3.548,3.053c-.087.9-.029,1.8-.029,2.7,0,.669-.291,1.047-.814,1.047s-.814-.378-.814-1.076V22.7a3.321,3.321,0,0,0-6.63-.291c-.058.785-.029,1.6-.058,2.384,0,.64-.32,1.047-.814,1.047s-.814-.407-.814-1.076V10.26A3.325,3.325,0,0,0,44.9,6.828a3.271,3.271,0,0,0-3.751,2.85c-.087,1.628-.029,3.257-.029,4.972a2.983,2.983,0,0,1,2.675,1.163,2.815,2.815,0,0,1,.582,1.832c-.058,1.687-1.163,2.617-3.315,2.879V32.882a7.086,7.086,0,0,1-.029.785.815.815,0,1,1-1.628-.058c-.029-1.018-.029-2.065,0-3.082a1.466,1.466,0,0,0-.523-1.25C37.543,28,36.234,26.689,34.9,25.409a.78.78,0,0,1-.145-1.134.769.769,0,0,1,1.134-.116c.814.727,1.6,1.512,2.384,2.268.32.32.64.669,1.018,1.076.029-.262.058-.378.058-.494V20.088a1.212,1.212,0,0,0-.262-.7,2.969,2.969,0,0,1,0-3.664,1.393,1.393,0,0,0,.262-.756c.029-1.483.029-2.937.029-4.42a4.954,4.954,0,0,1,4.013-5.263c.058,0,.087-.058.116-.087C44.173,5.258,44.725,5.258,45.249,5.258ZM41.527,18.925a1.23,1.23,0,0,0,1.279-1.25,1.286,1.286,0,0,0-1.279-1.338,1.316,1.316,0,0,0-1.309,1.279A1.285,1.285,0,0,0,41.527,18.925Z" transform="translate(-17.416)" fill="#fff"/>
      <path id="Path_2372" data-name="Path 2372" d="M29.316,98.576v4.536a.774.774,0,0,1-.785.872.8.8,0,0,1-.814-.843v-.378c0-2.588-.029-5.176,0-7.793a5.054,5.054,0,0,0-1.6-3.9c-4.827-4.74-9.6-9.508-14.364-14.306A5.379,5.379,0,0,1,11.2,69.44a5.215,5.215,0,0,1,3.4-1.977,1.479,1.479,0,0,1,.989.233.684.684,0,0,1,.174.727,1.128,1.128,0,0,1-.727.582,3.848,3.848,0,0,0-2.123,6.688C17.684,80.461,22.453,85.259,27.251,90a6.417,6.417,0,0,1,2.035,4.914C29.287,96.134,29.316,97.355,29.316,98.576Z" transform="translate(0 -44.148)" fill="#fff"/>
      <path id="Path_2373" data-name="Path 2373" d="M124.268,136.822a3.879,3.879,0,0,1-2.85.872q-1.832-.044-3.664,0a3.8,3.8,0,0,1-2.762-.872c-.145.64-.291,1.221-.436,1.8l-.087.349a.81.81,0,0,1-.989.582.777.777,0,0,1-.552-.989c.32-1.425.611-2.85.931-4.245a6.422,6.422,0,0,1,.233-1.076,3.053,3.053,0,0,1,2.937-2.152c1.716-.058,3.4-.058,5.118,0a3.3,3.3,0,0,1,3.2,3.024c.2,1.367.582,2.7.872,4.042.029.058.029.145.058.2.145.7-.058,1.134-.552,1.25s-.872-.2-1.018-.9C124.558,138.1,124.413,137.491,124.268,136.822Zm-4.652-4.158H117.26a1.7,1.7,0,0,0-1.774,1.628,1.667,1.667,0,0,0,1.657,1.774c1.628.029,3.257.029,4.914,0a1.694,1.694,0,0,0,1.657-1.745,1.765,1.765,0,0,0-1.774-1.687C121.185,132.664,120.4,132.664,119.615,132.664Z" transform="translate(-72.969 -89.255)" fill="#fff"/>
      <path id="Path_2374" data-name="Path 2374" d="M104.6,92.908A2.88,2.88,0,0,1,107.507,90a2.929,2.929,0,0,1,2.937,2.937,3.006,3.006,0,0,1-2.937,2.937A2.948,2.948,0,0,1,104.6,92.908Zm2.879,1.279a1.294,1.294,0,1,0,.029-2.588,1.285,1.285,0,0,0-1.309,1.309A1.254,1.254,0,0,0,107.478,94.187Z" transform="translate(-67.083 -60.142)" fill="#fff"/>
      <path id="Path_2375" data-name="Path 2375" d="M134.1,142.643a.8.8,0,1,1-.785-.843A.854.854,0,0,1,134.1,142.643Z" transform="translate(-86.872 -96.88)" fill="#fff"/>
      <path id="Path_2376" data-name="Path 2376" d="M126.225,138.343a.88.88,0,0,1-.814.843.826.826,0,0,1-.814-.872.875.875,0,0,1,.814-.814A.858.858,0,0,1,126.225,138.343Z" transform="translate(-81.265 -93.83)" fill="#fff"/>
      <path id="Path_2377" data-name="Path 2377" d="M142.6,139.514a.833.833,0,0,1-.785.843.786.786,0,0,1-.814-.843.8.8,0,0,1,.814-.814A.807.807,0,0,1,142.6,139.514Z" transform="translate(-92.9 -94.681)" fill="#fff"/>
    </g>
  </g>
</svg>
