<svg xmlns="http://www.w3.org/2000/svg" viewBox="0 0 43 43" width="43" height="43">
	<defs>
		<clipPath clipPathUnits="userSpaceOnUse" id="cp1">
			<path d="M18 15L26 15L26 29.55L18 29.55L18 15Z" />
		</clipPath>
	</defs>
	<style>
		tspan { white-space:pre }
		.shp0 { fill: #7accc8 } 
		.shp1 { fill: #ffffff } 
	</style>
	<g id="Group_807">
		<g id="Group_644">
			<path id="Ellipse_89" class="shp0" d="M21.5 43C9.61 43 0 33.39 0 21.5C0 9.61 9.61 0 21.5 0C33.39 0 43 9.61 43 21.5C43 33.39 33.39 43 21.5 43Z" />
			<g id="Facebook">
				<g id="Group_2">
					<g id="Clip-Path: Group_1" clip-path="url(#cp1)">
						<g id="Group_1">
							<path id="Path_1" class="shp1" d="M25.61 14.99L23.74 14.99C23.28 14.96 22.81 15.03 22.37 15.2C21.93 15.37 21.54 15.63 21.21 15.97C20.88 16.31 20.63 16.71 20.47 17.15C20.32 17.59 20.25 18.06 20.29 18.53L20.29 20.16L18.42 20.16C18.38 20.16 18.34 20.17 18.3 20.18C18.27 20.2 18.24 20.22 18.21 20.24C18.18 20.27 18.16 20.3 18.15 20.34C18.13 20.38 18.12 20.41 18.12 20.45L18.12 22.82C18.12 22.86 18.13 22.89 18.15 22.93C18.16 22.97 18.18 23 18.21 23.03C18.24 23.05 18.27 23.07 18.3 23.09C18.34 23.1 18.38 23.11 18.42 23.11L20.29 23.11L20.29 29.08C20.29 29.12 20.3 29.16 20.32 29.19C20.33 29.23 20.35 29.26 20.38 29.29C20.41 29.31 20.44 29.34 20.47 29.35C20.51 29.37 20.55 29.37 20.59 29.37L23.03 29.37C23.07 29.37 23.11 29.37 23.15 29.35C23.18 29.34 23.21 29.31 23.24 29.29C23.27 29.26 23.29 29.23 23.3 29.19C23.32 29.16 23.33 29.12 23.33 29.08L23.33 23.11L25.52 23.11C25.56 23.11 25.6 23.1 25.63 23.09C25.67 23.07 25.7 23.05 25.73 23.03C25.75 23 25.78 22.97 25.79 22.93C25.81 22.89 25.81 22.86 25.81 22.82L25.81 20.45C25.81 20.41 25.81 20.38 25.79 20.34C25.78 20.3 25.76 20.27 25.73 20.24C25.7 20.22 25.67 20.2 25.63 20.18C25.6 20.17 25.56 20.16 25.52 20.16L23.33 20.16L23.33 18.78C23.33 18.11 23.48 17.78 24.35 17.78L25.61 17.78C25.65 17.78 25.68 17.77 25.72 17.75C25.75 17.74 25.79 17.72 25.81 17.69C25.84 17.66 25.86 17.63 25.88 17.59C25.89 17.56 25.9 17.52 25.9 17.48L25.9 15.28C25.9 15.24 25.89 15.21 25.88 15.17C25.86 15.13 25.84 15.1 25.82 15.07C25.79 15.05 25.76 15.03 25.72 15.01C25.68 15 25.65 14.99 25.61 14.99L25.61 14.99Z" />
						</g>
					</g>
				</g>
			</g>
		</g>
		<g id="Group_645">
			<path id="Ellipse_90" class="shp0" d="M79.5 43C67.61 43 58 33.39 58 21.5C58 9.61 67.61 0 79.5 0C91.39 0 101 9.61 101 21.5C101 33.39 91.39 43 79.5 43Z" />
			<g id="Twitter">
				<path id="Path_1-2" class="shp1" d="M87 17.35C86.87 17.4 86.74 17.46 86.6 17.5C86.47 17.55 86.33 17.6 86.19 17.63C86.05 17.67 85.92 17.7 85.77 17.73C85.63 17.76 85.49 17.78 85.35 17.8C85.5 17.71 85.64 17.61 85.77 17.49C85.9 17.38 86.02 17.25 86.13 17.12C86.23 16.98 86.33 16.84 86.41 16.69C86.49 16.53 86.56 16.37 86.61 16.21C86.47 16.29 86.33 16.37 86.18 16.44C86.03 16.51 85.88 16.58 85.73 16.64C85.58 16.7 85.42 16.75 85.26 16.79C85.11 16.84 84.95 16.88 84.79 16.91C84.36 16.45 83.78 16.14 83.16 16.04C82.54 15.94 81.9 16.05 81.34 16.34C80.78 16.64 80.34 17.12 80.08 17.69C79.82 18.27 79.75 18.91 79.89 19.53C79.32 19.5 78.76 19.41 78.21 19.27C77.66 19.12 77.12 18.92 76.62 18.66C76.11 18.4 75.63 18.09 75.18 17.73C74.74 17.37 74.33 16.97 73.98 16.53C73.79 16.84 73.67 17.19 73.62 17.54C73.56 17.9 73.58 18.27 73.66 18.62C73.74 18.97 73.89 19.31 74.1 19.61C74.3 19.9 74.56 20.16 74.86 20.36C74.75 20.36 74.64 20.35 74.53 20.33C74.41 20.31 74.3 20.29 74.19 20.26C74.08 20.23 73.98 20.19 73.87 20.15C73.77 20.11 73.66 20.06 73.56 20L73.56 20.04C73.56 20.37 73.62 20.69 73.73 21C73.84 21.31 74 21.6 74.21 21.85C74.42 22.11 74.67 22.33 74.95 22.5C75.23 22.67 75.54 22.79 75.86 22.85C75.8 22.87 75.74 22.88 75.68 22.9C75.62 22.91 75.55 22.92 75.49 22.93C75.43 22.94 75.36 22.94 75.3 22.95C75.23 22.95 75.17 22.95 75.11 22.95C75.06 22.95 75.02 22.95 74.97 22.95C74.93 22.95 74.88 22.94 74.84 22.94C74.79 22.94 74.74 22.93 74.7 22.92C74.66 22.92 74.61 22.91 74.57 22.9C74.66 23.18 74.79 23.45 74.96 23.69C75.14 23.94 75.35 24.15 75.59 24.33C75.83 24.51 76.09 24.64 76.37 24.74C76.66 24.84 76.95 24.89 77.25 24.9C77 25.09 76.73 25.27 76.45 25.42C76.16 25.58 75.87 25.7 75.57 25.81C75.26 25.91 74.95 25.99 74.64 26.04C74.32 26.1 74 26.12 73.68 26.12C73.62 26.12 73.57 26.12 73.51 26.12C73.45 26.12 73.4 26.11 73.34 26.11C73.28 26.11 73.23 26.1 73.17 26.1C73.11 26.09 73.06 26.09 73 26.08C74.23 26.87 75.66 27.32 77.12 27.37C78.59 27.42 80.04 27.07 81.33 26.37C82.61 25.67 83.69 24.63 84.43 23.37C85.18 22.11 85.57 20.67 85.57 19.2L85.56 18.83C85.7 18.73 85.84 18.62 85.97 18.51C86.1 18.4 86.23 18.28 86.35 18.15C86.47 18.03 86.58 17.9 86.69 17.76C86.8 17.63 86.9 17.49 87 17.35Z" />
			</g>
		</g>
	</g>
</svg>