<svg xmlns="http://www.w3.org/2000/svg" width="43" height="43" viewBox="0 0 43 43">
  <g id="Group_1002" data-name="Group 1002" transform="translate(-836 -4899)">
    <g id="Group_645" data-name="Group 645" transform="translate(404 692)">
      <circle id="Ellipse_90" data-name="Ellipse 90" cx="21.5" cy="21.5" r="21.5" transform="translate(432 4207)" fill="#7accc8"/>
    </g>
    <g id="instagram" transform="translate(850.25 4913.25)">
      <path id="Path_2611" data-name="Path 2611" d="M10.18,0H4.319A4.324,4.324,0,0,0,0,4.319v5.86A4.324,4.324,0,0,0,4.319,14.5h5.86A4.324,4.324,0,0,0,14.5,10.18V4.319A4.324,4.324,0,0,0,10.18,0Zm2.861,10.18a2.861,2.861,0,0,1-2.861,2.861H4.319A2.861,2.861,0,0,1,1.459,10.18V4.319A2.861,2.861,0,0,1,4.319,1.459h5.86a2.861,2.861,0,0,1,2.861,2.861v5.86Z" fill="#fff"/>
      <path id="Path_2612" data-name="Path 2612" d="M136.75,133a3.75,3.75,0,1,0,3.75,3.75A3.754,3.754,0,0,0,136.75,133Zm0,6.041a2.291,2.291,0,1,1,2.291-2.291A2.291,2.291,0,0,1,136.75,139.041Z" transform="translate(-129.5 -129.5)" fill="#fff"/>
      <circle id="Ellipse_148" data-name="Ellipse 148" cx="0.899" cy="0.899" r="0.899" transform="translate(10.108 2.629)" fill="#fff"/>
    </g>
  </g>
</svg>
