<svg xmlns="http://www.w3.org/2000/svg" xmlns:xlink="http://www.w3.org/1999/xlink" width="166.842" height="167.655" viewBox="0 0 166.842 167.655">
  <defs>
    <linearGradient id="linear-gradient" x1="0.5" y1="0.941" x2="0.428" y2="-0.71" gradientUnits="objectBoundingBox">
      <stop offset="0" stop-color="#293882"/>
      <stop offset="1" stop-color="#171042"/>
    </linearGradient>
    <linearGradient id="linear-gradient-2" x1="-1.227" y1="-0.168" x2="3.777" y2="2.241" gradientUnits="objectBoundingBox">
      <stop offset="0" stop-color="#8d50a0"/>
      <stop offset="1" stop-color="#ef4a7b"/>
    </linearGradient>
    <linearGradient id="linear-gradient-3" x1="-33.693" y1="-2.495" x2="175.233" y2="15.723" xlink:href="#linear-gradient-2"/>
    <linearGradient id="linear-gradient-4" x1="1.2" y1="-0.18" x2="-0.721" y2="1.66" gradientUnits="objectBoundingBox">
      <stop offset="0" stop-color="#66cdf3"/>
      <stop offset="1" stop-color="#4a5aa8"/>
    </linearGradient>
    <linearGradient id="linear-gradient-5" x1="1.515" y1="-0.768" x2="-1.472" y2="2.895" xlink:href="#linear-gradient"/>
    <linearGradient id="linear-gradient-6" x1="1.002" y1="-2.459" x2="-0.075" y2="4.113" xlink:href="#linear-gradient"/>
    <linearGradient id="linear-gradient-7" x1="0.745" y1="-8.272" x2="0.026" y2="17.721" xlink:href="#linear-gradient-4"/>
    <linearGradient id="linear-gradient-8" x1="0.858" y1="-0.457" x2="0.614" y2="0.193" gradientUnits="objectBoundingBox">
      <stop offset="0" stop-color="#f9ee4a"/>
      <stop offset="1" stop-color="#da3d66"/>
    </linearGradient>
  </defs>
  <g id="New-Patient-Forms-01" transform="translate(-0.239 -0.263)">
    <path id="Path_2215" data-name="Path 2215" d="M147.764,144.326a60.012,60.012,0,0,1-9.233,7.806C108.4,173.7,72.81,167.408,65.256,165.9c-11.163-2.266-32.818-6.631-48.43-25.013C-6.844,113.018-3.151,69.2,15.147,40.331,18.5,35.043,36.214,5.666,72.222.966c21.823-2.854,47.171,2.938,65.553,18.3C176.469,51.662,173.7,116.963,147.764,144.326Z" transform="translate(0 0)" fill="#ff624a" opacity="0.8"/>
    <g id="Group_639" data-name="Group 639" transform="translate(37.725 11.255)">
      <path id="Path_2216" data-name="Path 2216" d="M44.9,41.429A8.722,8.722,0,0,1,53.629,32.7h73.863A7.6,7.6,0,0,1,135.13,40l5.456,107.1a5.683,5.683,0,0,1-5.54,5.959l-84.69,1.511A5.322,5.322,0,0,1,44.9,149.2Z" transform="translate(-44.9 -16.466)" fill="url(#linear-gradient)"/>
      <path id="Path_2217" data-name="Path 2217" d="M63.192,171.912h0l-9.485-.084A5.785,5.785,0,0,1,48,166.037V151.768a.168.168,0,1,1,.336,0v14.269a5.539,5.539,0,0,0,5.372,5.456l9.485.084a.181.181,0,0,1,.168.168C63.444,171.744,63.36,171.912,63.192,171.912Z" transform="translate(-45.398 -35.568)" fill="url(#linear-gradient-2)"/>
      <path id="Path_2218" data-name="Path 2218" d="M48.168,146.086a.181.181,0,0,1-.168-.168v-2.35a.168.168,0,1,1,.336,0v2.35C48.42,146,48.336,146.086,48.168,146.086Z" transform="translate(-45.398 -34.25)" fill="url(#linear-gradient-3)"/>
      <g id="Group_637" data-name="Group 637" transform="translate(6.043 15.379)">
        <path id="Path_2219" data-name="Path 2219" d="M52.1,34.215A2.561,2.561,0,0,1,54.954,31.7c10.072,1.343,44.821,5.624,73.443,3.357a2.357,2.357,0,0,1,2.518,2.182l5.708,107.6a2.657,2.657,0,0,1-2.518,2.854c-12.087.755-61.776,3.441-79.486,1.595a2.1,2.1,0,0,1-1.93-2.1Z" transform="translate(-52.1 -31.681)" fill="url(#linear-gradient-4)"/>
        <path id="Path_2220" data-name="Path 2220" d="M53.5,37.431A2.43,2.43,0,0,1,56.27,35c9.736,1.343,43.142,5.372,70.673,3.273a2.264,2.264,0,0,1,2.434,2.1l5.54,103.575a2.546,2.546,0,0,1-2.434,2.686c-11.583.671-59.426,3.357-76.465,1.595a2.078,2.078,0,0,1-1.847-2.014Z" transform="translate(-52.325 -32.211)" fill="#fff" opacity="0.6"/>
        <g id="Group_626" data-name="Group 626" transform="translate(43.478 13.11)" opacity="0.6">
          <path id="Path_2221" data-name="Path 2221" d="M132.018,49.314a.223.223,0,0,0,.252-.252V48.055a.223.223,0,0,0-.252-.252l-27.95-.5c-.168,0-.168.084-.168.252l.588,1.595c.084.084.168.252.336.252h27.195Z" transform="translate(-103.9 -47.3)" fill="#fff"/>
        </g>
        <g id="Group_627" data-name="Group 627" transform="translate(43.478 17.307)" opacity="0.6">
          <path id="Path_2222" data-name="Path 2222" d="M104.068,52.3c-.168,0-.168.084-.168.252l.588,1.595c.084.084.168.252.336.252H132.1a.223.223,0,0,0,.252-.252V53.139a.223.223,0,0,0-.252-.252Z" transform="translate(-103.9 -52.3)" fill="#fff"/>
        </g>
        <g id="Group_628" data-name="Group 628" transform="translate(43.478 21.503)" opacity="0.6">
          <path id="Path_2223" data-name="Path 2223" d="M104.068,57.3c-.168,0-.168.084-.168.252l.588,1.595c.084.084.168.252.336.252H132.1a.223.223,0,0,0,.252-.252V58.139a.223.223,0,0,0-.252-.252Z" transform="translate(-103.9 -57.3)" fill="#fff"/>
        </g>
        <g id="Group_629" data-name="Group 629" transform="translate(10.269 41.732)" opacity="0.6">
          <path id="Path_2224" data-name="Path 2224" d="M128.264,83.414a.223.223,0,0,0,.252-.252l-.084-1.007a.223.223,0,0,0-.252-.252l-63.707-.5c-.168,0-.168.084-.084.168l1.259,1.595a.636.636,0,0,0,.336.168h62.28Z" transform="translate(-64.334 -81.4)" fill="#fff"/>
        </g>
        <g id="Group_630" data-name="Group 630" transform="translate(10.269 48.278)" opacity="0.6">
          <path id="Path_2225" data-name="Path 2225" d="M64.473,89.2c-.168,0-.168.084-.084.168l1.259,1.595a.636.636,0,0,0,.336.168h62.2a.223.223,0,0,0,.252-.252l-.084-1.007a.223.223,0,0,0-.252-.252Z" transform="translate(-64.334 -89.2)" fill="#fff"/>
        </g>
        <g id="Group_631" data-name="Group 631" transform="translate(10.521 56.504)" opacity="0.6">
          <path id="Path_2226" data-name="Path 2226" d="M64.773,99c-.168,0-.168.084-.084.168l1.259,1.595a.636.636,0,0,0,.336.168h62.2a.223.223,0,0,0,.252-.252l-.084-1.007a.223.223,0,0,0-.252-.252Z" transform="translate(-64.634 -99)" fill="#fff"/>
        </g>
        <g id="Group_636" data-name="Group 636" transform="translate(11.583 66.828)">
          <path id="Path_2227" data-name="Path 2227" d="M73.118,118.6h0l-5.288-.084a1.381,1.381,0,0,1-1.427-1.175l-.5-4.449a1.134,1.134,0,0,1,1.091-1.175h0a17.312,17.312,0,0,0,1.763-.168c1.427-.084,3.106-.252,4.113-.252a1.573,1.573,0,0,1,1.511,1.007,21.708,21.708,0,0,1,.168,4.952A1.456,1.456,0,0,1,73.118,118.6Zm-6.127-6.379a.6.6,0,0,0-.5.252.641.641,0,0,0-.168.42l.5,4.449a1,1,0,0,0,1.007.839l5.288.084h0a.863.863,0,0,0,.923-.839,20.685,20.685,0,0,0-.168-4.868,1.112,1.112,0,0,0-1.091-.755c-.923,0-2.686.168-4.113.252-.588.084-1.259.084-1.679.168Z" transform="translate(-65.9 -111.3)" fill="#fff"/>
          <path id="Path_2228" data-name="Path 2228" d="M67.769,112.836c1.091-.084,3.525-.336,4.616-.336a.945.945,0,0,1,1.007.671,18.314,18.314,0,0,1,.168,3.945.919.919,0,0,1-.923.839h-4.2a1,1,0,0,1-1.007-.839l-.336-3.525A.642.642,0,0,1,67.769,112.836Z" transform="translate(-66.09 -111.493)" fill="#fff" opacity="0.6"/>
          <g id="Group_632" data-name="Group 632" transform="translate(11.806 2.686)" opacity="0.6">
            <path id="Path_2229" data-name="Path 2229" d="M79.994,116.179a1.337,1.337,0,0,0,1.259,1.007l48.766-.42a.97.97,0,0,0,1.007-1.007,1.021,1.021,0,0,0-1.007-1.007L81.254,114.5A1.366,1.366,0,0,0,79.994,116.179Z" transform="translate(-79.966 -114.5)" fill="#fff"/>
          </g>
          <path id="Path_2230" data-name="Path 2230" d="M73.118,132h0l-5.288-.084a1.381,1.381,0,0,1-1.427-1.175l-.5-4.449a1.134,1.134,0,0,1,1.091-1.175h0a17.312,17.312,0,0,0,1.763-.168c1.427-.084,3.106-.252,4.113-.252h0a1.463,1.463,0,0,1,1.427,1.007,21.709,21.709,0,0,1,.168,4.952A1.277,1.277,0,0,1,73.118,132Zm-6.127-6.379a.6.6,0,0,0-.5.252.641.641,0,0,0-.168.42l.5,4.449a1,1,0,0,0,1.007.839l5.288.084h0a.863.863,0,0,0,.923-.839,20.686,20.686,0,0,0-.168-4.868,1.112,1.112,0,0,0-1.091-.755c-.923,0-2.686.168-4.113.252a14.128,14.128,0,0,1-1.679.168Z" transform="translate(-65.9 -113.453)" fill="#fff"/>
          <path id="Path_2231" data-name="Path 2231" d="M67.769,126.336c1.091-.084,3.525-.336,4.616-.336a.945.945,0,0,1,1.007.671,18.314,18.314,0,0,1,.168,3.945.919.919,0,0,1-.923.839h-4.2a1,1,0,0,1-1.007-.839l-.336-3.525A.642.642,0,0,1,67.769,126.336Z" transform="translate(-66.09 -113.662)" fill="#fff" opacity="0.6"/>
          <g id="Group_633" data-name="Group 633" transform="translate(11.806 14.017)" opacity="0.6">
            <path id="Path_2232" data-name="Path 2232" d="M79.994,129.595a1.337,1.337,0,0,0,1.259,1.007l48.766-.42a.97.97,0,0,0,1.007-1.007,1.021,1.021,0,0,0-1.007-1.007L81.254,128A1.3,1.3,0,0,0,79.994,129.595Z" transform="translate(-79.966 -128)" fill="#fff"/>
          </g>
          <path id="Path_2233" data-name="Path 2233" d="M73.118,145.5h0l-5.288-.084a1.381,1.381,0,0,1-1.427-1.175l-.5-4.449a1.134,1.134,0,0,1,1.091-1.175h0a17.315,17.315,0,0,0,1.763-.168c1.427-.084,3.106-.252,4.113-.252h0a1.463,1.463,0,0,1,1.427,1.007,21.71,21.71,0,0,1,.168,4.952A1.326,1.326,0,0,1,73.118,145.5Zm-6.127-6.379a.6.6,0,0,0-.5.252.641.641,0,0,0-.168.42l.5,4.449a1,1,0,0,0,1.007.839l5.288.084h0a.863.863,0,0,0,.923-.839,20.685,20.685,0,0,0-.168-4.868,1.112,1.112,0,0,0-1.091-.755c-.923,0-2.686.168-4.113.252-.588.084-1.259.084-1.679.168Z" transform="translate(-65.9 -115.622)" fill="#fff"/>
          <path id="Path_2234" data-name="Path 2234" d="M67.769,139.736c1.091-.084,3.525-.336,4.616-.336a.945.945,0,0,1,1.007.671,18.314,18.314,0,0,1,.168,3.945.919.919,0,0,1-.923.839h-4.2a1,1,0,0,1-1.007-.839l-.336-3.525A.642.642,0,0,1,67.769,139.736Z" transform="translate(-66.09 -115.814)" fill="#fff" opacity="0.6"/>
          <g id="Group_634" data-name="Group 634" transform="translate(11.806 25.264)" opacity="0.6">
            <path id="Path_2235" data-name="Path 2235" d="M79.994,143.079a1.337,1.337,0,0,0,1.259,1.007l48.766-.42a.97.97,0,0,0,1.007-1.007,1.021,1.021,0,0,0-1.007-1.007L81.254,141.4A1.366,1.366,0,0,0,79.994,143.079Z" transform="translate(-79.966 -141.4)" fill="#fff"/>
          </g>
          <path id="Path_2236" data-name="Path 2236" d="M73.118,158.9h0l-5.288-.084a1.381,1.381,0,0,1-1.427-1.175l-.5-4.449a1.134,1.134,0,0,1,1.091-1.175h0a17.314,17.314,0,0,0,1.763-.168c1.427-.084,3.106-.252,4.113-.252h0a1.463,1.463,0,0,1,1.427,1.007,21.71,21.71,0,0,1,.168,4.952A1.277,1.277,0,0,1,73.118,158.9Zm-6.127-6.379a.6.6,0,0,0-.5.252.641.641,0,0,0-.168.42l.5,4.449a1,1,0,0,0,1.007.839l5.288.084h0a.863.863,0,0,0,.923-.839,20.685,20.685,0,0,0-.168-4.868,1.112,1.112,0,0,0-1.091-.755c-.923,0-2.686.168-4.113.252a14.125,14.125,0,0,1-1.679.168Z" transform="translate(-65.9 -117.774)" fill="#fff"/>
          <path id="Path_2237" data-name="Path 2237" d="M67.769,153.236c1.091-.084,3.525-.336,4.616-.336a.945.945,0,0,1,1.007.671,18.314,18.314,0,0,1,.168,3.945.919.919,0,0,1-.923.839h-4.2a1,1,0,0,1-1.007-.839l-.336-3.525A.642.642,0,0,1,67.769,153.236Z" transform="translate(-66.09 -117.983)" fill="#fff" opacity="0.6"/>
          <g id="Group_635" data-name="Group 635" transform="translate(11.806 36.512)" opacity="0.6">
            <path id="Path_2238" data-name="Path 2238" d="M79.994,156.479h0a1.337,1.337,0,0,0,1.259,1.007l48.766-.42a.97.97,0,0,0,1.007-1.007,1.021,1.021,0,0,0-1.007-1.007L81.254,154.8A1.4,1.4,0,0,0,79.994,156.479Z" transform="translate(-79.966 -154.8)" fill="#fff"/>
          </g>
        </g>
      </g>
      <path id="Path_2239" data-name="Path 2239" d="M102.98,14.988a7.479,7.479,0,0,0-6.631-1.343A3.3,3.3,0,0,0,94,17.087l.671,7.722,8.393.755C103.148,25.564,108.268,18.681,102.98,14.988ZM99.287,21.2a2.1,2.1,0,1,1,2.1-2.1A2.078,2.078,0,0,1,99.287,21.2Z" transform="translate(-52.787 -13.359)" fill="url(#linear-gradient-5)"/>
      <path id="Path_2240" data-name="Path 2240" d="M95.8,21.764a.181.181,0,0,1-.168-.168l-.084-1.259c0-.084.084-.168.168-.252.084,0,.168.084.252.168l.084,1.259a.223.223,0,0,1-.252.252Zm-.252-2.35a.181.181,0,0,1-.168-.168l-.084-.923a3.032,3.032,0,0,1,2.182-3.273,5.566,5.566,0,0,1,3.106-.084c.084,0,.168.168.168.252s-.168.168-.252.168a6.516,6.516,0,0,0-2.854.084,2.734,2.734,0,0,0-1.93,2.854l.084.923a1.037,1.037,0,0,1-.252.168Z" transform="translate(-52.993 -13.588)" fill="#fff"/>
      <path id="Path_2241" data-name="Path 2241" d="M81.3,31.71V27.849a2.315,2.315,0,0,1,2.434-2.35l26.691.923a2.222,2.222,0,0,1,2.182,2.182l.252,3.693Z" transform="translate(-50.748 -15.309)" fill="url(#linear-gradient-6)"/>
      <path id="Path_2242" data-name="Path 2242" d="M92.843,27.136H91.668a.168.168,0,0,1,0-.336h1.175a.181.181,0,0,1,.168.168C93.095,27.052,92.927,27.136,92.843,27.136Z" transform="translate(-52.386 -15.518)" fill="#fff"/>
      <path id="Path_2243" data-name="Path 2243" d="M82.968,30.745a.181.181,0,0,1-.168-.168V28.982A2.222,2.222,0,0,1,84.982,26.8h4.2a.168.168,0,0,1,0,.336h-4.2A1.773,1.773,0,0,0,83.22,28.9v1.595C83.136,30.577,83.052,30.745,82.968,30.745Z" transform="translate(-50.989 -15.518)" fill="#fff"/>
      <path id="Path_2244" data-name="Path 2244" d="M68.251,33.65a2.493,2.493,0,0,1,2.518-2.35h46.584a3.351,3.351,0,0,1,3.357,2.854v.252a2.923,2.923,0,0,1-2.938,3.441H69.93A1.919,1.919,0,0,1,68,35.832Z" transform="translate(-48.61 -16.241)" fill="url(#linear-gradient-7)"/>
      <g id="Group_638" data-name="Group 638" transform="translate(18.55 27.985)">
        <circle id="Ellipse_111" data-name="Ellipse 111" cx="12.087" cy="12.087" r="12.087" fill="url(#linear-gradient-8)"/>
        <path id="Path_2245" data-name="Path 2245" d="M86.644,56.152H82.615V52.711A1.5,1.5,0,0,0,81.1,51.2H78.167a1.5,1.5,0,0,0-1.511,1.511v3.441H72.711A1.5,1.5,0,0,0,71.2,57.663V61.1a1.5,1.5,0,0,0,1.511,1.511H76.74v3.441a1.5,1.5,0,0,0,1.511,1.511h2.938A1.5,1.5,0,0,0,82.7,66.056V62.615h4.029A1.5,1.5,0,0,0,88.239,61.1V57.663A1.637,1.637,0,0,0,86.644,56.152Z" transform="translate(-67.675 -47.423)" fill="#fff"/>
      </g>
    </g>
  </g>
</svg>
