<?xml version="1.0" encoding="utf-8"?>
<!-- Generator: Adobe Illustrator 22.0.1, SVG Export Plug-In . SVG Version: 6.00 Build 0)  -->
<svg version="1.1" id="Layer_1" xmlns="http://www.w3.org/2000/svg" xmlns:xlink="http://www.w3.org/1999/xlink" x="0px" y="0px"
	 viewBox="0 0 200 200" style="enable-background:new 0 0 200 200;" xml:space="preserve">
<style type="text/css">
	.st0{fill:#231F20;}
	.st1{fill:#CE4291;}
	.st2{fill:#9F306B;}
	.st3{opacity:0.4;fill:#FFFFFF;}
	.st4{opacity:0.4;fill:#CE4291;}
	.st5{fill:#FFFFFF;}
	.st6{fill:#EA5224;}
	.st7{fill:#FCB548;}
	.st8{fill:#FAC0BC;}
	.st9{fill:#DAEEF6;}
	.st10{fill:#1F1D57;}
	.st11{fill:#3DBFB8;}
	.st12{fill:#F69794;}
	.st13{fill:#333333;}
	.st14{fill:#06A0A3;}
	.st15{fill:#E13269;}
	.st16{fill:#F05C7E;}
	.st17{opacity:0.2;fill:#F69794;}
	.st18{fill:#28BBAB;}
	.st19{fill:#1C4C7A;}
	.st20{fill:#F15822;}
	.st21{fill:#1A305B;}
	.st22{fill:#224988;}
	.st23{fill:#3861AD;}
	.st24{fill:#CAEAEE;}
	.st25{fill:#FBF9EC;}
	.st26{opacity:0.8;fill:#F1F2F2;}
	.st27{fill:#AE6161;}
	.st28{fill:#FABAAD;}
	.st29{fill:#F79B81;}
	.st30{fill:#78413B;}
	.st31{opacity:0.66;}
	.st32{fill:#F69082;}
	.st33{opacity:0.43;}
	.st34{fill:#F47D72;}
	.st35{fill:#7A3D1D;}
	.st36{fill:#F47C68;}
	.st37{fill:#6860A9;}
	.st38{fill:#514099;}
	.st39{opacity:0.25;}
	.st40{fill:#3E4058;}
	.st41{fill:#A6D8BB;}
	.st42{opacity:0.18;}
	.st43{fill:#8BCDCB;}
	.st44{fill:#F16460;}
	.st45{fill:#FEDB45;}
	.st46{opacity:0.59;}
	.st47{fill:#5E5E5E;}
	.st48{fill:#BCBCBB;}
	.st49{fill:#CFE9D9;}
	.st50{fill:#312D51;}
	.st51{opacity:0.87;}
	.st52{fill:#CA605A;}
	.st53{fill:#48292B;}
	.st54{fill:#21213A;}
	.st55{fill:#89CDAA;}
	.st56{fill:#B2DECE;}
	.st57{fill:url(#SVGID_1_);}
	.st58{fill:url(#SVGID_2_);}
	.st59{fill:url(#SVGID_3_);}
	.st60{fill:url(#SVGID_4_);}
	.st61{opacity:0.6;fill:#FFFFFF;}
	.st62{opacity:0.6;}
	.st63{fill:url(#SVGID_5_);}
	.st64{fill:url(#SVGID_6_);}
	.st65{fill:url(#SVGID_7_);}
	.st66{fill:url(#SVGID_8_);}
	.st67{fill:#DCDEE0;}
	.st68{fill:#ACAFB3;}
	.st69{fill:#F04A37;}
	.st70{fill:#4E4E4E;}
	.st71{fill:#939393;}
	.st72{fill:#D63F32;}
	.st73{fill:#D0CFAE;}
	.st74{fill:#E52627;}
	.st75{fill:#EE3C4D;}
	.st76{fill:url(#);}
	.st77{fill:#010101;}
	.st78{fill:#612D1D;}
	.st79{fill:#612E1E;}
	.st80{fill:#643022;}
	.st81{fill:#83554F;}
	.st82{fill:#C4B3A9;}
	.st83{fill:#FEEDE2;}
	.st84{fill:#FDE3D7;}
	.st85{fill:#FDE1D3;}
	.st86{fill:#FDDFCF;}
	.st87{fill:#FEEADE;}
	.st88{fill:#FDE6D9;}
	.st89{fill:#FFF7F3;}
	.st90{fill:#FEE6DA;}
	.st91{fill:#FDDED0;}
	.st92{fill:#F6FBFC;}
	.st93{fill:#FDDCCC;}
	.st94{fill:#FEE8DD;}
	.st95{fill:#FEE3D6;}
	.st96{fill:#FFF4EF;}
	.st97{fill:#FEE3D7;}
	.st98{fill:#FDDFD0;}
	.st99{fill:#FDE1D4;}
	.st100{fill:#FDDECF;}
	.st101{fill:#FDE3D6;}
	.st102{fill:#FEE9DD;}
	.st103{fill:#FBCAB4;}
	.st104{fill:#FBCBB6;}
	.st105{fill:#FCDBCB;}
	.st106{fill:#E4A771;}
	.st107{fill:#FDE7DB;}
	.st108{fill:#FDECE2;}
	.st109{fill:#FDE5D9;}
	.st110{fill:#FBC9B5;}
	.st111{fill:#FDD7C5;}
	.st112{fill:#FBCBB5;}
	.st113{fill:#FCEADE;}
	.st114{fill:#FDDBCB;}
	.st115{fill:#FBD1BE;}
	.st116{fill:#FDDAC8;}
	.st117{fill:#FBCEBA;}
	.st118{fill:#FBCBB7;}
	.st119{fill:#FAE5D7;}
	.st120{fill:#FEECE2;}
	.st121{fill:#FEE5D9;}
	.st122{fill:#FBD1BF;}
	.st123{fill:#F9DFCC;}
	.st124{fill:#FBCDBA;}
	.st125{fill:#F4BEA5;}
	.st126{fill:#FCE6D9;}
	.st127{fill:#F0F8FA;}
	.st128{fill:#F7DAC4;}
	.st129{fill:#E3A671;}
	.st130{fill:#F5D4BA;}
	.st131{fill:#FBE9DE;}
	.st132{fill:#FDEBE2;}
	.st133{fill:#FDE9DE;}
	.st134{fill:#FBE3D7;}
	.st135{fill:#E8B180;}
	.st136{fill:#EAB688;}
	.st137{fill:#F2CEB1;}
	.st138{fill:#FCE6DA;}
	.st139{fill:#EBB98E;}
	.st140{fill:#F1BEA8;}
	.st141{fill:#FDE2D6;}
	.st142{fill:#E7F3F6;}
	.st143{fill:#FCDFD2;}
	.st144{fill:#F3D0B4;}
	.st145{fill:#FBD3C2;}
	.st146{fill:#F9E9DF;}
	.st147{fill:#F0C7A5;}
	.st148{fill:#FAE8DC;}
	.st149{fill:#FCE9DD;}
	.st150{fill:#E6AA77;}
	.st151{fill:#E0EFF3;}
	.st152{fill:#F8E7DD;}
	.st153{fill:#E7AD7B;}
	.st154{fill:#D6E8ED;}
	.st155{fill:#F7E6DC;}
	.st156{fill:#FAD0BF;}
	.st157{fill:#E8B488;}
	.st158{fill:#DEA26E;}
	.st159{fill:#F2C3B0;}
	.st160{fill:#EFC6A1;}
	.st161{fill:#EEC6A5;}
	.st162{fill:#E4AA78;}
	.st163{fill:#F3E2D7;}
	.st164{fill:#E5AE7F;}
	.st165{fill:#EABB93;}
	.st166{fill:#F5E3D9;}
	.st167{fill:#E9B78C;}
	.st168{fill:#F5ECE7;}
	.st169{fill:#F5CDBC;}
	.st170{fill:#693520;}
	.st171{fill:#EEC4A1;}
	.st172{fill:#EABF9A;}
	.st173{fill:#EBBC94;}
	.st174{fill:#D6E5E9;}
	.st175{fill:#E6B07E;}
	.st176{fill:#E9BA92;}
	.st177{fill:#E7B285;}
	.st178{fill:#E6B7A6;}
	.st179{fill:#E1B1A1;}
	.st180{fill:#B6BDB9;}
	.st181{fill:#BCBABB;}
	.st182{fill:#CC9466;}
	.st183{fill:#CC9F8C;}
	.st184{fill:#C0C7C4;}
	.st185{fill:#BB9587;}
	.st186{fill:#FCFBFB;}
	.st187{fill:#F7F5F4;}
	.st188{fill:#FAC2B8;}
	.st189{fill:#622E1F;}
	.st190{fill:#FABCB1;}
	.st191{fill:#FEEDE5;}
	.st192{fill:#622E1E;}
	.st193{fill:#FABEB4;}
	.st194{fill:#FAC1B6;}
	.st195{fill:#623020;}
	.st196{fill:#FBFAF9;}
	.st197{fill:#653223;}
	.st198{fill:#FDF9F6;}
	.st199{fill:#FFF3EC;}
	.st200{fill:#FEF1E9;}
	.st201{fill:#FCCDBA;}
	.st202{fill:#67392B;}
	.st203{fill:#FFF3ED;}
	.st204{fill:#653627;}
	.st205{fill:#FBC7B1;}
	.st206{fill:#FEF4EF;}
	.st207{fill:#F1CAAA;}
	.st208{fill:#82543C;}
	.st209{fill:#ECBD94;}
	.st210{fill:#EEC49E;}
	.st211{fill:#7A4B30;}
	.st212{fill:#F1AF95;}
	.st213{fill:#F0AF95;}
	.st214{fill:none;stroke:#000000;stroke-width:8;stroke-linecap:round;stroke-miterlimit:10;}
	.st215{fill:none;stroke:#000000;stroke-width:8;stroke-miterlimit:10;}
	.st216{fill:#0EB3D4;}
	.st217{fill:#EF77AA;}
</style>
<g>
	<g>
		<path class="st216" d="M110.9,164.1c-6.3,5.7-15.6,17-25.2,12.3c0,0-0.1-0.1-0.1-0.1c-1.5-0.5-2.8-1.4-3.5-2.9c0,0,0-0.1,0-0.1
			c-2.3-3.8,0-8.3,2.5-11.7c4.4-6.1,10.1-11,15.6-16c4.2-3.8,9.1-9,14.9-9.9c4.7-0.7,9,1.5,10.7,5.9c0,0,0,0.1,0,0.1
			C128.8,150.3,116,159.5,110.9,164.1z M95.3,171.2c0.7-2.5-0.6-5.2-2.8-6.4c-2.1-1.1-4.4-0.6-6.4,0.6c0,0-0.1,0-0.1,0
			c-0.8,1.3-1.5,2.7-1.6,4.2c1.1-3.2,5.6-4.3,8.3-2.1c2.6,2.2,0.9,5.7-1.8,6.7c0,0-0.1,0.1-0.1,0.1c0,0-0.1,0-0.1,0
			c-0.4,0.1-0.9,0.2-1.4,0.2c-0.1,0-0.1-0.1-0.1-0.1c-2.7-0.1-4.4-1.5-5-3.6c-0.1-0.1-0.1-0.1-0.1-0.2c0,0,0-0.1,0-0.1
			c-0.4-1.7,0-3.8,1.2-5.8c4.6-7.5,12.1-15.1,19.5-20c-0.2-0.6-0.4-1.1-0.5-1.7c-2.4,1.9-4.5,3.9-6.1,5.4
			c-6,5.5-19.5,15.9-15.6,25.1C85.9,177.5,93.8,176.2,95.3,171.2z M111.2,150.4c1.4-1.1,2.8-2.2,4.2-3.2c0.1-0.1,0.3-0.1,0.4,0
			c0,0,0.1,0,0.1,0c0.9,0.5,1.9,1.3,3,1c0.9-0.2,1.4-1.1,1.5-2c0.1-0.8-0.2-1.6-0.6-2.2c-0.2-0.4-1.5-1.9-2.2-1.6c0,0-0.1,0-0.1,0
			c0,0,0,0-0.1,0.1c-2.5,2.1-4.9,4.4-7.6,6.4c-0.1,0.2-0.3,0.4-0.6,0.3c-1.7-0.7-3.1-2.2-4-3.9c-4.8,3.6-8.9,7.7-12.8,12.3
			c-1.9,2.2-4.1,4.5-5.8,7c4.5-3,11,1,9.8,6.7c-0.1,0.6-0.4,1.2-0.7,1.7c7.2-5,12.8-11.3,19.1-17.4c-1.6-1-3-2.5-3.7-4.3
			C111,151,110.9,150.6,111.2,150.4z M91,167.3c-3-1.2-5.1,0.7-6.2,3.3c0,0.1-0.1,0.1-0.2,0.1c0.1,0.4,0.3,0.8,0.5,1.2
			c1.3,2.1,3.4,2.1,5.5,1.9C93.2,172.4,94.6,168.8,91,167.3z M117.5,156.7c-0.7-0.2-1.3-0.5-1.9-0.8c-5.9,6.6-12.7,14.5-20.9,18.3
			c-1.2,1.2-2.9,2-4.6,2.4c8.1,0,15.2-8.5,20.7-13.6C113.1,160.9,115.3,158.8,117.5,156.7z M125,141.7c-4.5-9.4-13.3-4.6-20.1,0.9
			c1.1,2.5,2.4,4.3,4.7,5.8c2.2-2.4,4.8-4.4,7.3-6.4c0.1-0.1,0.2-0.1,0.3-0.1c0,0,0,0,0,0c0.8-0.7,2,0.2,2.6,0.8
			c1,0.9,1.6,2.3,1.5,3.7c-0.3,3.2-3.6,3.5-5.6,1.6c-1,1.2-2.4,2.2-3.7,3c1.5,2.3,3.3,4,6,4.8c0.1,0,0.2,0.1,0.2,0.1
			c0.6-0.6,1.2-1.2,1.8-1.9C123.6,150.3,125,146.7,125,141.7z"/>
		<path class="st216" d="M115.8,137.4c-1.2,0-2.3,0.6-3.1,1.4c-0.2,0.2,0.1,0.5,0.3,0.4c0.9-0.7,1.8-1,2.9-1.2
			C116.1,137.8,116,137.4,115.8,137.4z"/>
		<path class="st216" d="M117.4,137.9c-1,0-2.1,0.5-2.9,1c-0.2,0.1-0.1,0.5,0.2,0.4c0.5-0.2,0.9-0.4,1.4-0.5c0.5-0.1,1-0.2,1.4-0.4
			C117.8,138.4,117.8,137.9,117.4,137.9z"/>
		<path class="st216" d="M87.4,174.8c-1.1-0.1-2.1-0.5-3-1.1c-0.2-0.1-0.5,0.2-0.3,0.3c0.9,0.8,2,1.2,3.3,1.2
			C87.7,175.3,87.6,174.9,87.4,174.8z"/>
	</g>
	<g>
		<path class="st217" d="M171.7,103.4c-6.3,5.7-15.6,17-25.2,12.3c0,0-0.1-0.1-0.1-0.1c-1.5-0.5-2.8-1.4-3.5-2.9c0,0,0-0.1,0-0.1
			c-2.3-3.8,0-8.3,2.5-11.7c4.4-6.1,10.1-11,15.6-16c4.2-3.8,9.1-9,14.9-9.9c4.7-0.7,9,1.5,10.7,5.9c0,0,0,0.1,0,0.1
			C189.6,89.6,176.7,98.8,171.7,103.4z M156.1,110.4c0.7-2.5-0.6-5.2-2.8-6.4c-2.1-1.1-4.4-0.6-6.4,0.6c0,0-0.1,0-0.1,0
			c-0.8,1.3-1.5,2.7-1.6,4.2c1.1-3.2,5.6-4.3,8.3-2.1c2.6,2.2,0.9,5.7-1.8,6.7c0,0-0.1,0.1-0.1,0.1c0,0-0.1,0-0.1,0
			c-0.4,0.1-0.9,0.2-1.4,0.2c-0.1,0-0.1-0.1-0.1-0.1c-2.7-0.1-4.4-1.5-5-3.6c-0.1-0.1-0.1-0.1-0.1-0.2c0,0,0-0.1,0-0.1
			c-0.4-1.7,0-3.8,1.2-5.8c4.6-7.5,12.1-15.1,19.5-20c-0.2-0.6-0.4-1.1-0.5-1.7c-2.4,2-4.5,3.9-6.1,5.4c-6,5.5-19.5,15.9-15.6,25.1
			C146.6,116.8,154.6,115.5,156.1,110.4z M172,89.7c1.4-1.1,2.8-2.2,4.2-3.2c0.1-0.1,0.3-0.1,0.4,0c0,0,0.1,0,0.1,0
			c0.9,0.5,1.9,1.3,3,1c0.9-0.2,1.4-1.1,1.5-2c0.1-0.8-0.2-1.6-0.6-2.2c-0.2-0.4-1.5-1.9-2.2-1.6c0,0-0.1,0-0.1,0c0,0,0,0-0.1,0.1
			c-2.5,2.1-4.9,4.4-7.6,6.4c-0.1,0.2-0.3,0.4-0.6,0.3c-1.7-0.7-3.1-2.2-4-3.9c-4.8,3.6-8.9,7.7-12.8,12.3c-1.9,2.2-4.1,4.5-5.8,7
			c4.5-3,11,1,9.8,6.7c-0.1,0.6-0.4,1.2-0.7,1.7c7.2-5,12.8-11.3,19.1-17.4c-1.6-1-3-2.5-3.7-4.3C171.7,90.2,171.7,89.9,172,89.7z
			 M151.7,106.6c-3-1.2-5.1,0.7-6.2,3.3c0,0.1-0.1,0.1-0.2,0.1c0.1,0.4,0.3,0.8,0.5,1.2c1.3,2.1,3.4,2.1,5.5,1.9
			C153.9,111.7,155.3,108.1,151.7,106.6z M178.3,95.9c-0.7-0.2-1.3-0.5-1.9-0.8c-5.9,6.6-12.7,14.5-20.9,18.3
			c-1.2,1.2-2.9,2-4.6,2.4c8.1,0,15.2-8.5,20.7-13.6C173.8,100.1,176.1,98.1,178.3,95.9z M185.7,81c-4.5-9.4-13.3-4.6-20.1,0.9
			c1.1,2.5,2.4,4.3,4.7,5.8c2.2-2.4,4.8-4.4,7.3-6.4c0.1-0.1,0.2-0.1,0.3-0.1c0,0,0,0,0,0c0.8-0.7,2,0.2,2.6,0.8
			c1,0.9,1.6,2.3,1.5,3.7c-0.3,3.2-3.6,3.5-5.6,1.6c-1,1.2-2.4,2.2-3.7,3c1.5,2.3,3.3,4,6,4.8c0.1,0,0.2,0.1,0.2,0.1
			c0.6-0.6,1.2-1.2,1.8-1.9C184.4,89.6,185.7,85.9,185.7,81z"/>
		<path class="st217" d="M176.5,76.6c-1.2,0-2.3,0.6-3.1,1.4c-0.2,0.2,0.1,0.5,0.3,0.4c0.9-0.7,1.8-1,2.9-1.2
			C176.8,77.1,176.8,76.6,176.5,76.6z"/>
		<path class="st217" d="M178.2,77.2c-1,0-2.1,0.5-2.9,1c-0.2,0.1-0.1,0.5,0.2,0.4c0.5-0.2,0.9-0.4,1.4-0.5c0.5-0.1,1-0.2,1.4-0.4
			C178.5,77.6,178.5,77.2,178.2,77.2z"/>
		<path class="st217" d="M148.1,114.1c-1.1-0.1-2.1-0.5-3-1.1c-0.2-0.1-0.5,0.2-0.3,0.3c0.9,0.8,2,1.2,3.3,1.2
			C148.4,114.5,148.4,114.1,148.1,114.1z"/>
	</g>
	<g>
		<path class="st216" d="M173.4,153.1c1.9,2,0.4,5.1-0.6,7.2c-1.1,2.1-2.4,4.8-4.5,6.3c0.1,0.1,0.2,0.4,0,0.5
			c-1.9,2.2-5,2.9-7.8,3.4c-0.2,0-0.3,0-0.4-0.1c0,0,0,0,0,0c-2.7-0.1-5.5-0.7-8.1-1.5c-2-0.7-4.5-1.4-6.1-3c0,0-0.1,0-0.1,0
			c-0.2,0-0.3-0.1-0.3-0.2c-0.1,0-0.2-0.1-0.2-0.2c-1-2.4-2.3-4.6-3.6-6.8c0,0,0,0,0,0c-0.2,0-0.3-0.1-0.3-0.3
			c-0.7-0.4-1.1-1.1-1.3-1.9c0-0.2,0.2-0.4,0.4-0.4c0.6,0.1,1.2,0.1,1.8,0.2c-0.1-0.6,0.1-1.2,0.4-1.8c0.1-0.2,0.4-0.2,0.5-0.1
			c0.6,0.4,1.2,0.7,1.7,1.2c0.1-0.8,0.4-1.6,1.2-1.9c0.5-0.2,1-0.1,1.4,0.1c0.5-1.2,2.3-1.4,3-0.2c0.3-0.5,0.6-1.1,0.8-1.7
			c0.1-0.2,0.3-0.3,0.5-0.2c0.3,0.2,0.6,0.3,1,0.5c0.2-0.5,0.4-1.1,0.7-1.6c0.1-0.2,0.3-0.2,0.5-0.1c0.6,0.2,1.1,0.4,1.6,0.7
			c0.2-0.8,0.5-1.5,1.3-1.8c0.3-0.1,0.6-0.1,0.9-0.1c0.6,0,0.3,0.3,0.6-0.2c0.3-0.4,0.3-0.8,0.7-1.2c0.3-0.2,0.7-0.4,1.1-0.4
			c0.6-0.1,1.1,0.1,1.5,0.5c0.2-0.7,0.5-1.4,0.9-2.1c0.1-0.2,0.4-0.2,0.6-0.1c0.3,0.2,0.6,0.3,0.9,0.3c0.1-0.6,0.2-1.2,0.5-1.7
			c0.1-0.2,0.3-0.3,0.6-0.3c0.6,0.2,1,0.4,1.5,0.8c0.3-0.6,0.6-1.2,1.1-1.7c0.2-0.2,0.6-0.3,0.8,0.1c0.1,0.4,0.2,0.8,0.4,1.1
			c0.1,0.4,0.3,0.7,0.3,1.1c0,0.3-0.5,0.7-0.7,0.3c-0.3-0.4-0.4-0.9-0.6-1.4c-0.2,0.3-0.4,0.6-0.6,1c0,0.1-0.1,0.2-0.2,0.2
			c0,0.4-0.5,0.7-0.8,0.3c-0.3-0.4-0.6-0.6-1.1-0.8c-0.2,0.5-0.3,1-0.4,1.5c0,0.2-0.2,0.4-0.5,0.4c-0.5,0-0.9-0.1-1.3-0.3
			c-0.4,0.6-0.7,1.2-1,1.9c0,0,0,0,0,0c0,0.3-0.4,0.5-0.7,0.2c-0.3-0.5-0.6-0.6-1.2-0.2c-0.6-0.1-0.9,0.1-0.9,0.6
			c-0.1,0.2-0.1,0.5-0.2,0.7c-0.1,0.2-0.2,0.3-0.4,0.5c-0.3,0.2-0.4,0-0.7,0c-0.2,0-1.5,0.4-1.7,0.6c-0.2,0.2-0.2,0.6-0.3,0.8
			c-0.1,0.2-0.3,0.2-0.5,0.2c-0.1,0-0.2,0-0.3,0c-0.4-0.2-0.9-0.4-1.3-0.6c-0.3,0.5-0.5,1-0.6,1.5c-0.1,0.2-0.3,0.3-0.5,0.2
			c-0.3-0.2-0.7-0.3-1-0.5c-0.3,0.6-0.6,1.1-1,1.5c-0.1,0.1-0.2,0.1-0.3,0.1c-0.2,0.2-0.5,0.2-0.7-0.1c-0.6-1-1.8-0.7-1.9,0.4
			c0,0.4-0.6,0.4-0.7,0.1c-0.8-1.5-1.9,0.7-2,1.3c0,0.1-0.1,0.2-0.2,0.2c-0.1,0.1-0.3,0.2-0.5,0.1c-0.6-0.3-1.1-0.7-1.7-1.1
			c-0.2,0.4-0.2,0.9-0.1,1.4c0.1,0.2-0.2,0.4-0.4,0.4l-1.8-0.2c0.2,0.5,0.5,0.9,0.9,1.2c9.8-3.1,19-6.7,27.7-12.3
			c0.3-0.2,0.6,0,0.8,0.2c0.1,0,0.2,0,0.2,0.1c0.5,1.1,0.8,2.3,1.3,3.5c0.5,1.1,1.1,2.2,1.6,3.4C173.4,153,173.4,153.1,173.4,153.1z
			 M159.3,169.5c-3.5-3-7.9-4.1-12.5-3.7C150.2,168.2,155.1,169,159.3,169.5z M173,153.8c-3.1,3.7-4.5,7.5-4.9,12.2
			c1.2-1.3,2.1-2.9,2.9-4.4C172.2,159.6,174.3,156.2,173,153.8z M170,146.7c-8.4,5.4-17.8,9.9-27.7,11.8c0.4,0.5,0.8,1,1.2,1.5
			c0,0,0,0,0,0c1.9,0.2,3.6,0.1,5.5-0.2c0.3,0,0.4,0.2,0.4,0.4c0,0,0,0,0,0.1c0.1,0.6,0.2,1.2,0.5,1.8c0.1,0.2-0.1,0.3-0.3,0.2
			c-0.4-0.5-0.7-1.1-0.8-1.7c-1.6,0.4-3.4,0.4-5,0c0.4,0.6,0.8,1.3,1.1,1.9c0.7,0,1.5,0,2.2,0c0.7-0.1,1.5-0.3,2.2-0.3
			c0.3,0,0.5,0.4,0.2,0.5c-1.3,0.5-2.9,0.5-4.3,0.3c0.3,0.7,0.6,1.4,0.8,2c0,0.1,0,0.1,0,0.2c5.3-1.2,10.8,0.6,14.6,4.4
			c2.4-0.6,4.6-1.3,6.6-2.9c-0.7-4.8,1.5-10.3,5-13.5c0,0,0.1,0,0.1-0.1c-0.4-0.5-0.7-1.1-1-1.7c-0.8,1.1-1.8,1.9-3.1,2.4
			c-0.2,0.1-0.3,0-0.4-0.1c-0.1,0.1-0.3,0.1-0.5-0.1c-0.5-0.4-0.8-1-1.1-1.6c-0.2-0.1-0.3-0.5-0.1-0.6c1.5-1,2.8-1.8,4.1-3
			C170.2,147.8,170.1,147.2,170,146.7z M167,151.9c0.3,0.4,0.6,0.8,1,1.1c0,0,0,0,0.1,0c1.2-0.4,2.3-1.1,3.2-2.1
			c-0.3-0.6-0.6-1.3-0.8-2C169.6,150.2,168.3,151.3,167,151.9z"/>
		<path class="st216" d="M168.8,154.2c-0.4,0.1-0.8,0.4-1.2,0.4c-0.4,0.1-0.8,0.1-1.3,0.1c-0.2,0-0.3,0.3-0.1,0.4
			c0.9,0.2,2.1,0.2,2.8-0.5C169.3,154.5,169,154.2,168.8,154.2z"/>
		<path class="st216" d="M169.1,155c-0.6,0.5-1.2,0.8-2,1c-0.2,0-0.2,0.4,0,0.4c0.9,0,1.8-0.3,2.4-1
			C169.7,155.2,169.3,154.8,169.1,155z"/>
		<path class="st216" d="M153.3,164.4c-1.2-0.4-2.5-0.6-3.8-0.4c-0.2,0-0.2,0.4,0,0.4c1.3,0,2.4,0.2,3.6,0.5
			C153.5,164.9,153.6,164.5,153.3,164.4z"/>
		<path class="st216" d="M154.1,163.7c-0.7-0.3-1.4-0.6-2.1-0.8c-0.3-0.1-0.4,0.3-0.1,0.4c0.7,0.3,1.4,0.7,2.1,0.9
			C154.2,164.4,154.4,163.9,154.1,163.7z"/>
	</g>
	<g>
		<path class="st217" d="M122.2,113.7c-0.1,2.8-3.3,4-5.6,4.7c-2.3,0.7-5.1,1.7-7.6,1.3c0,0.2-0.1,0.4-0.4,0.4
			c-2.9,0.2-5.6-1.5-7.9-3.1c-0.1-0.1-0.2-0.2-0.2-0.3c0,0,0,0,0,0c-1.9-2-3.4-4.4-4.7-6.8c-1-1.9-2.2-4.2-2.2-6.4
			c0,0-0.1,0-0.1-0.1c-0.2-0.1-0.2-0.3-0.1-0.4c0-0.1,0-0.2,0-0.3c1-2.4,1.6-4.8,2.2-7.4c0,0,0,0,0,0c-0.1-0.1-0.1-0.3,0-0.4
			c-0.2-0.8-0.1-1.5,0.4-2.2c0.1-0.2,0.4-0.2,0.5,0c0.4,0.5,0.8,0.9,1.2,1.4c0.4-0.5,0.9-0.8,1.6-1c0.2,0,0.4,0.1,0.4,0.3
			c0.1,0.7,0.3,1.4,0.4,2c0.6-0.5,1.4-0.8,2.2-0.5c0.5,0.2,0.8,0.6,0.9,1.1c1.2-0.5,2.6,0.6,2.3,2c0.6-0.2,1.2-0.3,1.8-0.6
			c0.2-0.1,0.5,0,0.6,0.2c0.1,0.3,0.2,0.7,0.4,1c0.5-0.3,1-0.5,1.6-0.6c0.2,0,0.4,0.1,0.4,0.2c0.3,0.5,0.5,1.1,0.6,1.6
			c0.7-0.4,1.4-0.7,2.2-0.4c0.3,0.1,0.5,0.4,0.7,0.6c0.4,0.4,0,0.4,0.6,0.3c0.5-0.1,0.8-0.4,1.3-0.3c0.4,0,0.8,0.2,1,0.4
			c0.5,0.4,0.7,0.9,0.7,1.4c0.7-0.3,1.4-0.6,2.1-0.8c0.2-0.1,0.4,0.1,0.5,0.3c0.1,0.3,0.2,0.6,0.4,0.9c0.5-0.4,1-0.7,1.6-0.9
			c0.2-0.1,0.5,0,0.6,0.2c0.3,0.5,0.4,1,0.5,1.6c0.6-0.3,1.3-0.5,2-0.5c0.3,0,0.7,0.3,0.5,0.6c-0.2,0.4-0.4,0.7-0.5,1.1
			c-0.2,0.3-0.3,0.7-0.6,1c-0.2,0.3-0.8,0.2-0.7-0.3c0.1-0.5,0.4-1,0.6-1.4c-0.4,0.1-0.7,0.1-1.1,0.3c-0.1,0-0.2,0-0.3,0
			c-0.2,0.3-0.8,0.2-0.8-0.3c0-0.5,0-0.9-0.2-1.3c-0.5,0.2-0.9,0.5-1.4,0.8c-0.2,0.1-0.4,0.1-0.6-0.1c-0.3-0.4-0.5-0.7-0.7-1.1
			c-0.7,0.2-1.4,0.4-2,0.7c0,0,0,0,0,0c-0.2,0.2-0.7,0-0.6-0.3c0.2-0.5-0.1-0.9-0.7-1c-0.3-0.5-0.7-0.6-1.1-0.2
			c-0.2,0.1-0.4,0.3-0.6,0.3c-0.3,0.1-0.3,0.1-0.6,0c-0.3-0.1-0.2-0.3-0.5-0.5c-0.2-0.1-1.3-0.7-1.6-0.7c-0.2,0-0.6,0.3-0.8,0.4
			c-0.2,0.1-0.4,0-0.4-0.2c-0.1-0.1-0.1-0.1-0.2-0.2c-0.1-0.5-0.3-0.9-0.5-1.4c-0.5,0.2-1,0.3-1.5,0.6c-0.2,0.1-0.5,0-0.5-0.2
			c-0.1-0.3-0.3-0.7-0.4-1c-0.6,0.2-1.2,0.3-1.8,0.3c-0.1,0-0.2-0.1-0.2-0.1c-0.2,0-0.5-0.2-0.4-0.5c0.3-1.1-0.8-1.8-1.6-1
			c-0.3,0.3-0.7-0.1-0.6-0.4c0.5-1.6-1.8-0.8-2.3-0.5c-0.1,0.1-0.2,0.1-0.3,0c-0.2,0-0.3-0.1-0.4-0.3c-0.2-0.6-0.3-1.3-0.4-1.9
			c-0.4,0.2-0.8,0.4-1,0.9c-0.1,0.2-0.4,0.2-0.5,0l-1.2-1.4c-0.2,0.5-0.3,0.9-0.2,1.5c9.2,4.7,18.2,8.6,28.3,10.8
			c0.4,0.1,0.5,0.4,0.4,0.7c0.1,0.1,0.1,0.2,0.1,0.3c-0.5,1.1-1,2.2-1.5,3.4c-0.5,1.1-0.8,2.4-1.3,3.5
			C122.3,113.6,122.3,113.6,122.2,113.7z M100.7,115.4c-0.4-4.6-2.7-8.5-6.2-11.5C95.1,108,98.1,112.1,100.7,115.4z M121.5,113.9
			c-4.8,0.4-8.4,2.1-12.1,5.2c1.8,0,3.5-0.6,5.2-1.1C116.8,117.4,120.7,116.5,121.5,113.9z M124.4,106.7c-9.8-2.1-19.6-5.6-28-11.1
			c0,0.6-0.1,1.3-0.2,1.9c0,0,0,0,0,0c1.2,1.5,2.5,2.6,4,3.8c0.2,0.2,0.1,0.5,0,0.6c0,0,0,0,0,0.1c-0.4,0.5-0.7,1-0.9,1.6
			c-0.1,0.2-0.3,0.1-0.3-0.1c0-0.7,0.3-1.3,0.7-1.8c-1.4-0.8-2.7-2.2-3.6-3.6c-0.1,0.7-0.3,1.4-0.6,2.1c0.5,0.5,1,1.1,1.6,1.5
			c0.6,0.5,1.2,0.9,1.8,1.4c0.2,0.2,0.1,0.6-0.3,0.5c-1.3-0.5-2.4-1.7-3.3-2.8c-0.3,0.7-0.5,1.4-0.9,2c0,0.1-0.1,0.1-0.1,0.1
			c4.6,2.8,7.2,8.1,7.3,13.4c2.2,1.3,4.2,2.3,6.7,2.6c2.9-3.9,8.3-6.2,13.1-6c0,0,0.1,0,0.1,0c0.1-0.6,0.3-1.3,0.5-1.9
			c-1.3,0.2-2.7,0.1-3.9-0.5c-0.2-0.1-0.2-0.2-0.2-0.4c-0.2,0-0.3-0.2-0.3-0.4c0-0.6,0.1-1.3,0.3-1.9c-0.1-0.3,0.1-0.6,0.4-0.5
			c1.7,0.4,3.3,0.7,5,0.8C123.7,107.7,124,107.2,124.4,106.7z M118.5,108.3c-0.1,0.5-0.1,1-0.1,1.5c0,0,0,0,0.1,0
			c1.2,0.6,2.4,0.9,3.8,0.8c0.2-0.7,0.5-1.3,0.9-2C121.6,108.9,119.9,108.8,118.5,108.3z"/>
		<path class="st217" d="M118.2,111.2c-0.4-0.2-0.8-0.3-1.2-0.5c-0.4-0.2-0.7-0.5-1-0.8c-0.1-0.2-0.4,0-0.3,0.2
			c0.5,0.8,1.4,1.6,2.3,1.6C118.4,111.7,118.4,111.4,118.2,111.2z"/>
		<path class="st217" d="M117.8,112c-0.8,0-1.4-0.2-2.1-0.7c-0.2-0.1-0.4,0.1-0.2,0.3c0.6,0.6,1.5,1,2.4,1
			C118.1,112.5,118.1,112,117.8,112z"/>
		<path class="st217" d="M100.1,107.5c-0.5-1.2-1.4-2.2-2.4-3c-0.2-0.1-0.4,0.1-0.2,0.3c0.9,0.9,1.6,1.8,2.2,2.9
			C99.8,108,100.2,107.8,100.1,107.5z"/>
		<path class="st217" d="M101,107.6c-0.2-0.7-0.6-1.4-0.9-2.1c-0.1-0.2-0.4-0.1-0.4,0.2c0.2,0.7,0.5,1.4,0.8,2.1
			C100.7,108.1,101.1,107.9,101,107.6z"/>
	</g>
	<g>
		<g>
			<path class="st217" d="M57,103.4c-6.3,5.7-15.6,17-25.2,12.3c0,0-0.1-0.1-0.1-0.1c-1.5-0.5-2.8-1.4-3.5-2.9c0,0,0-0.1,0-0.1
				c-2.3-3.8,0-8.3,2.5-11.7c4.4-6.1,10.1-11,15.6-16c4.2-3.8,9.1-9,14.9-9.9c4.7-0.7,9,1.5,10.7,5.9c0,0,0,0.1,0,0.1
				C74.9,89.6,62,98.8,57,103.4z M41.3,110.4c0.7-2.5-0.6-5.2-2.8-6.4c-2.1-1.1-4.4-0.6-6.4,0.6c0,0-0.1,0-0.1,0
				c-0.8,1.3-1.5,2.7-1.6,4.2c1.1-3.2,5.6-4.3,8.3-2.1c2.6,2.2,0.9,5.7-1.8,6.7c0,0-0.1,0.1-0.1,0.1c0,0-0.1,0-0.1,0
				c-0.4,0.1-0.9,0.2-1.4,0.2c-0.1,0-0.1-0.1-0.1-0.1c-2.7-0.1-4.4-1.5-5-3.6c-0.1-0.1-0.1-0.1-0.1-0.2c0,0,0-0.1,0-0.1
				c-0.4-1.7,0-3.8,1.2-5.8c4.6-7.5,12.1-15.1,19.5-20c-0.2-0.6-0.4-1.1-0.5-1.7c-2.4,2-4.5,3.9-6.1,5.4c-6,5.5-19.5,15.9-15.6,25.1
				C31.9,116.8,39.8,115.5,41.3,110.4z M57.3,89.7c1.4-1.1,2.8-2.2,4.2-3.2c0.1-0.1,0.3-0.1,0.4,0c0,0,0.1,0,0.1,0
				c0.9,0.5,1.9,1.3,3,1c0.9-0.2,1.4-1.1,1.5-2c0.1-0.8-0.2-1.6-0.6-2.2c-0.2-0.4-1.5-1.9-2.2-1.6c0,0-0.1,0-0.1,0c0,0,0,0-0.1,0.1
				c-2.5,2.1-4.9,4.4-7.6,6.4c-0.1,0.2-0.3,0.4-0.6,0.3c-1.7-0.7-3.1-2.2-4-3.9c-4.8,3.6-8.9,7.7-12.8,12.3c-1.9,2.2-4.1,4.5-5.8,7
				c4.5-3,11,1,9.8,6.7c-0.1,0.6-0.4,1.2-0.7,1.7c7.2-5,12.8-11.3,19.1-17.4c-1.6-1-3-2.5-3.7-4.3C57,90.2,57,89.9,57.3,89.7z
				 M37,106.6c-3-1.2-5.1,0.7-6.2,3.3c0,0.1-0.1,0.1-0.2,0.1c0.1,0.4,0.3,0.8,0.5,1.2c1.3,2.1,3.4,2.1,5.5,1.9
				C39.2,111.7,40.6,108.1,37,106.6z M63.5,95.9c-0.7-0.2-1.3-0.5-1.9-0.8c-5.9,6.6-12.7,14.5-20.9,18.3c-1.2,1.2-2.9,2-4.6,2.4
				c8.1,0,15.2-8.5,20.7-13.6C59.1,100.1,61.4,98.1,63.5,95.9z M71,81c-4.5-9.4-13.3-4.6-20.1,0.9c1.1,2.5,2.4,4.3,4.7,5.8
				c2.2-2.4,4.8-4.4,7.3-6.4c0.1-0.1,0.2-0.1,0.3-0.1c0,0,0,0,0,0c0.8-0.7,2,0.2,2.6,0.8c1,0.9,1.6,2.3,1.5,3.7
				c-0.3,3.2-3.6,3.5-5.6,1.6c-1,1.2-2.4,2.2-3.7,3c1.5,2.3,3.3,4,6,4.8c0.1,0,0.2,0.1,0.2,0.1c0.6-0.6,1.2-1.2,1.8-1.9
				C69.6,89.6,71,85.9,71,81z"/>
			<path class="st217" d="M61.8,76.6c-1.2,0-2.3,0.6-3.1,1.4c-0.2,0.2,0.1,0.5,0.3,0.4c0.9-0.7,1.8-1,2.9-1.2
				C62.1,77.1,62.1,76.6,61.8,76.6z"/>
			<path class="st217" d="M63.5,77.2c-1,0-2.1,0.5-2.9,1c-0.2,0.1-0.1,0.5,0.2,0.4c0.5-0.2,0.9-0.4,1.4-0.5c0.5-0.1,1-0.2,1.4-0.4
				C63.8,77.6,63.8,77.2,63.5,77.2z"/>
		</g>
		<g>
			<path class="st216" d="M58.6,153.1c1.9,2,0.4,5.1-0.6,7.2c-1.1,2.1-2.4,4.8-4.5,6.3c0.1,0.1,0.2,0.4,0,0.5
				c-1.9,2.2-5,2.9-7.8,3.4c-0.2,0-0.3,0-0.4-0.1c0,0,0,0,0,0c-2.7-0.1-5.5-0.7-8.1-1.5c-2-0.7-4.5-1.4-6.1-3c0,0-0.1,0-0.1,0
				c-0.2,0-0.3-0.1-0.3-0.2c-0.1,0-0.2-0.1-0.2-0.2c-1-2.4-2.3-4.6-3.6-6.8c0,0,0,0,0,0c-0.2,0-0.3-0.1-0.3-0.3
				c-0.7-0.4-1.1-1.1-1.3-1.9c0-0.2,0.2-0.4,0.4-0.4c0.6,0.1,1.2,0.1,1.8,0.2c-0.1-0.6,0.1-1.2,0.4-1.8c0.1-0.2,0.4-0.2,0.5-0.1
				c0.6,0.4,1.2,0.7,1.7,1.2c0.1-0.8,0.4-1.6,1.2-1.9c0.5-0.2,1-0.1,1.4,0.1c0.5-1.2,2.3-1.4,3-0.2c0.3-0.5,0.6-1.1,0.8-1.7
				c0.1-0.2,0.3-0.3,0.5-0.2c0.3,0.2,0.6,0.3,1,0.5c0.2-0.5,0.4-1.1,0.7-1.6c0.1-0.2,0.3-0.2,0.5-0.1c0.6,0.2,1.1,0.4,1.6,0.7
				c0.2-0.8,0.5-1.5,1.3-1.8c0.3-0.1,0.6-0.1,0.9-0.1c0.6,0,0.3,0.3,0.6-0.2c0.3-0.4,0.3-0.8,0.7-1.2c0.3-0.2,0.7-0.4,1.1-0.4
				c0.6-0.1,1.1,0.1,1.5,0.5c0.2-0.7,0.5-1.4,0.9-2.1c0.1-0.2,0.4-0.2,0.6-0.1c0.3,0.2,0.6,0.3,0.9,0.3c0.1-0.6,0.2-1.2,0.5-1.7
				c0.1-0.2,0.3-0.3,0.6-0.3c0.6,0.2,1,0.4,1.5,0.8c0.3-0.6,0.6-1.2,1.1-1.7c0.2-0.2,0.6-0.3,0.8,0.1c0.1,0.4,0.2,0.8,0.4,1.1
				c0.1,0.4,0.3,0.7,0.3,1.1c0,0.3-0.5,0.7-0.7,0.3c-0.3-0.4-0.4-0.9-0.6-1.4c-0.2,0.3-0.4,0.6-0.6,1c0,0.1-0.1,0.2-0.2,0.2
				c0,0.4-0.5,0.7-0.8,0.3c-0.3-0.4-0.6-0.6-1.1-0.8c-0.2,0.5-0.3,1-0.4,1.5c0,0.2-0.2,0.4-0.5,0.4c-0.5,0-0.9-0.1-1.3-0.3
				c-0.4,0.6-0.7,1.2-1,1.9c0,0,0,0,0,0c0,0.3-0.4,0.5-0.7,0.2c-0.3-0.5-0.6-0.6-1.2-0.2c-0.6-0.1-0.9,0.1-0.9,0.6
				c-0.1,0.2-0.1,0.5-0.2,0.7c-0.1,0.2-0.2,0.3-0.4,0.5c-0.3,0.2-0.4,0-0.7,0c-0.2,0-1.5,0.4-1.7,0.6c-0.2,0.2-0.2,0.6-0.3,0.8
				c-0.1,0.2-0.3,0.2-0.5,0.2c-0.1,0-0.2,0-0.3,0c-0.4-0.2-0.9-0.4-1.3-0.6c-0.3,0.5-0.5,1-0.6,1.5c-0.1,0.2-0.3,0.3-0.5,0.2
				c-0.3-0.2-0.7-0.3-1-0.5c-0.3,0.6-0.6,1.1-1,1.5c-0.1,0.1-0.2,0.1-0.3,0.1c-0.2,0.2-0.5,0.2-0.7-0.1c-0.6-1-1.8-0.7-1.9,0.4
				c0,0.4-0.6,0.4-0.7,0.1c-0.8-1.5-1.9,0.7-2,1.3c0,0.1-0.1,0.2-0.2,0.2c-0.1,0.1-0.3,0.2-0.5,0.1c-0.6-0.3-1.1-0.7-1.7-1.1
				c-0.2,0.4-0.2,0.9-0.1,1.4c0.1,0.2-0.2,0.4-0.4,0.4l-1.8-0.2c0.2,0.5,0.5,0.9,0.9,1.2c9.8-3.1,19-6.7,27.7-12.3
				c0.3-0.2,0.6,0,0.8,0.2c0.1,0,0.2,0,0.2,0.1c0.5,1.1,0.8,2.3,1.3,3.5c0.5,1.1,1.1,2.2,1.6,3.4C58.6,153,58.7,153.1,58.6,153.1z
				 M44.6,169.5c-3.5-3-7.9-4.1-12.5-3.7C35.5,168.2,40.4,169,44.6,169.5z M58.3,153.8c-3.1,3.7-4.5,7.5-4.9,12.2
				c1.2-1.3,2.1-2.9,2.9-4.4C57.4,159.6,59.6,156.2,58.3,153.8z M55.3,146.7c-8.4,5.4-17.8,9.9-27.7,11.8c0.4,0.5,0.8,1,1.2,1.5
				c0,0,0,0,0,0c1.9,0.2,3.6,0.1,5.5-0.2c0.3,0,0.4,0.2,0.4,0.4c0,0,0,0,0,0.1c0.1,0.6,0.2,1.2,0.5,1.8c0.1,0.2-0.2,0.3-0.3,0.2
				c-0.4-0.5-0.7-1.1-0.8-1.7c-1.6,0.4-3.4,0.4-5,0c0.4,0.6,0.8,1.3,1.1,1.9c0.7,0,1.5,0,2.2,0c0.7-0.1,1.5-0.3,2.2-0.3
				c0.3,0,0.5,0.4,0.2,0.5c-1.3,0.5-2.9,0.5-4.3,0.3c0.3,0.7,0.6,1.4,0.8,2c0,0.1,0,0.1,0,0.2c5.3-1.2,10.8,0.6,14.6,4.4
				c2.4-0.6,4.6-1.3,6.6-2.9c-0.7-4.8,1.5-10.3,5-13.5c0,0,0.1,0,0.1-0.1c-0.4-0.5-0.7-1.1-1-1.7c-0.8,1.1-1.8,1.9-3.1,2.4
				c-0.2,0.1-0.3,0-0.4-0.1c-0.1,0.1-0.3,0.1-0.5-0.1c-0.5-0.4-0.8-1-1.1-1.6c-0.2-0.1-0.3-0.5-0.1-0.6c1.5-1,2.8-1.8,4.1-3
				C55.5,147.8,55.3,147.2,55.3,146.7z M52.3,151.9c0.3,0.4,0.6,0.8,1,1.1c0,0,0,0,0.1,0c1.2-0.4,2.3-1.1,3.2-2.1
				c-0.3-0.6-0.6-1.3-0.8-2C54.9,150.2,53.6,151.3,52.3,151.9z"/>
			<path class="st216" d="M54.1,154.2c-0.4,0.1-0.8,0.4-1.2,0.4c-0.4,0.1-0.8,0.1-1.3,0.1c-0.2,0-0.3,0.3-0.1,0.4
				c0.9,0.2,2.1,0.2,2.8-0.5C54.6,154.5,54.3,154.2,54.1,154.2z"/>
			<path class="st216" d="M54.4,155c-0.6,0.5-1.2,0.8-2,1c-0.2,0-0.2,0.4,0,0.4c0.9,0,1.8-0.3,2.4-1C55,155.2,54.6,154.8,54.4,155z"
				/>
		</g>
	</g>
	<g>
		<path class="st216" d="M110.9,49.4c-6.3,5.7-15.6,17-25.2,12.3c0,0-0.1-0.1-0.1-0.1c-1.5-0.5-2.8-1.4-3.5-2.9c0,0,0-0.1,0-0.1
			c-2.3-3.8,0-8.3,2.5-11.7c4.4-6.1,10.1-11,15.6-16c4.2-3.8,9.1-9,14.9-9.9c4.7-0.7,9,1.5,10.7,5.9c0,0,0,0.1,0,0.1
			C128.8,35.6,116,44.8,110.9,49.4z M95.3,56.5c0.7-2.5-0.6-5.2-2.8-6.4c-2.1-1.1-4.4-0.6-6.4,0.6c0,0-0.1,0-0.1,0
			c-0.8,1.3-1.5,2.7-1.6,4.2c1.1-3.2,5.6-4.3,8.3-2.1c2.6,2.2,0.9,5.7-1.8,6.7c0,0-0.1,0.1-0.1,0.1c0,0-0.1,0-0.1,0
			c-0.4,0.1-0.9,0.2-1.4,0.2c-0.1,0-0.1-0.1-0.1-0.1c-2.7-0.1-4.4-1.5-5-3.6c-0.1-0.1-0.1-0.1-0.1-0.2c0,0,0-0.1,0-0.1
			c-0.4-1.7,0-3.8,1.2-5.8c4.6-7.5,12.1-15.1,19.5-20c-0.2-0.6-0.4-1.1-0.5-1.7c-2.4,2-4.5,3.9-6.1,5.4c-6,5.5-19.5,15.9-15.6,25.1
			C85.9,62.8,93.8,61.5,95.3,56.5z M111.2,35.7c1.4-1.1,2.8-2.2,4.2-3.2c0.1-0.1,0.3-0.1,0.4,0c0,0,0.1,0,0.1,0c0.9,0.5,1.9,1.3,3,1
			c0.9-0.2,1.4-1.1,1.5-2c0.1-0.8-0.2-1.6-0.6-2.2c-0.2-0.4-1.5-1.9-2.2-1.6c0,0-0.1,0-0.1,0c0,0,0,0-0.1,0.1
			c-2.5,2.1-4.9,4.4-7.6,6.4c-0.1,0.2-0.3,0.4-0.6,0.3c-1.7-0.7-3.1-2.2-4-3.9c-4.8,3.6-8.9,7.7-12.8,12.3c-1.9,2.2-4.1,4.5-5.8,7
			c4.5-3,11,1,9.8,6.7c-0.1,0.6-0.4,1.2-0.7,1.7c7.2-5,12.8-11.3,19.1-17.4c-1.6-1-3-2.5-3.7-4.3C111,36.3,110.9,35.9,111.2,35.7z
			 M91,52.6c-3-1.2-5.1,0.7-6.2,3.3c0,0.1-0.1,0.1-0.2,0.1c0.1,0.4,0.3,0.8,0.5,1.2c1.3,2.1,3.4,2.1,5.5,1.9
			C93.2,57.7,94.6,54.1,91,52.6z M117.5,41.9c-0.7-0.2-1.3-0.5-1.9-0.8c-5.9,6.6-12.7,14.5-20.9,18.3c-1.2,1.2-2.9,2-4.6,2.4
			c8.1,0,15.2-8.5,20.7-13.6C113.1,46.2,115.3,44.1,117.5,41.9z M125,27c-4.5-9.4-13.3-4.6-20.1,0.9c1.1,2.5,2.4,4.3,4.7,5.8
			c2.2-2.4,4.8-4.4,7.3-6.4c0.1-0.1,0.2-0.1,0.3-0.1c0,0,0,0,0,0c0.8-0.7,2,0.2,2.6,0.8c1,0.9,1.6,2.3,1.5,3.7
			c-0.3,3.2-3.6,3.5-5.6,1.6c-1,1.2-2.4,2.2-3.7,3c1.5,2.3,3.3,4,6,4.8c0.1,0,0.2,0.1,0.2,0.1c0.6-0.6,1.2-1.2,1.8-1.9
			C123.6,35.6,125,32,125,27z"/>
		<path class="st216" d="M87.4,60.1c-1.1-0.1-2.1-0.5-3-1.1c-0.2-0.1-0.5,0.2-0.3,0.3c0.9,0.8,2,1.2,3.3,1.2
			C87.7,60.5,87.6,60.1,87.4,60.1z"/>
	</g>
	<g>
		<path class="st216" d="M173.4,38.4c1.9,2,0.4,5.1-0.6,7.2c-1.1,2.1-2.4,4.8-4.5,6.3c0.1,0.1,0.2,0.4,0,0.5c-1.9,2.2-5,2.9-7.8,3.4
			c-0.2,0-0.3,0-0.4-0.1c0,0,0,0,0,0c-2.7-0.1-5.5-0.7-8.1-1.5c-2-0.7-4.5-1.4-6.1-3c0,0-0.1,0-0.1,0c-0.2,0-0.3-0.1-0.3-0.2
			c-0.1,0-0.2-0.1-0.2-0.2c-1-2.4-2.3-4.6-3.6-6.8c0,0,0,0,0,0c-0.2,0-0.3-0.1-0.3-0.3c-0.7-0.4-1.1-1.1-1.3-1.9
			c0-0.2,0.2-0.4,0.4-0.4c0.6,0.1,1.2,0.1,1.8,0.2c-0.1-0.6,0.1-1.2,0.4-1.8c0.1-0.2,0.4-0.2,0.5-0.1c0.6,0.4,1.2,0.7,1.7,1.2
			c0.1-0.8,0.4-1.6,1.2-1.9c0.5-0.2,1-0.1,1.4,0.1c0.5-1.2,2.3-1.4,3-0.2c0.3-0.5,0.6-1.1,0.8-1.7c0.1-0.2,0.3-0.3,0.5-0.2
			c0.3,0.2,0.6,0.3,1,0.5c0.2-0.5,0.4-1.1,0.7-1.6c0.1-0.2,0.3-0.2,0.5-0.1c0.6,0.2,1.1,0.4,1.6,0.7c0.2-0.8,0.5-1.5,1.3-1.8
			c0.3-0.1,0.6-0.1,0.9-0.1c0.6,0,0.3,0.3,0.6-0.2c0.3-0.4,0.3-0.8,0.7-1.2c0.3-0.2,0.7-0.4,1.1-0.4c0.6-0.1,1.1,0.1,1.5,0.5
			c0.2-0.7,0.5-1.4,0.9-2.1c0.1-0.2,0.4-0.2,0.6-0.1c0.3,0.2,0.6,0.3,0.9,0.3c0.1-0.6,0.2-1.2,0.5-1.7c0.1-0.2,0.3-0.3,0.6-0.3
			c0.6,0.2,1,0.4,1.5,0.8c0.3-0.6,0.6-1.2,1.1-1.7c0.2-0.2,0.6-0.3,0.8,0.1c0.1,0.4,0.2,0.8,0.4,1.1c0.1,0.4,0.3,0.7,0.3,1.1
			c0,0.3-0.5,0.7-0.7,0.3c-0.3-0.4-0.4-0.9-0.6-1.4c-0.2,0.3-0.4,0.6-0.6,1c0,0.1-0.1,0.2-0.2,0.2c0,0.4-0.5,0.7-0.8,0.3
			c-0.3-0.4-0.6-0.6-1.1-0.8c-0.2,0.5-0.3,1-0.4,1.5c0,0.2-0.2,0.4-0.5,0.4c-0.5,0-0.9-0.1-1.3-0.3c-0.4,0.6-0.7,1.2-1,1.9
			c0,0,0,0,0,0c0,0.3-0.4,0.5-0.7,0.2c-0.3-0.5-0.6-0.6-1.2-0.2c-0.6-0.1-0.9,0.1-0.9,0.6c-0.1,0.2-0.1,0.5-0.2,0.7
			c-0.1,0.2-0.2,0.3-0.4,0.5c-0.3,0.2-0.4,0-0.7,0c-0.2,0-1.5,0.4-1.7,0.6c-0.2,0.2-0.2,0.6-0.3,0.8c-0.1,0.2-0.3,0.2-0.5,0.2
			c-0.1,0-0.2,0-0.3,0c-0.4-0.2-0.9-0.4-1.3-0.6c-0.3,0.5-0.5,1-0.6,1.5c-0.1,0.2-0.3,0.3-0.5,0.2c-0.3-0.2-0.7-0.3-1-0.5
			c-0.3,0.6-0.6,1.1-1,1.5c-0.1,0.1-0.2,0.1-0.3,0.1c-0.2,0.2-0.5,0.2-0.7-0.1c-0.6-1-1.8-0.7-1.9,0.4c0,0.4-0.6,0.4-0.7,0.1
			c-0.8-1.5-1.9,0.7-2,1.3c0,0.1-0.1,0.2-0.2,0.2c-0.1,0.1-0.3,0.2-0.5,0.1c-0.6-0.3-1.1-0.7-1.7-1.1c-0.2,0.4-0.2,0.9-0.1,1.4
			c0.1,0.2-0.2,0.4-0.4,0.4l-1.8-0.2c0.2,0.5,0.5,0.9,0.9,1.2c9.8-3.1,19-6.7,27.7-12.3c0.3-0.2,0.6,0,0.8,0.2c0.1,0,0.2,0,0.2,0.1
			c0.5,1.1,0.8,2.3,1.3,3.5c0.5,1.1,1.1,2.2,1.6,3.4C173.4,38.3,173.4,38.3,173.4,38.4z M159.3,54.8c-3.5-3-7.9-4.1-12.5-3.7
			C150.2,53.5,155.1,54.3,159.3,54.8z M173,39.1c-3.1,3.7-4.5,7.5-4.9,12.2c1.2-1.3,2.1-2.9,2.9-4.4C172.2,44.9,174.3,41.5,173,39.1
			z M170,32c-8.4,5.4-17.8,9.9-27.7,11.8c0.4,0.5,0.8,1,1.2,1.5c0,0,0,0,0,0c1.9,0.2,3.6,0.1,5.5-0.2c0.3,0,0.4,0.2,0.4,0.4
			c0,0,0,0,0,0.1c0.1,0.6,0.2,1.2,0.5,1.8c0.1,0.2-0.1,0.3-0.3,0.2c-0.4-0.5-0.7-1.1-0.8-1.7c-1.6,0.4-3.4,0.4-5,0
			c0.4,0.6,0.8,1.3,1.1,1.9c0.7,0,1.5,0,2.2,0c0.7-0.1,1.5-0.3,2.2-0.3c0.3,0,0.5,0.4,0.2,0.5c-1.3,0.5-2.9,0.5-4.3,0.3
			c0.3,0.7,0.6,1.4,0.8,2c0,0.1,0,0.1,0,0.2c5.3-1.2,10.8,0.6,14.6,4.4c2.4-0.6,4.6-1.3,6.6-2.9c-0.7-4.8,1.5-10.3,5-13.5
			c0,0,0.1,0,0.1-0.1c-0.4-0.5-0.7-1.1-1-1.7c-0.8,1.1-1.8,1.9-3.1,2.4c-0.2,0.1-0.3,0-0.4-0.1c-0.1,0.1-0.3,0.1-0.5-0.1
			c-0.5-0.4-0.8-1-1.1-1.6c-0.2-0.1-0.3-0.5-0.1-0.6c1.5-1,2.8-1.8,4.1-3C170.2,33.1,170.1,32.5,170,32z M167,37.2
			c0.3,0.4,0.6,0.8,1,1.1c0,0,0,0,0.1,0c1.2-0.4,2.3-1.1,3.2-2.1c-0.3-0.6-0.6-1.3-0.8-2C169.6,35.4,168.3,36.6,167,37.2z"/>
		<path class="st216" d="M153.3,49.7c-1.2-0.4-2.5-0.6-3.8-0.4c-0.2,0-0.2,0.4,0,0.4c1.3,0,2.4,0.2,3.6,0.5
			C153.5,50.2,153.6,49.8,153.3,49.7z"/>
		<path class="st216" d="M154.1,49c-0.7-0.3-1.4-0.6-2.1-0.8c-0.3-0.1-0.4,0.3-0.1,0.4c0.7,0.3,1.4,0.7,2.1,0.9
			C154.2,49.6,154.4,49.2,154.1,49z"/>
	</g>
	<g>
		<g>
			<path class="st216" d="M58.6,38.4c1.9,2,0.4,5.1-0.6,7.2c-1.1,2.1-2.4,4.8-4.5,6.3c0.1,0.1,0.2,0.4,0,0.5c-1.9,2.2-5,2.9-7.8,3.4
				c-0.2,0-0.3,0-0.4-0.1c0,0,0,0,0,0c-2.7-0.1-5.5-0.7-8.1-1.5c-2-0.7-4.5-1.4-6.1-3c0,0-0.1,0-0.1,0c-0.2,0-0.3-0.1-0.3-0.2
				c-0.1,0-0.2-0.1-0.2-0.2c-1-2.4-2.3-4.6-3.6-6.8c0,0,0,0,0,0c-0.2,0-0.3-0.1-0.3-0.3c-0.7-0.4-1.1-1.1-1.3-1.9
				c0-0.2,0.2-0.4,0.4-0.4c0.6,0.1,1.2,0.1,1.8,0.2c-0.1-0.6,0.1-1.2,0.4-1.8c0.1-0.2,0.4-0.2,0.5-0.1c0.6,0.4,1.2,0.7,1.7,1.2
				c0.1-0.8,0.4-1.6,1.2-1.9c0.5-0.2,1-0.1,1.4,0.1c0.5-1.2,2.3-1.4,3-0.2c0.3-0.5,0.6-1.1,0.8-1.7c0.1-0.2,0.3-0.3,0.5-0.2
				c0.3,0.2,0.6,0.3,1,0.5c0.2-0.5,0.4-1.1,0.7-1.6c0.1-0.2,0.3-0.2,0.5-0.1c0.6,0.2,1.1,0.4,1.6,0.7c0.2-0.8,0.5-1.5,1.3-1.8
				c0.3-0.1,0.6-0.1,0.9-0.1c0.6,0,0.3,0.3,0.6-0.2c0.3-0.4,0.3-0.8,0.7-1.2c0.3-0.2,0.7-0.4,1.1-0.4c0.6-0.1,1.1,0.1,1.5,0.5
				c0.2-0.7,0.5-1.4,0.9-2.1c0.1-0.2,0.4-0.2,0.6-0.1c0.3,0.2,0.6,0.3,0.9,0.3c0.1-0.6,0.2-1.2,0.5-1.7c0.1-0.2,0.3-0.3,0.6-0.3
				c0.6,0.2,1,0.4,1.5,0.8c0.3-0.6,0.6-1.2,1.1-1.7c0.2-0.2,0.6-0.3,0.8,0.1c0.1,0.4,0.2,0.8,0.4,1.1c0.1,0.4,0.3,0.7,0.3,1.1
				c0,0.3-0.5,0.7-0.7,0.3c-0.3-0.4-0.4-0.9-0.6-1.4c-0.2,0.3-0.4,0.6-0.6,1c0,0.1-0.1,0.2-0.2,0.2c0,0.4-0.5,0.7-0.8,0.3
				c-0.3-0.4-0.6-0.6-1.1-0.8c-0.2,0.5-0.3,1-0.4,1.5c0,0.2-0.2,0.4-0.5,0.4c-0.5,0-0.9-0.1-1.3-0.3c-0.4,0.6-0.7,1.2-1,1.9
				c0,0,0,0,0,0c0,0.3-0.4,0.5-0.7,0.2c-0.3-0.5-0.6-0.6-1.2-0.2c-0.6-0.1-0.9,0.1-0.9,0.6c-0.1,0.2-0.1,0.5-0.2,0.7
				c-0.1,0.2-0.2,0.3-0.4,0.5c-0.3,0.2-0.4,0-0.7,0c-0.2,0-1.5,0.4-1.7,0.6c-0.2,0.2-0.2,0.6-0.3,0.8c-0.1,0.2-0.3,0.2-0.5,0.2
				c-0.1,0-0.2,0-0.3,0c-0.4-0.2-0.9-0.4-1.3-0.6c-0.3,0.5-0.5,1-0.6,1.5c-0.1,0.2-0.3,0.3-0.5,0.2c-0.3-0.2-0.7-0.3-1-0.5
				c-0.3,0.6-0.6,1.1-1,1.5c-0.1,0.1-0.2,0.1-0.3,0.1c-0.2,0.2-0.5,0.2-0.7-0.1c-0.6-1-1.8-0.7-1.9,0.4c0,0.4-0.6,0.4-0.7,0.1
				c-0.8-1.5-1.9,0.7-2,1.3c0,0.1-0.1,0.2-0.2,0.2c-0.1,0.1-0.3,0.2-0.5,0.1c-0.6-0.3-1.1-0.7-1.7-1.1c-0.2,0.4-0.2,0.9-0.1,1.4
				c0.1,0.2-0.2,0.4-0.4,0.4l-1.8-0.2c0.2,0.5,0.5,0.9,0.9,1.2c9.8-3.1,19-6.7,27.7-12.3c0.3-0.2,0.6,0,0.8,0.2c0.1,0,0.2,0,0.2,0.1
				c0.5,1.1,0.8,2.3,1.3,3.5c0.5,1.1,1.1,2.2,1.6,3.4C58.6,38.3,58.7,38.3,58.6,38.4z M44.6,54.8c-3.5-3-7.9-4.1-12.5-3.7
				C35.5,53.5,40.4,54.3,44.6,54.8z M58.3,39.1c-3.1,3.7-4.5,7.5-4.9,12.2c1.2-1.3,2.1-2.9,2.9-4.4C57.4,44.9,59.6,41.5,58.3,39.1z
				 M55.3,32c-8.4,5.4-17.8,9.9-27.7,11.8c0.4,0.5,0.8,1,1.2,1.5c0,0,0,0,0,0c1.9,0.2,3.6,0.1,5.5-0.2c0.3,0,0.4,0.2,0.4,0.4
				c0,0,0,0,0,0.1c0.1,0.6,0.2,1.2,0.5,1.8c0.1,0.2-0.2,0.3-0.3,0.2c-0.4-0.5-0.7-1.1-0.8-1.7c-1.6,0.4-3.4,0.4-5,0
				c0.4,0.6,0.8,1.3,1.1,1.9c0.7,0,1.5,0,2.2,0c0.7-0.1,1.5-0.3,2.2-0.3c0.3,0,0.5,0.4,0.2,0.5c-1.3,0.5-2.9,0.5-4.3,0.3
				c0.3,0.7,0.6,1.4,0.8,2c0,0.1,0,0.1,0,0.2c5.3-1.2,10.8,0.6,14.6,4.4c2.4-0.6,4.6-1.3,6.6-2.9c-0.7-4.8,1.5-10.3,5-13.5
				c0,0,0.1,0,0.1-0.1c-0.4-0.5-0.7-1.1-1-1.7c-0.8,1.1-1.8,1.9-3.1,2.4c-0.2,0.1-0.3,0-0.4-0.1c-0.1,0.1-0.3,0.1-0.5-0.1
				c-0.5-0.4-0.8-1-1.1-1.6c-0.2-0.1-0.3-0.5-0.1-0.6c1.5-1,2.8-1.8,4.1-3C55.5,33.1,55.3,32.5,55.3,32z M52.3,37.2
				c0.3,0.4,0.6,0.8,1,1.1c0,0,0,0,0.1,0c1.2-0.4,2.3-1.1,3.2-2.1c-0.3-0.6-0.6-1.3-0.8-2C54.9,35.4,53.6,36.6,52.3,37.2z"/>
		</g>
	</g>
</g>
</svg>
