<?xml version="1.0" encoding="utf-8"?>
<!-- Generator: Adobe Illustrator 22.0.1, SVG Export Plug-In . SVG Version: 6.00 Build 0)  -->
<svg version="1.1" id="Layer_1" xmlns="http://www.w3.org/2000/svg" xmlns:xlink="http://www.w3.org/1999/xlink" x="0px" y="0px"
	 viewBox="0 0 200 200" style="enable-background:new 0 0 200 200;" xml:space="preserve">
<style type="text/css">
	.st0{fill:#231F20;}
	.st1{fill:#CE4291;}
	.st2{fill:#9F306B;}
	.st3{opacity:0.4;fill:#FFFFFF;}
	.st4{opacity:0.4;fill:#CE4291;}
	.st5{fill:#FFFFFF;}
	.st6{fill:#EA5224;}
	.st7{fill:#FCB548;}
	.st8{fill:#FAC0BC;}
	.st9{fill:#DAEEF6;}
	.st10{fill:#1F1D57;}
	.st11{fill:#3DBFB8;}
	.st12{fill:#F69794;}
	.st13{fill:#333333;}
	.st14{fill:#06A0A3;}
	.st15{fill:#E13269;}
	.st16{fill:#F05C7E;}
	.st17{opacity:0.2;fill:#F69794;}
	.st18{fill:#28BBAB;}
	.st19{fill:#1C4C7A;}
	.st20{fill:#F15822;}
	.st21{fill:#1A305B;}
	.st22{fill:#224988;}
	.st23{fill:#3861AD;}
	.st24{fill:#CAEAEE;}
	.st25{fill:#FBF9EC;}
	.st26{opacity:0.8;fill:#F1F2F2;}
	.st27{fill:#AE6161;}
	.st28{fill:#FABAAD;}
	.st29{fill:#F79B81;}
	.st30{fill:#78413B;}
	.st31{opacity:0.66;}
	.st32{fill:#F69082;}
	.st33{opacity:0.43;}
	.st34{fill:#F47D72;}
	.st35{fill:#7A3D1D;}
	.st36{fill:#F47C68;}
	.st37{fill:#6860A9;}
	.st38{fill:#514099;}
	.st39{opacity:0.25;}
	.st40{fill:#3E4058;}
	.st41{fill:#A6D8BB;}
	.st42{opacity:0.18;}
	.st43{fill:#8BCDCB;}
	.st44{fill:#F16460;}
	.st45{fill:#FEDB45;}
	.st46{opacity:0.59;}
	.st47{fill:#5E5E5E;}
	.st48{fill:#BCBCBB;}
	.st49{fill:#CFE9D9;}
	.st50{fill:#312D51;}
	.st51{opacity:0.87;}
	.st52{fill:#CA605A;}
	.st53{fill:#48292B;}
	.st54{fill:#21213A;}
	.st55{fill:#89CDAA;}
	.st56{fill:#B2DECE;}
	.st57{fill:url(#SVGID_1_);}
	.st58{fill:url(#SVGID_2_);}
	.st59{fill:url(#SVGID_3_);}
	.st60{fill:url(#SVGID_4_);}
	.st61{opacity:0.6;fill:#FFFFFF;}
	.st62{opacity:0.6;}
	.st63{fill:url(#SVGID_5_);}
	.st64{fill:url(#SVGID_6_);}
	.st65{fill:url(#SVGID_7_);}
	.st66{fill:url(#SVGID_8_);}
	.st67{fill:#DCDEE0;}
	.st68{fill:#ACAFB3;}
	.st69{fill:#F04A37;}
	.st70{fill:#4E4E4E;}
	.st71{fill:#939393;}
	.st72{fill:#D63F32;}
	.st73{fill:#D0CFAE;}
	.st74{fill:#E52627;}
	.st75{fill:#EE3C4D;}
	.st76{fill:url(#);}
</style>
<g>
	<g>
		<path d="M90.1,98.1c0.2-0.2,0-0.5-0.3-0.4c-0.7,0.2-1,1-0.9,1.7c0.2,0.7,0.8,1.1,1.5,1.1c0.1,0,0.2-0.2,0-0.2
			c-0.5-0.1-0.9-0.5-1-1C89.5,98.7,89.8,98.4,90.1,98.1z"/>
		<path d="M127.9,87.4c5.1,20-25.3,31.8-35.2,14.2c-2,1-5,0.8-5.7-1.7c-0.5-2,0.6-4.3,2.7-4.4c-2.3-17.8,23.1-28.1,34.3-14.4
			c0.1,0.1,0.1,0.1,0.1,0.2c1.9-1.1,4.6-1.2,5.9,1C131.1,84.2,130.1,86.8,127.9,87.4z M128.9,82.3c-1.3-1.5-3.3-0.8-4.8-0.3
			c-0.1,0-0.2,0-0.3-0.1c-0.2,0.1-0.5,0.1-0.6-0.1c-4.5-5.5-10.5-7-16-5.9c2.2,0.4,4.5,1.3,5.4,3.3c0.2,0.5-0.5,0.9-0.7,0.4
			c-1.1-2.2-3.9-2.7-6.1-3.4c-0.7,0.2-1.3,0.4-2,0.7c1.3,0.5,2.5,1.6,3.1,2.9c0.2,0.5-0.4,0.9-0.7,0.4c-0.9-1.4-2-2.3-3.5-2.8
			c-0.4,0.2-0.7,0.4-1,0.5c-0.7,1.2-0.9,2.4-0.7,3.8c0.1,0.5-0.7,0.8-0.8,0.2c-0.3-1.1-0.1-2.4,0.4-3.4c-5.6,3.5-9.7,9.7-9.8,16.9
			c0,0.1-0.1,0.2-0.1,0.3c0,0.1-0.1,0.3-0.3,0.3c-1.8,0.3-2.7,2.2-2.1,3.8c0.7,1.8,3.1,1.4,4.5,0.8c0.1-0.1,0.2,0,0.3,0
			c0.1,0,0.2,0,0.3,0.1c5.3,7.7,13.5,9.7,22.2,6.7c8.7-3,13.7-11,11.6-20.1c-0.1-0.3,0.1-0.5,0.3-0.6c0-0.2,0.1-0.4,0.3-0.4
			C129.3,86,130.3,83.9,128.9,82.3z"/>
		<path d="M125.7,82.6c-0.2,0.1,0,0.4,0.2,0.4c1-0.3,1.8,0.5,1.6,1.5c-0.1,0.5,0.7,0.7,0.8,0.2C128.7,83.1,127.1,81.9,125.7,82.6z"
			/>
		<path d="M113,95.6c-0.5,0.7-0.6,1.5-1.5,1.7c-1.1,0.2-1.8-0.8-1.3-1.8c0.1-0.3-0.2-0.5-0.4-0.3c-1.1,1-0.2,2.7,1.1,2.9
			c1.2,0.2,3-1,2.7-2.4C113.5,95.5,113.2,95.4,113,95.6z"/>
		<path d="M124.5,92.3c0.9,5.5-3.6,9.6-7.9,12.1c-0.2,0.1,0,0.4,0.1,0.3c5.4-1.1,9.2-7.2,8.4-12.5C125.1,91.7,124.5,91.8,124.5,92.3
			z"/>
		<path d="M103.7,95.3c-1-1.7-3.2-2.5-5-1.7c-1.8,0.8-2.9,3-2.1,4.8c0.1,0.3,0.7,0.3,0.7-0.1c-0.1-1.4,0.3-2.9,1.6-3.6
			c1.5-0.8,3.2-0.1,4.1,1.2C103.2,96.3,104,95.9,103.7,95.3z"/>
		<path d="M123.2,87.9c-1.2-1.5-3.2-2.2-5-1.4c-1.7,0.8-2.8,2.9-2.1,4.7c0.1,0.3,0.6,0.3,0.6-0.1c0-1.4,0.5-3,1.9-3.6
			c1.4-0.6,2.9-0.1,3.9,1.1C122.7,89,123.5,88.3,123.2,87.9z"/>
		<path d="M94.1,86.3c-0.6,0.7-0.9,1.6-1.1,2.5c0,0.2,0.3,0.3,0.4,0.1c0.2-0.9,0.5-1.6,1-2.3C94.6,86.3,94.2,86.1,94.1,86.3z"/>
		<path d="M95.4,86c-0.4,0.4-0.7,1-0.8,1.6c0,0.3,0.3,0.4,0.4,0.1c0.2-0.5,0.5-0.9,0.8-1.3C96,86.1,95.6,85.7,95.4,86z"/>
	</g>
	<g>
		<path d="M133.5,143.5c0.3-0.1,0.2-0.5-0.1-0.5c-0.7-0.1-1.4,0.5-1.5,1.2c-0.2,0.7,0.2,1.4,0.9,1.7c0.1,0.1,0.2-0.1,0.1-0.2
			c-0.4-0.3-0.6-0.9-0.4-1.4C132.7,143.8,133,143.7,133.5,143.5z"/>
		<path d="M172.2,150c-3.9,20.2-36.5,18-37.9-2.2c-2.2,0.1-4.9-1.4-4.4-4c0.4-2,2.4-3.7,4.3-2.8c5.6-17.1,32.9-15.5,37.1,1.6
			c0,0.1,0,0.2,0,0.2c2.2-0.2,4.7,0.9,4.9,3.4C176.5,148.5,174.4,150.4,172.2,150z M175.2,145.8c-0.5-1.9-2.6-2.1-4.2-2.3
			c-0.1,0-0.2-0.1-0.2-0.2c-0.2,0-0.5-0.1-0.5-0.4c-1.7-6.9-6.5-10.8-12-12.2c1.8,1.3,3.5,3.1,3.5,5.3c0,0.5-0.8,0.6-0.8,0.1
			c-0.1-2.5-2.3-4.1-4.1-5.6c-0.7-0.1-1.4-0.2-2.1-0.2c1,1.1,1.6,2.5,1.6,3.9c0,0.5-0.8,0.6-0.8,0.1c-0.2-1.7-0.9-2.9-2-4
			c-0.4,0-0.8,0-1.2,0c-1.1,0.8-1.9,1.8-2.2,3.2c-0.1,0.5-1,0.4-0.8-0.1c0.2-1.1,0.9-2.2,1.8-2.9c-6.5,0.8-12.9,4.7-16.1,11.1
			c-0.1,0.1-0.1,0.2-0.2,0.2c-0.1,0.1-0.2,0.2-0.4,0.1c-1.8-0.5-3.4,0.8-3.6,2.6c-0.2,1.9,2.2,2.6,3.7,2.7c0.1,0,0.2,0.1,0.3,0.2
			c0.1,0,0.2,0.1,0.2,0.3c1.5,9.2,8.1,14.5,17.2,15.5c9.1,1,17.1-4,19-13.2c0.1-0.3,0.3-0.4,0.5-0.4c0.1-0.2,0.2-0.3,0.4-0.3
			C174.1,149.3,175.8,147.9,175.2,145.8z"/>
		<path d="M172.3,144.7c-0.2,0-0.2,0.3,0,0.4c1,0.2,1.4,1.3,0.8,2.1c-0.3,0.4,0.3,0.9,0.6,0.5C174.7,146.5,173.8,144.7,172.3,144.7z
			"/>
		<path d="M155.2,151.1c-0.7,0.4-1.2,1.1-2.1,0.9c-1-0.3-1.2-1.5-0.4-2.1c0.2-0.2,0-0.6-0.3-0.5c-1.4,0.4-1.3,2.3-0.3,3.1
			c1,0.7,3.2,0.4,3.5-1C155.7,151.2,155.5,151,155.2,151.1z"/>
		<path d="M167,153c-1.6,5.4-7.4,7.2-12.3,7.5c-0.2,0-0.2,0.3,0,0.3c5.4,1.3,11.3-2.6,13-7.7C167.8,152.8,167.2,152.5,167,153z"/>
		<path d="M146.9,146.8c-0.1-2-1.8-3.6-3.8-3.7c-1.9-0.1-3.9,1.5-4,3.4c0,0.4,0.5,0.6,0.7,0.2c0.5-1.3,1.5-2.5,3-2.6
			c1.7-0.1,2.9,1.3,3.2,2.8C146.1,147.5,146.9,147.5,146.9,146.8z"/>
		<path d="M167.7,148.4c-0.4-1.9-2-3.4-4-3.4c-1.9,0-3.8,1.4-3.9,3.3c0,0.3,0.4,0.5,0.6,0.2c0.6-1.3,1.7-2.5,3.3-2.5
			c1.5,0,2.7,1.2,3,2.6C166.9,149.2,167.8,149,167.7,148.4z"/>
		<path d="M142.1,134.5c-0.8,0.4-1.5,1-2,1.8c-0.1,0.2,0.1,0.4,0.3,0.2c0.5-0.7,1.2-1.2,1.9-1.7
			C142.5,134.8,142.3,134.4,142.1,134.5z"/>
		<path d="M143.4,134.8c-0.6,0.2-1,0.6-1.4,1.1c-0.2,0.2,0.1,0.5,0.3,0.3c0.4-0.4,0.8-0.6,1.3-0.8
			C143.9,135.2,143.7,134.7,143.4,134.8z"/>
	</g>
	<g>
		<path d="M89,153c-1.1,1.4-2.1,2.9-3,4.4c0.7,1.3,1.2,2.6,1.6,4c0.2,0.6,0.8,1.9,0.1,2.4c-0.7,0.5-1.9-0.3-2.6-0.6
			c-1.1-0.5-2.2-1.1-3.2-1.8c-1.5,2-3.5,3.7-5.6,5c-0.3,0.2-0.7-0.1-0.7-0.4c0.1-2.1-0.1-4.1-0.3-6.2c-1.5,0-3.3-0.7-4.5-1.3
			c-0.4-0.1-0.6-0.7-0.1-0.9c2-1,4-1.9,6-2.9c0.1,0,0.2,0,0.2,0c-0.2-1.9-0.2-3.9-0.3-5.9c0-0.4,0.6-0.7,0.8-0.3
			c1.4,1.6,3,3,4.5,4.5c0,0,0.1,0.1,0.1,0.1c2.1-0.7,4.4-0.9,6.6-0.9C88.9,152.3,89.3,152.7,89,153z M87.6,153.2
			c-1.9,0-3.8,0.3-5.7,0.7c-0.2,0-0.3,0-0.4-0.1c-0.1,0-0.2,0-0.3-0.1c-1.3-1-2.5-2.3-3.7-3.5c0,1.6,0.1,3.1,0,4.7
			c0,0.2-0.1,0.3-0.2,0.3c0,0.2,0,0.4-0.3,0.5c-1.7,0.8-3.4,1.6-5,2.4c0.6,0.2,1.1,0.4,1.7,0.6c0.7,0.2,1.5,0.3,2.1,0.7
			c0.2,0.1,0.1,0.4-0.1,0.4c0,0,0,0,0,0c0.5,1.7,0.7,3.5,0.7,5.3c1.9-1.3,3.5-2.8,4.9-4.6c0.3-0.3,0.8-0.1,0.8,0.3
			c0.7,0.4,1.4,0.8,2.2,1.1c0.2,0.1,2.4,1.2,2.5,1c0.2-0.2-0.6-2-0.7-2.3c-0.4-1-0.8-1.9-1.2-2.8c-0.1-0.1-0.1-0.3,0-0.4
			c-0.1-0.1-0.1-0.3,0-0.5C85.9,155.7,86.8,154.4,87.6,153.2z"/>
		<path d="M84.6,160.8c-0.4-0.2-0.8-0.3-1.2-0.6c-0.4-0.2-0.8-0.5-1.1-0.9c-0.2-0.2-0.4,0.1-0.2,0.2c0.6,0.7,1.5,1.4,2.4,1.5
			C84.7,161.2,84.8,160.9,84.6,160.8z"/>
		<path d="M85.1,160.4c-0.3-0.2-0.6-0.4-0.9-0.6c-0.3-0.2-0.5-0.5-0.7-0.8c-0.1-0.1-0.3,0-0.3,0.2c0.3,0.7,1,1.4,1.7,1.7
			C85.2,160.9,85.3,160.5,85.1,160.4z"/>
	</g>
	<g>
		<path d="M111.8,133.6c-1.8,0.2-3.5,0.5-5.2,0.9c-0.4,1.4-1,2.7-1.7,4c-0.3,0.6-0.8,1.9-1.7,1.8c-0.8-0.2-1.1-1.6-1.4-2.3
			c-0.4-1.1-0.7-2.3-0.9-3.5c-2.5,0.3-5.1,0.1-7.5-0.5c-0.3-0.1-0.5-0.6-0.2-0.8c1.5-1.4,2.8-3,4.1-4.6c-1.1-1-1.8-2.8-2.3-4.1
			c-0.2-0.4,0.1-0.9,0.6-0.7c2.1,0.7,4.2,1.5,6.3,2.3c0.1,0,0.2,0.1,0.2,0.1c1.3-1.5,2.6-2.9,4-4.3c0.3-0.3,0.9-0.1,0.8,0.3
			c-0.1,2.1,0,4.3-0.1,6.4c0,0.1,0,0.1,0,0.1c2,1,3.7,2.5,5.3,4.1C112.2,133,112.2,133.6,111.8,133.6z M110.6,132.8
			c-1.4-1.3-2.9-2.5-4.5-3.6c-0.1-0.1-0.2-0.2-0.2-0.4c-0.1-0.1-0.1-0.2-0.1-0.3c-0.2-1.7-0.2-3.4-0.1-5.1c-1.1,1.1-2.2,2.3-3.3,3.3
			c-0.1,0.1-0.3,0.1-0.4,0.1c-0.1,0.1-0.3,0.2-0.5,0.1c-1.8-0.6-3.5-1.3-5.2-1.9c0.2,0.6,0.5,1.1,0.8,1.6c0.4,0.7,0.8,1.3,1,2
			c0,0.2-0.2,0.3-0.3,0.2c0,0,0,0,0,0c-0.9,1.6-2,3-3.3,4.3c2.2,0.4,4.4,0.5,6.7,0.2c0.4,0,0.6,0.5,0.4,0.8c0.2,0.8,0.5,1.6,0.7,2.4
			c0.1,0.2,0.8,2.5,1,2.5c0.3,0,1-1.9,1.1-2.1c0.4-0.9,0.8-1.9,1.2-2.8c0.1-0.1,0.2-0.2,0.3-0.3c0-0.2,0.1-0.3,0.4-0.4
			C107.7,133.3,109.2,133,110.6,132.8z"/>
		<path d="M103.1,136c-0.1-0.4-0.3-0.8-0.4-1.3c-0.1-0.5-0.2-0.9-0.2-1.4c0-0.2-0.3-0.2-0.3,0c-0.1,0.9,0.1,2.1,0.6,2.8
			C102.9,136.3,103.2,136.2,103.1,136z"/>
		<path d="M103.8,136c-0.1-0.4-0.2-0.7-0.2-1.1c0-0.4,0-0.7,0-1c0-0.1-0.2-0.2-0.3-0.1c-0.3,0.7-0.3,1.7,0,2.4
			C103.4,136.4,103.8,136.2,103.8,136z"/>
	</g>
	<g>
		<path d="M154.3,70.1c-1.8,0.2-3.5,0.5-5.2,0.9c-0.4,1.4-1,2.7-1.7,4c-0.3,0.6-0.8,1.9-1.7,1.8c-0.8-0.2-1.1-1.6-1.4-2.3
			c-0.4-1.1-0.7-2.3-0.9-3.5c-2.5,0.3-5.1,0.1-7.5-0.5c-0.3-0.1-0.5-0.6-0.2-0.8c1.5-1.4,2.8-3,4.1-4.6c-1.1-1-1.8-2.8-2.3-4.1
			c-0.2-0.4,0.1-0.9,0.6-0.7c2.1,0.7,4.2,1.5,6.3,2.3c0.1,0,0.2,0.1,0.2,0.1c1.3-1.5,2.6-2.9,4-4.3c0.3-0.3,0.9-0.1,0.8,0.3
			c-0.1,2.1,0,4.3-0.1,6.4c0,0.1,0,0.1,0,0.1c2,1,3.7,2.5,5.3,4.1C154.7,69.5,154.7,70.1,154.3,70.1z M153.1,69.3
			c-1.4-1.3-2.9-2.5-4.5-3.6c-0.1-0.1-0.2-0.2-0.2-0.4c-0.1-0.1-0.1-0.2-0.1-0.3c-0.2-1.7-0.2-3.4-0.1-5.1c-1.1,1.1-2.2,2.3-3.3,3.3
			c-0.1,0.1-0.3,0.1-0.4,0.1c-0.1,0.1-0.3,0.2-0.5,0.1c-1.8-0.6-3.5-1.3-5.2-1.9c0.2,0.6,0.5,1.1,0.8,1.6c0.4,0.7,0.8,1.3,1,2
			c0,0.2-0.2,0.3-0.3,0.2c0,0,0,0,0,0c-0.9,1.6-2,3-3.3,4.3c2.2,0.4,4.4,0.5,6.7,0.2c0.4,0,0.6,0.5,0.4,0.8c0.2,0.8,0.5,1.6,0.7,2.4
			c0.1,0.2,0.8,2.5,1,2.5c0.3,0,1-1.9,1.1-2.1c0.4-0.9,0.8-1.9,1.2-2.8c0.1-0.1,0.2-0.2,0.3-0.3c0-0.2,0.1-0.3,0.4-0.4
			C150.2,69.8,151.7,69.5,153.1,69.3z"/>
		<path d="M145.6,72.5c-0.1-0.4-0.3-0.8-0.4-1.3c-0.1-0.5-0.2-0.9-0.2-1.4c0-0.2-0.3-0.2-0.3,0c-0.1,0.9,0.1,2.1,0.6,2.8
			C145.4,72.8,145.7,72.7,145.6,72.5z"/>
		<path d="M146.3,72.5c-0.1-0.4-0.2-0.7-0.2-1.1c0-0.4,0-0.7,0-1c0-0.1-0.2-0.2-0.3-0.1c-0.3,0.7-0.3,1.7,0,2.4
			C145.9,72.9,146.3,72.7,146.3,72.5z"/>
	</g>
	<g>
		<path d="M79.6,116.3c-0.3,1.8-0.4,3.5-0.5,5.3c1.2,0.8,2.3,1.7,3.4,2.7c0.5,0.5,1.7,1.3,1.2,2.1c-0.4,0.8-1.8,0.6-2.5,0.7
			c-1.2,0.1-2.4,0.1-3.7-0.1c-0.4,2.5-1.3,4.9-2.5,7.1c-0.2,0.3-0.7,0.3-0.8,0c-0.9-1.9-2.1-3.5-3.3-5.2c-1.3,0.8-3.2,0.9-4.6,1.1
			c-0.4,0-0.8-0.4-0.6-0.8c1.3-1.8,2.6-3.6,3.9-5.4c0.1-0.1,0.1-0.1,0.2-0.2c-1.1-1.6-2.1-3.3-3.1-5c-0.2-0.4,0.2-0.8,0.6-0.7
			c2,0.7,4.1,1.2,6.1,1.8c0.1,0,0.1,0,0.1,0.1c1.5-1.6,3.4-2.9,5.3-3.9C79.2,115.7,79.7,116,79.6,116.3z M78.5,117.2
			c-1.7,1-3.2,2.1-4.6,3.4c-0.1,0.1-0.3,0.1-0.4,0.1c-0.1,0-0.2,0.1-0.3,0.1c-1.7-0.3-3.3-0.8-4.9-1.3c0.8,1.4,1.6,2.7,2.3,4.1
			c0.1,0.2,0,0.3,0,0.4c0.1,0.1,0.1,0.3,0,0.5c-1.1,1.5-2.2,3-3.3,4.5c0.6-0.1,1.2-0.2,1.8-0.3c0.7-0.2,1.4-0.5,2.2-0.4
			c0.2,0,0.3,0.2,0.1,0.4c0,0,0,0,0,0c1.3,1.3,2.3,2.8,3.2,4.3c1-2,1.7-4.1,2-6.4c0.1-0.4,0.7-0.4,0.9-0.1c0.8,0,1.6,0,2.5-0.1
			c0.3,0,2.7-0.1,2.7-0.3c0.1-0.3-1.5-1.5-1.7-1.7c-0.8-0.7-1.6-1.3-2.4-1.9c-0.1-0.1-0.2-0.2-0.2-0.4c-0.2-0.1-0.3-0.2-0.3-0.4
			C78.2,120.2,78.3,118.7,78.5,117.2z"/>
		<path d="M79.6,125.3c-0.4,0-0.9,0.1-1.3,0.1c-0.5,0-0.9-0.1-1.4-0.2c-0.2-0.1-0.3,0.3-0.1,0.3c0.8,0.3,2,0.5,2.9,0.2
			C79.8,125.6,79.8,125.3,79.6,125.3z"/>
		<path d="M79.7,124.7c-0.4,0-0.7,0-1.1-0.1c-0.3-0.1-0.7-0.2-1-0.3c-0.1,0-0.3,0.2-0.2,0.3c0.6,0.5,1.6,0.7,2.3,0.7
			C80.1,125.2,80,124.7,79.7,124.7z"/>
	</g>
	<g>
		<path d="M117.5,161.8C117.5,161.9,117.5,161.9,117.5,161.8c-0.1,0.2-0.2,0.4-0.5,0.4c-3.1-0.6-8.1-2.6-7.5-6.6
			c0.5-2.8,3.3-2.7,5-1.2c-0.2-2.6,2.1-5.4,4.6-3.1C122.1,153.8,119.4,159.5,117.5,161.8z M117.1,151.9c-1.4,0.3-1.6,0.7-1.8,2.1
			c0,0.4,0,0.8,0,1.1c0,0,0,0.1,0.1,0.1c0.2,0.4-0.3,0.8-0.6,0.4c-0.4-0.5-0.9-1-1.5-1.2c-0.8-0.3-2.4,0.4-2.6,1.3
			c-0.3,1.1,0.4,2.3,1.1,3c1.4,1.4,3.4,2,5.2,2.7c0,0,0,0,0,0c1.1-2,2.3-4,2.5-6.3c0.1-0.7,0.1-1.4-0.2-2
			C118.8,151.8,118.3,151.6,117.1,151.9z"/>
		<path d="M117.6,152.7c-0.3-0.1-0.5,0.4-0.2,0.5c0.5,0.2,0.8,0.6,0.7,1.2c0,0.5,0.7,0.5,0.7,0C118.8,153.6,118.3,152.9,117.6,152.7
			z"/>
	</g>
	<g>
		<path d="M141.8,115.5C141.8,115.6,141.8,115.6,141.8,115.5c-0.1,0.2-0.2,0.4-0.5,0.4c-3.1-0.6-8.1-2.6-7.5-6.6
			c0.5-2.8,3.3-2.7,5-1.2c-0.2-2.6,2.1-5.4,4.6-3.1C146.4,107.5,143.8,113.2,141.8,115.5z M141.4,105.6c-1.4,0.3-1.6,0.7-1.8,2.1
			c0,0.4,0,0.8,0,1.1c0,0,0,0.1,0.1,0.1c0.2,0.4-0.3,0.8-0.6,0.5c-0.4-0.5-0.9-1-1.5-1.2c-0.8-0.3-2.4,0.4-2.6,1.3
			c-0.3,1.1,0.4,2.3,1.1,3c1.4,1.4,3.4,2,5.2,2.7c0,0,0,0,0,0c1.1-2,2.3-4,2.5-6.3c0.1-0.7,0.1-1.4-0.2-2
			C143.1,105.5,142.6,105.3,141.4,105.6z"/>
		<path d="M141.9,106.4c-0.3-0.1-0.5,0.4-0.2,0.5c0.5,0.2,0.8,0.6,0.7,1.2c0,0.5,0.7,0.5,0.7,0C143.1,107.3,142.7,106.6,141.9,106.4
			z"/>
	</g>
	<g>
		<path d="M73,83.8C73,83.8,73,83.8,73,83.8c0.1,0.2,0.1,0.5-0.1,0.6c-2.6,1.8-7.6,3.8-10,0.5c-1.6-2.3,0.5-4.2,2.7-4.4
			c-1.9-1.7-2.3-5.3,1.1-5.5C70.6,74.8,72.8,80.8,73,83.8z M65.7,77c-0.8,1.2-0.7,1.6,0.2,2.8c0.2,0.3,0.5,0.6,0.8,0.8
			c0,0,0.1,0,0.1,0c0.4,0.1,0.3,0.8-0.1,0.8c-0.6-0.1-1.3-0.1-1.9,0.2c-0.7,0.3-1.4,2-1,2.7c0.6,1,1.9,1.3,2.9,1.4
			c2,0.1,3.8-0.9,5.6-1.7c0,0,0,0,0,0c-0.6-2.2-1.2-4.5-2.6-6.3c-0.4-0.5-0.9-1-1.6-1.3C66.9,75.7,66.4,75.9,65.7,77z"/>
		<path d="M66.6,77.2c-0.3,0.2-0.1,0.6,0.3,0.5c0.5-0.2,1-0.1,1.3,0.3c0.3,0.4,0.9-0.2,0.5-0.5C68.2,77,67.3,76.9,66.6,77.2z"/>
	</g>
	<g>
		<path d="M68.1,65.3C68.1,65.3,68.1,65.3,68.1,65.3c-0.1,0.2-0.2,0.4-0.5,0.4c-3.1-0.6-8.1-2.6-7.5-6.6c0.5-2.8,3.3-2.7,5-1.2
			c-0.2-2.6,2.1-5.4,4.6-3.1C72.7,57.2,70,63,68.1,65.3z M67.6,55.3c-1.4,0.3-1.6,0.7-1.8,2.1c0,0.4,0,0.8,0,1.1c0,0,0,0.1,0.1,0.1
			c0.2,0.4-0.3,0.8-0.6,0.5c-0.4-0.5-0.9-1-1.5-1.2c-0.8-0.3-2.4,0.4-2.6,1.3c-0.3,1.1,0.4,2.3,1.1,3c1.4,1.4,3.4,2,5.2,2.7
			c0,0,0,0,0,0c1.1-2,2.3-4,2.5-6.3c0.1-0.7,0.1-1.4-0.2-2C69.4,55.3,68.9,55.1,67.6,55.3z"/>
		<path d="M68.1,56.1c-0.3-0.1-0.5,0.4-0.2,0.5c0.5,0.2,0.8,0.6,0.7,1.2c0,0.5,0.7,0.5,0.7,0C69.4,57.1,68.9,56.4,68.1,56.1z"/>
	</g>
	<g>
		<path d="M77.9,73.1C77.9,73.1,77.9,73.1,77.9,73.1c-0.2,0.1-0.5,0-0.6-0.3c-1-3-1.6-8.4,2.3-9.7c2.7-0.9,3.9,1.6,3.4,3.8
			c2.2-1.4,5.7-0.7,5,2.6C87.2,73.4,80.9,73.8,77.9,73.1z M86.5,68c-0.9-1.1-1.4-1.1-2.7-0.6c-0.4,0.1-0.7,0.3-1,0.5
			c0,0,0,0.1,0,0.1c-0.2,0.4-0.8,0.1-0.7-0.3c0.2-0.6,0.5-1.2,0.4-1.9c-0.1-0.8-1.5-1.9-2.3-1.7c-1.1,0.3-1.8,1.4-2.1,2.4
			c-0.6,1.9-0.2,3.9,0.1,5.8c0,0,0,0,0,0c2.3,0,4.6,0.1,6.7-0.8c0.6-0.3,1.3-0.6,1.7-1.1C87.4,69.5,87.3,69,86.5,68z"/>
		<path d="M86,68.9c-0.1-0.3-0.6-0.2-0.5,0.1c0.1,0.5-0.2,1-0.7,1.2c-0.4,0.2-0.1,0.9,0.3,0.6C85.8,70.4,86.2,69.7,86,68.9z"/>
	</g>
	<g>
		<path d="M158.9,115.1C158.9,115.1,158.9,115.1,158.9,115.1c-0.2,0-0.5-0.1-0.5-0.4c-0.1-3.2,0.7-8.5,4.8-8.8
			c2.8-0.2,3.3,2.6,2.3,4.6c2.5-0.8,5.7,0.8,4.1,3.8C167.8,117.7,161.6,116.5,158.9,115.1z M168.6,112.4c-0.6-1.3-1-1.5-2.5-1.3
			c-0.4,0-0.7,0.1-1.1,0.2c0,0,0,0.1-0.1,0.1c-0.3,0.3-0.8-0.2-0.6-0.5c0.4-0.5,0.8-1.1,0.9-1.7c0.1-0.8-1-2.2-1.8-2.3
			c-1.1,0-2.1,0.9-2.7,1.8c-1.1,1.7-1.2,3.7-1.4,5.6c0,0,0,0,0,0c2.2,0.6,4.4,1.3,6.7,1c0.7-0.1,1.4-0.2,2-0.6
			C169,114.1,169.1,113.6,168.6,112.4z"/>
		<path d="M167.9,113.1c0-0.4-0.5-0.4-0.5,0c-0.1,0.5-0.5,0.9-1,1c-0.5,0.1-0.3,0.8,0.1,0.7C167.3,114.5,167.8,113.9,167.9,113.1z"
			/>
	</g>
	<g>
		<path d="M160.6,99.7C160.6,99.7,160.6,99.7,160.6,99.7c-0.2,0.1-0.5,0-0.6-0.3c-0.9-3-1.5-8.4,2.4-9.7c2.7-0.9,3.9,1.7,3.4,3.9
			c2.2-1.4,5.7-0.6,4.9,2.7C169.9,100.1,163.5,100.4,160.6,99.7z M169.2,94.7c-0.9-1.1-1.4-1.1-2.7-0.6c-0.4,0.1-0.7,0.3-1,0.5
			c0,0,0,0.1,0,0.1c-0.2,0.4-0.8,0.1-0.7-0.3c0.2-0.6,0.5-1.2,0.4-1.9c-0.1-0.8-1.5-1.9-2.3-1.7c-1.1,0.3-1.8,1.4-2.2,2.4
			c-0.6,1.9-0.2,3.9,0,5.8c0,0,0,0,0,0c2.3,0,4.6,0.2,6.8-0.7c0.6-0.3,1.3-0.6,1.7-1.1C170.1,96.2,170,95.7,169.2,94.7z"/>
		<path d="M168.7,95.5c-0.1-0.3-0.6-0.2-0.5,0.1c0,0.5-0.2,1-0.7,1.2c-0.4,0.2-0.1,0.9,0.3,0.6C168.5,97.1,168.9,96.3,168.7,95.5z"
			/>
	</g>
	<g>
		<g>
			<path d="M44.2,115.1C44.2,115.1,44.2,115.1,44.2,115.1c-0.2,0-0.5-0.1-0.5-0.4c-0.1-3.2,0.7-8.5,4.8-8.8c2.8-0.2,3.3,2.6,2.3,4.6
				c2.5-0.8,5.7,0.8,4.1,3.8C53.1,117.7,46.9,116.5,44.2,115.1z M53.8,112.4c-0.6-1.3-1-1.5-2.5-1.3c-0.4,0-0.7,0.1-1.1,0.2
				c0,0,0,0.1-0.1,0.1c-0.3,0.3-0.8-0.2-0.6-0.5c0.4-0.5,0.8-1.1,0.9-1.7c0.1-0.8-1-2.2-1.8-2.3c-1.1,0-2.1,0.9-2.7,1.8
				c-1.1,1.7-1.2,3.7-1.4,5.6c0,0,0,0,0,0c2.2,0.6,4.4,1.3,6.7,1c0.7-0.1,1.4-0.2,2-0.6C54.3,114.1,54.4,113.6,53.8,112.4z"/>
			<path d="M53.2,113.1c0-0.4-0.5-0.4-0.5,0c-0.1,0.5-0.5,0.9-1,1c-0.5,0.1-0.3,0.8,0.1,0.7C52.6,114.5,53.1,113.9,53.2,113.1z"/>
		</g>
		<g>
			<path d="M45.9,99.7C45.9,99.7,45.8,99.7,45.9,99.7c-0.2,0.1-0.5,0-0.6-0.3c-0.9-3-1.5-8.4,2.4-9.7c2.7-0.9,3.9,1.7,3.4,3.9
				c2.2-1.4,5.7-0.6,4.9,2.7C55.1,100.1,48.8,100.4,45.9,99.7z M54.5,94.7c-0.9-1.1-1.4-1.1-2.7-0.6c-0.4,0.1-0.7,0.3-1,0.5
				c0,0,0,0.1,0,0.1c-0.2,0.4-0.8,0.1-0.7-0.3c0.2-0.6,0.5-1.2,0.4-1.9c-0.1-0.8-1.5-1.9-2.3-1.7c-1.1,0.3-1.8,1.4-2.2,2.4
				c-0.6,1.9-0.2,3.9,0,5.8c0,0,0,0,0,0c2.3,0,4.6,0.2,6.8-0.7c0.6-0.3,1.3-0.6,1.7-1.1C55.4,96.2,55.3,95.7,54.5,94.7z"/>
			<path d="M54,95.5c-0.1-0.3-0.6-0.2-0.5,0.1c0,0.5-0.2,1-0.7,1.2c-0.4,0.2-0.1,0.9,0.3,0.6C53.8,97.1,54.2,96.3,54,95.5z"/>
		</g>
		<g>
			<path d="M18.8,143.5c0.3-0.1,0.2-0.5-0.1-0.5c-0.7-0.1-1.4,0.5-1.5,1.2c-0.2,0.7,0.2,1.4,0.9,1.7c0.1,0.1,0.2-0.1,0.1-0.2
				c-0.4-0.3-0.6-0.9-0.4-1.4C17.9,143.8,18.3,143.7,18.8,143.5z"/>
			<path d="M57.5,150c-3.9,20.2-36.5,18-37.9-2.2c-2.2,0.1-4.9-1.4-4.4-4c0.4-2,2.4-3.7,4.3-2.8c5.6-17.1,32.9-15.5,37.1,1.6
				c0,0.1,0,0.2,0,0.2c2.2-0.2,4.7,0.9,4.9,3.4C61.7,148.5,59.7,150.4,57.5,150z M60.5,145.8c-0.5-1.9-2.6-2.1-4.2-2.3
				c-0.1,0-0.2-0.1-0.2-0.2c-0.2,0-0.5-0.1-0.5-0.4c-1.7-6.9-6.5-10.8-12-12.2c1.8,1.3,3.5,3.1,3.5,5.3c0,0.5-0.8,0.6-0.8,0.1
				c-0.1-2.5-2.3-4.1-4.1-5.6c-0.7-0.1-1.4-0.2-2.1-0.2c1,1.1,1.6,2.5,1.6,3.9c0,0.5-0.8,0.6-0.8,0.1c-0.2-1.7-0.9-2.9-2-4
				c-0.4,0-0.8,0-1.2,0c-1.1,0.8-1.9,1.8-2.2,3.2c-0.1,0.5-1,0.4-0.8-0.1c0.2-1.1,0.9-2.2,1.8-2.9c-6.5,0.8-12.9,4.7-16.1,11.1
				c-0.1,0.1-0.1,0.2-0.2,0.2c-0.1,0.1-0.2,0.2-0.4,0.1c-1.8-0.5-3.4,0.8-3.6,2.6c-0.2,1.9,2.2,2.6,3.7,2.7c0.1,0,0.2,0.1,0.3,0.2
				c0.1,0,0.2,0.1,0.2,0.3c1.5,9.2,8.1,14.5,17.2,15.5c9.1,1,17.1-4,19-13.2c0.1-0.3,0.3-0.4,0.5-0.4c0.1-0.2,0.2-0.3,0.4-0.3
				C59.4,149.3,61.1,147.9,60.5,145.8z"/>
			<path d="M57.6,144.7c-0.2,0-0.2,0.3,0,0.4c1,0.2,1.4,1.3,0.8,2.1c-0.3,0.4,0.3,0.9,0.6,0.5C60,146.5,59.1,144.7,57.6,144.7z"/>
			<path d="M40.5,151.1c-0.7,0.4-1.2,1.1-2.1,0.9c-1-0.3-1.2-1.5-0.4-2.1c0.2-0.2,0-0.6-0.3-0.5c-1.4,0.4-1.3,2.3-0.3,3.1
				c1,0.7,3.2,0.4,3.5-1C41,151.2,40.8,151,40.5,151.1z"/>
			<path d="M52.3,153c-1.6,5.4-7.4,7.2-12.3,7.5c-0.2,0-0.2,0.3,0,0.3c5.4,1.3,11.3-2.6,13-7.7C53.1,152.8,52.5,152.5,52.3,153z"/>
			<path d="M32.2,146.8c-0.1-2-1.8-3.6-3.8-3.7c-1.9-0.1-3.9,1.5-4,3.4c0,0.4,0.5,0.6,0.7,0.2c0.5-1.3,1.5-2.5,3-2.6
				c1.7-0.1,2.9,1.3,3.2,2.8C31.3,147.5,32.2,147.5,32.2,146.8z"/>
			<path d="M53,148.4c-0.4-1.9-2-3.4-4-3.4c-1.9,0-3.8,1.4-3.9,3.3c0,0.3,0.4,0.5,0.6,0.2c0.6-1.3,1.7-2.5,3.3-2.5
				c1.5,0,2.7,1.2,3,2.6C52.1,149.2,53.1,149,53,148.4z"/>
			<path d="M27.4,134.5c-0.8,0.4-1.5,1-2,1.8c-0.1,0.2,0.1,0.4,0.3,0.2c0.5-0.7,1.2-1.2,1.9-1.7C27.8,134.8,27.6,134.4,27.4,134.5z"
				/>
			<path d="M28.7,134.8c-0.6,0.2-1,0.6-1.4,1.1c-0.2,0.2,0.1,0.5,0.3,0.3c0.4-0.4,0.8-0.6,1.3-0.8C29.2,135.2,29,134.7,28.7,134.8z"
				/>
		</g>
	</g>
	<g>
		<g>
			<path d="M89,38.3c-1.1,1.4-2.1,2.9-3,4.4c0.7,1.3,1.2,2.6,1.6,4c0.2,0.6,0.8,1.9,0.1,2.4c-0.7,0.5-1.9-0.3-2.6-0.6
				C84,48,83,47.4,82,46.7c-1.5,2-3.5,3.7-5.6,5c-0.3,0.2-0.7-0.1-0.7-0.4c0.1-2.1-0.1-4.1-0.3-6.2c-1.5,0-3.3-0.7-4.5-1.3
				c-0.4-0.1-0.6-0.7-0.1-0.9c2-1,4-1.9,6-2.9c0.1,0,0.2,0,0.2,0c-0.2-1.9-0.2-3.9-0.3-5.9c0-0.4,0.6-0.7,0.8-0.3
				c1.4,1.6,3,3,4.5,4.5c0,0,0.1,0.1,0.1,0.1c2.1-0.7,4.4-0.9,6.6-0.9C88.9,37.6,89.3,38,89,38.3z M87.6,38.5
				c-1.9,0-3.8,0.3-5.7,0.7c-0.2,0-0.3,0-0.4-0.1c-0.1,0-0.2,0-0.3-0.1c-1.3-1-2.5-2.3-3.7-3.5c0,1.6,0.1,3.1,0,4.7
				c0,0.2-0.1,0.3-0.2,0.3c0,0.2,0,0.4-0.3,0.5c-1.7,0.8-3.4,1.6-5,2.4c0.6,0.2,1.1,0.4,1.7,0.6c0.7,0.2,1.5,0.3,2.1,0.7
				c0.2,0.1,0.1,0.4-0.1,0.4c0,0,0,0,0,0c0.5,1.7,0.7,3.5,0.7,5.3c1.9-1.3,3.5-2.8,4.9-4.6c0.3-0.3,0.8-0.1,0.8,0.3
				c0.7,0.4,1.4,0.8,2.2,1.1c0.2,0.1,2.4,1.2,2.5,1c0.2-0.2-0.6-2-0.7-2.3c-0.4-1-0.8-1.9-1.2-2.8c-0.1-0.1-0.1-0.3,0-0.4
				c-0.1-0.1-0.1-0.3,0-0.5C85.9,40.9,86.8,39.7,87.6,38.5z"/>
			<path d="M84.6,46.1c-0.4-0.2-0.8-0.3-1.2-0.6c-0.4-0.2-0.8-0.5-1.1-0.9c-0.2-0.2-0.4,0.1-0.2,0.2c0.6,0.7,1.5,1.4,2.4,1.5
				C84.7,46.5,84.8,46.2,84.6,46.1z"/>
			<path d="M85.1,45.6c-0.3-0.2-0.6-0.4-0.9-0.6c-0.3-0.2-0.5-0.5-0.7-0.8c-0.1-0.1-0.3,0-0.3,0.2c0.3,0.7,1,1.4,1.7,1.7
				C85.2,46.2,85.3,45.8,85.1,45.6z"/>
		</g>
		<g>
			<path d="M117.5,47.1C117.5,47.1,117.5,47.2,117.5,47.1c-0.1,0.2-0.2,0.4-0.5,0.4c-3.1-0.6-8.1-2.6-7.5-6.6c0.5-2.8,3.3-2.7,5-1.2
				c-0.2-2.6,2.1-5.4,4.6-3.1C122.1,39.1,119.4,44.8,117.5,47.1z M117.1,37.2c-1.4,0.3-1.6,0.7-1.8,2.1c0,0.4,0,0.8,0,1.1
				c0,0,0,0.1,0.1,0.1c0.2,0.4-0.3,0.8-0.6,0.5c-0.4-0.5-0.9-1-1.5-1.2c-0.8-0.3-2.4,0.4-2.6,1.3c-0.3,1.1,0.4,2.3,1.1,3
				c1.4,1.4,3.4,2,5.2,2.7c0,0,0,0,0,0c1.1-2,2.3-4,2.5-6.3c0.1-0.7,0.1-1.4-0.2-2C118.8,37.1,118.3,36.9,117.1,37.2z"/>
		</g>
		<g>
			<path d="M133.6,29.1c0.3-0.1,0.2-0.5-0.1-0.5c-0.7-0.1-1.4,0.5-1.5,1.2c-0.2,0.7,0.2,1.4,0.9,1.7c0.1,0.1,0.2-0.1,0.1-0.2
				c-0.4-0.3-0.6-0.9-0.4-1.4C132.7,29.3,133.1,29.2,133.6,29.1z"/>
			<path d="M172.3,35.6c-3.9,20.2-36.5,18-37.9-2.2c-2.2,0.1-4.9-1.4-4.4-4c0.4-2,2.4-3.7,4.3-2.8c5.6-17.1,32.9-15.5,37.1,1.6
				c0,0.1,0,0.2,0,0.2c2.2-0.2,4.7,0.9,4.9,3.4C176.5,34,174.5,36,172.3,35.6z M175.3,31.3c-0.5-1.9-2.6-2.1-4.2-2.3
				c-0.1,0-0.2-0.1-0.2-0.2c-0.2,0-0.5-0.1-0.5-0.4c-1.7-6.9-6.5-10.8-12-12.1c1.8,1.3,3.5,3.1,3.5,5.3c0,0.5-0.8,0.6-0.8,0.1
				c-0.1-2.5-2.3-4.1-4.1-5.6c-0.7-0.1-1.4-0.2-2.1-0.2c1,1.1,1.6,2.5,1.6,3.9c0,0.5-0.8,0.6-0.8,0.1c-0.2-1.7-0.9-2.9-2-4
				c-0.4,0-0.8,0-1.2,0c-1.1,0.8-1.9,1.8-2.2,3.2c-0.1,0.5-1,0.4-0.8-0.1c0.2-1.1,0.9-2.2,1.8-2.9c-6.5,0.8-12.9,4.7-16.1,11.1
				c-0.1,0.1-0.1,0.2-0.2,0.2c-0.1,0.1-0.2,0.2-0.4,0.1c-1.8-0.5-3.4,0.8-3.6,2.6c-0.2,1.9,2.2,2.6,3.7,2.7c0.1,0,0.2,0.1,0.3,0.2
				c0.1,0,0.2,0.1,0.2,0.3c1.5,9.2,8.1,14.5,17.2,15.5c9.1,1,17.1-4,19-13.2c0.1-0.3,0.3-0.4,0.5-0.4c0.1-0.2,0.2-0.3,0.4-0.3
				C174.1,34.9,175.9,33.4,175.3,31.3z"/>
			<path d="M172.3,30.3c-0.2,0-0.2,0.3,0,0.4c1,0.2,1.4,1.3,0.8,2.1c-0.3,0.4,0.3,0.9,0.6,0.5C174.8,32,173.9,30.3,172.3,30.3z"/>
			<path d="M155.3,36.6c-0.7,0.4-1.2,1.1-2.1,0.9c-1-0.3-1.2-1.5-0.4-2.1c0.2-0.2,0-0.6-0.3-0.5c-1.4,0.4-1.3,2.3-0.3,3.1
				c1,0.7,3.2,0.4,3.5-1C155.8,36.7,155.5,36.5,155.3,36.6z"/>
			<path d="M167.1,38.6c-1.6,5.4-7.4,7.2-12.3,7.5c-0.2,0-0.2,0.3,0,0.3c5.4,1.3,11.3-2.6,13-7.7C167.9,38.3,167.2,38.1,167.1,38.6z
				"/>
			<path d="M147,32.4c-0.1-2-1.8-3.6-3.8-3.7c-1.9-0.1-3.9,1.5-4,3.4c0,0.4,0.5,0.6,0.7,0.2c0.5-1.3,1.5-2.5,3-2.6
				c1.7-0.1,2.9,1.3,3.2,2.8C146.1,33.1,147,33,147,32.4z"/>
			<path d="M167.8,34c-0.4-1.9-2-3.4-4-3.4c-1.9,0-3.8,1.4-3.9,3.3c0,0.3,0.4,0.5,0.6,0.2c0.6-1.3,1.7-2.5,3.3-2.5
				c1.5,0,2.7,1.2,3,2.6C166.9,34.8,167.9,34.5,167.8,34z"/>
			<path d="M142.2,20.1c-0.8,0.4-1.5,1-2,1.8c-0.1,0.2,0.1,0.4,0.3,0.2c0.5-0.7,1.2-1.2,1.9-1.7C142.6,20.3,142.4,20,142.2,20.1z"/>
			<path d="M143.4,20.4c-0.6,0.2-1,0.6-1.4,1.1c-0.2,0.2,0.1,0.5,0.3,0.3c0.4-0.4,0.8-0.6,1.3-0.8C144,20.8,143.8,20.2,143.4,20.4z"
				/>
		</g>
	</g>
	<g>
		<path d="M18.8,28.6c0.3-0.1,0.2-0.5-0.1-0.5c-0.7-0.1-1.4,0.5-1.5,1.2c-0.2,0.7,0.2,1.4,0.9,1.7c0.1,0.1,0.2-0.1,0.1-0.2
			c-0.4-0.3-0.6-0.9-0.4-1.4C17.9,28.9,18.3,28.7,18.8,28.6z"/>
		<path d="M57.5,35.1c-3.9,20.2-36.5,18-37.9-2.2c-2.2,0.1-4.9-1.4-4.4-4c0.4-2,2.4-3.7,4.3-2.8c5.6-17.1,32.9-15.5,37.1,1.6
			c0,0.1,0,0.2,0,0.2c2.2-0.2,4.7,0.9,4.9,3.4C61.7,33.6,59.7,35.5,57.5,35.1z M60.5,30.9c-0.5-1.9-2.6-2.1-4.2-2.3
			c-0.1,0-0.2-0.1-0.2-0.2c-0.2,0-0.5-0.1-0.5-0.4c-1.7-6.9-6.5-10.8-12-12.1c1.8,1.3,3.5,3.1,3.5,5.3c0,0.5-0.8,0.6-0.8,0.1
			c-0.1-2.5-2.3-4.1-4.1-5.6c-0.7-0.1-1.4-0.2-2.1-0.2c1,1.1,1.6,2.5,1.6,3.9c0,0.5-0.8,0.6-0.8,0.1c-0.2-1.7-0.9-2.9-2-4
			c-0.4,0-0.8,0-1.2,0c-1.1,0.8-1.9,1.8-2.2,3.2c-0.1,0.5-1,0.4-0.8-0.1c0.2-1.1,0.9-2.2,1.8-2.9c-6.5,0.8-12.9,4.7-16.1,11.1
			c-0.1,0.1-0.1,0.2-0.2,0.2c-0.1,0.1-0.2,0.2-0.4,0.1c-1.8-0.5-3.4,0.8-3.6,2.6c-0.2,1.9,2.2,2.6,3.7,2.7c0.1,0,0.2,0.1,0.3,0.2
			c0.1,0,0.2,0.1,0.2,0.3c1.5,9.2,8.1,14.5,17.2,15.5c9.1,1,17.1-4,19-13.2c0.1-0.3,0.3-0.4,0.5-0.4c0.1-0.2,0.2-0.3,0.4-0.3
			C59.4,34.4,61.1,33,60.5,30.9z"/>
		<path d="M57.5,29.8c-0.2,0-0.2,0.3,0,0.4c1,0.2,1.4,1.3,0.8,2.1c-0.3,0.4,0.3,0.9,0.6,0.5C60,31.6,59.1,29.8,57.5,29.8z"/>
		<path d="M40.5,36.2c-0.7,0.4-1.2,1.1-2.1,0.9c-1-0.3-1.2-1.5-0.4-2.1c0.2-0.2,0-0.6-0.3-0.5c-1.4,0.4-1.3,2.3-0.3,3.1
			c1,0.7,3.2,0.4,3.5-1C41,36.3,40.7,36.1,40.5,36.2z"/>
		<path d="M52.3,38.1c-1.6,5.4-7.4,7.2-12.3,7.5c-0.2,0-0.2,0.3,0,0.3c5.4,1.3,11.3-2.6,13-7.7C53.1,37.8,52.5,37.6,52.3,38.1z"/>
		<path d="M32.2,31.9c-0.1-2-1.8-3.6-3.8-3.7c-1.9-0.1-3.9,1.5-4,3.4c0,0.4,0.5,0.6,0.7,0.2c0.5-1.3,1.5-2.5,3-2.6
			c1.7-0.1,2.9,1.3,3.2,2.8C31.3,32.6,32.2,32.6,32.2,31.9z"/>
		<path d="M53,33.5c-0.4-1.9-2-3.4-4-3.4c-1.9,0-3.8,1.4-3.9,3.3c0,0.3,0.4,0.5,0.6,0.2c0.6-1.3,1.7-2.5,3.3-2.5
			c1.5,0,2.7,1.2,3,2.6C52.1,34.3,53.1,34.1,53,33.5z"/>
		<path d="M27.4,19.6c-0.8,0.4-1.5,1-2,1.8c-0.1,0.2,0.1,0.4,0.3,0.2c0.5-0.7,1.2-1.2,1.9-1.7C27.8,19.9,27.6,19.5,27.4,19.6z"/>
		<path d="M28.6,19.9c-0.6,0.2-1,0.6-1.4,1.1c-0.2,0.2,0.1,0.5,0.3,0.3c0.4-0.4,0.8-0.6,1.3-0.8C29.2,20.3,29,19.8,28.6,19.9z"/>
	</g>
</g>
</svg>
