<?xml version="1.0" encoding="utf-8"?>
<!-- Generator: Adobe Illustrator 22.0.1, SVG Export Plug-In . SVG Version: 6.00 Build 0)  -->
<svg version="1.1" id="Layer_1" xmlns="http://www.w3.org/2000/svg" xmlns:xlink="http://www.w3.org/1999/xlink" x="0px" y="0px"
	 viewBox="0 0 200 200" style="enable-background:new 0 0 200 200;" xml:space="preserve">
<style type="text/css">
	.st0{fill:#231F20;}
	.st1{fill:#CE4291;}
	.st2{fill:#9F306B;}
	.st3{opacity:0.4;fill:#FFFFFF;}
	.st4{opacity:0.4;fill:#CE4291;}
	.st5{fill:#FFFFFF;}
	.st6{fill:#EA5224;}
	.st7{fill:#FCB548;}
	.st8{fill:#FAC0BC;}
	.st9{fill:#DAEEF6;}
	.st10{fill:#1F1D57;}
	.st11{fill:#3DBFB8;}
	.st12{fill:#F69794;}
	.st13{fill:#333333;}
	.st14{fill:#06A0A3;}
	.st15{fill:#E13269;}
	.st16{fill:#F05C7E;}
	.st17{opacity:0.2;fill:#F69794;}
	.st18{fill:#28BBAB;}
	.st19{fill:#1C4C7A;}
	.st20{fill:#F15822;}
	.st21{fill:#1A305B;}
	.st22{fill:#224988;}
	.st23{fill:#3861AD;}
	.st24{fill:#CAEAEE;}
	.st25{fill:#FBF9EC;}
	.st26{opacity:0.8;fill:#F1F2F2;}
	.st27{fill:#AE6161;}
	.st28{fill:#FABAAD;}
	.st29{fill:#F79B81;}
	.st30{fill:#78413B;}
	.st31{opacity:0.66;}
	.st32{fill:#F69082;}
	.st33{opacity:0.43;}
	.st34{fill:#F47D72;}
	.st35{fill:#7A3D1D;}
	.st36{fill:#F47C68;}
	.st37{fill:#6860A9;}
	.st38{fill:#514099;}
	.st39{opacity:0.25;}
	.st40{fill:#3E4058;}
	.st41{fill:#A6D8BB;}
	.st42{opacity:0.18;}
	.st43{fill:#8BCDCB;}
	.st44{fill:#F16460;}
	.st45{fill:#FEDB45;}
	.st46{opacity:0.59;}
	.st47{fill:#5E5E5E;}
	.st48{fill:#BCBCBB;}
	.st49{fill:#CFE9D9;}
	.st50{fill:#312D51;}
	.st51{opacity:0.87;}
	.st52{fill:#CA605A;}
	.st53{fill:#48292B;}
	.st54{fill:#21213A;}
	.st55{fill:#89CDAA;}
	.st56{fill:#B2DECE;}
	.st57{fill:url(#SVGID_1_);}
	.st58{fill:url(#SVGID_2_);}
	.st59{fill:url(#SVGID_3_);}
	.st60{fill:url(#SVGID_4_);}
	.st61{opacity:0.6;fill:#FFFFFF;}
	.st62{opacity:0.6;}
	.st63{fill:url(#SVGID_5_);}
	.st64{fill:url(#SVGID_6_);}
	.st65{fill:url(#SVGID_7_);}
	.st66{fill:url(#SVGID_8_);}
	.st67{fill:#DCDEE0;}
	.st68{fill:#ACAFB3;}
	.st69{fill:#F04A37;}
	.st70{fill:#4E4E4E;}
	.st71{fill:#939393;}
	.st72{fill:#D63F32;}
	.st73{fill:#D0CFAE;}
	.st74{fill:#E52627;}
	.st75{fill:#EE3C4D;}
	.st76{fill:url(#);}
	.st77{fill:#010101;}
	.st78{fill:#612D1D;}
	.st79{fill:#612E1E;}
	.st80{fill:#643022;}
	.st81{fill:#83554F;}
	.st82{fill:#C4B3A9;}
	.st83{fill:#FEEDE2;}
	.st84{fill:#FDE3D7;}
	.st85{fill:#FDE1D3;}
	.st86{fill:#FDDFCF;}
	.st87{fill:#FEEADE;}
	.st88{fill:#FDE6D9;}
	.st89{fill:#FFF7F3;}
	.st90{fill:#FEE6DA;}
	.st91{fill:#FDDED0;}
	.st92{fill:#F6FBFC;}
	.st93{fill:#FDDCCC;}
	.st94{fill:#FEE8DD;}
	.st95{fill:#FEE3D6;}
	.st96{fill:#FFF4EF;}
	.st97{fill:#FEE3D7;}
	.st98{fill:#FDDFD0;}
	.st99{fill:#FDE1D4;}
	.st100{fill:#FDDECF;}
	.st101{fill:#FDE3D6;}
	.st102{fill:#FEE9DD;}
	.st103{fill:#FBCAB4;}
	.st104{fill:#FBCBB6;}
	.st105{fill:#FCDBCB;}
	.st106{fill:#E4A771;}
	.st107{fill:#FDE7DB;}
	.st108{fill:#FDECE2;}
	.st109{fill:#FDE5D9;}
	.st110{fill:#FBC9B5;}
	.st111{fill:#FDD7C5;}
	.st112{fill:#FBCBB5;}
	.st113{fill:#FCEADE;}
	.st114{fill:#FDDBCB;}
	.st115{fill:#FBD1BE;}
	.st116{fill:#FDDAC8;}
	.st117{fill:#FBCEBA;}
	.st118{fill:#FBCBB7;}
	.st119{fill:#FAE5D7;}
	.st120{fill:#FEECE2;}
	.st121{fill:#FEE5D9;}
	.st122{fill:#FBD1BF;}
	.st123{fill:#F9DFCC;}
	.st124{fill:#FBCDBA;}
	.st125{fill:#F4BEA5;}
	.st126{fill:#FCE6D9;}
	.st127{fill:#F0F8FA;}
	.st128{fill:#F7DAC4;}
	.st129{fill:#E3A671;}
	.st130{fill:#F5D4BA;}
	.st131{fill:#FBE9DE;}
	.st132{fill:#FDEBE2;}
	.st133{fill:#FDE9DE;}
	.st134{fill:#FBE3D7;}
	.st135{fill:#E8B180;}
	.st136{fill:#EAB688;}
	.st137{fill:#F2CEB1;}
	.st138{fill:#FCE6DA;}
	.st139{fill:#EBB98E;}
	.st140{fill:#F1BEA8;}
	.st141{fill:#FDE2D6;}
	.st142{fill:#E7F3F6;}
	.st143{fill:#FCDFD2;}
	.st144{fill:#F3D0B4;}
	.st145{fill:#FBD3C2;}
	.st146{fill:#F9E9DF;}
	.st147{fill:#F0C7A5;}
	.st148{fill:#FAE8DC;}
	.st149{fill:#FCE9DD;}
	.st150{fill:#E6AA77;}
	.st151{fill:#E0EFF3;}
	.st152{fill:#F8E7DD;}
	.st153{fill:#E7AD7B;}
	.st154{fill:#D6E8ED;}
	.st155{fill:#F7E6DC;}
	.st156{fill:#FAD0BF;}
	.st157{fill:#E8B488;}
	.st158{fill:#DEA26E;}
	.st159{fill:#F2C3B0;}
	.st160{fill:#EFC6A1;}
	.st161{fill:#EEC6A5;}
	.st162{fill:#E4AA78;}
	.st163{fill:#F3E2D7;}
	.st164{fill:#E5AE7F;}
	.st165{fill:#EABB93;}
	.st166{fill:#F5E3D9;}
	.st167{fill:#E9B78C;}
	.st168{fill:#F5ECE7;}
	.st169{fill:#F5CDBC;}
	.st170{fill:#693520;}
	.st171{fill:#EEC4A1;}
	.st172{fill:#EABF9A;}
	.st173{fill:#EBBC94;}
	.st174{fill:#D6E5E9;}
	.st175{fill:#E6B07E;}
	.st176{fill:#E9BA92;}
	.st177{fill:#E7B285;}
	.st178{fill:#E6B7A6;}
	.st179{fill:#E1B1A1;}
	.st180{fill:#B6BDB9;}
	.st181{fill:#BCBABB;}
	.st182{fill:#CC9466;}
	.st183{fill:#CC9F8C;}
	.st184{fill:#C0C7C4;}
	.st185{fill:#BB9587;}
	.st186{fill:#FCFBFB;}
	.st187{fill:#F7F5F4;}
	.st188{fill:#FAC2B8;}
	.st189{fill:#622E1F;}
	.st190{fill:#FABCB1;}
	.st191{fill:#FEEDE5;}
	.st192{fill:#622E1E;}
	.st193{fill:#FABEB4;}
	.st194{fill:#FAC1B6;}
	.st195{fill:#623020;}
	.st196{fill:#FBFAF9;}
	.st197{fill:#653223;}
	.st198{fill:#FDF9F6;}
	.st199{fill:#FFF3EC;}
	.st200{fill:#FEF1E9;}
	.st201{fill:#FCCDBA;}
	.st202{fill:#67392B;}
	.st203{fill:#FFF3ED;}
	.st204{fill:#653627;}
	.st205{fill:#FBC7B1;}
	.st206{fill:#FEF4EF;}
	.st207{fill:#F1CAAA;}
	.st208{fill:#82543C;}
	.st209{fill:#ECBD94;}
	.st210{fill:#EEC49E;}
	.st211{fill:#7A4B30;}
	.st212{fill:#F1AF95;}
	.st213{fill:#F0AF95;}
	.st214{fill:none;stroke:#000000;stroke-width:8;stroke-linecap:round;stroke-miterlimit:10;}
	.st215{fill:none;stroke:#000000;stroke-width:8;stroke-miterlimit:10;}
</style>
<g>
	<path class="st77" d="M142,102.8c0-5.5,1.6-11.2,5.7-15.1c4.6-4.3,11.4-5.1,17.4-4.9c5.2,0.1,12.4,0.9,16.2,5.1
		c3.4,3.8,3.6,10,3,14.7c-1.3,10.8-7.6,26.8-20.9,25.8c-0.2,0-0.3-0.2-0.3-0.4c-0.4,0.1-0.8,0.1-1.2,0c-0.3,0-0.7,0-1,0
		c0,0.1-0.1,0.1-0.1,0.1c-0.1,0-0.2,0-0.3,0c-0.1,0-0.1,0-0.2,0c-0.1,0-0.2,0-0.2-0.1c-5.7-0.6-10-4.6-13.5-8.9
		C142.9,114.6,142,108.7,142,102.8z M146.8,118.1c3.6,4.7,7.6,8.3,13.4,9.6c0.3,0,0.7,0,1,0c-0.4-0.3-0.7-0.6-0.9-1.1
		c-0.2-0.7-0.1-1.5,0.3-2c-5.4-1.3-9.1-7.6-4.7-12.3c3.1-3.3,12.2-5,16.2-1.9c0.1-0.2,0.4-0.2,0.5-0.1c2.6,2.4,1.7,6,0,8.7
		c-1.2,1.9-3,3.5-5,4.5c-1.8,0.8-3.7,0.8-5.6,1c-0.7,0.4-1.1,1.1-0.9,2c0.2,0.9,1.2,1.5,2.1,1.5c0,0,0.1-0.1,0.2-0.1
		c12.2,0.1,17.8-13.2,19.7-23.4c1-5.3,1.1-12.8-3.4-16.7c-3.8-3.3-10.4-3.9-15.2-4c-5.6-0.1-11.8,0.7-16.1,4.7
		c-4.3,4-5.6,10-5.4,15.7C143.1,109,143.8,114.2,146.8,118.1z M162,123.7c0.1,0,0.2,0,0.3,0.1c2-0.9,4.3-0.7,6.2-2
		c3.3-2.2,6-6.5,4.1-10.2c-3.4-2.6-9-1.8-12.8-0.4c-7.2,2.6-5.5,11.1,1.3,12.9c0,0,0,0,0,0C161.4,123.9,161.7,123.7,162,123.7z"/>
	<path class="st77" d="M162.2,126.4c-0.3-0.6,0.1-1.3,0.6-1.5c0.6-0.3,1.2-0.1,1.5,0.4c0.3,0.5,0.2,1.2-0.3,1.5
		c-0.1,0.1-0.3,0-0.3-0.1C163.2,126.9,162.5,126.9,162.2,126.4z M162.9,126.1c0.3,0.1,0.7,0,0.9-0.1c0-0.3-0.2-0.6-0.6-0.5
		C163,125.6,162.6,126,162.9,126.1z"/>
	<path class="st77" d="M159.2,98.1c1.4-0.9,2.8-1.9,4.1-2.8c0.1,0,0.1-0.1,0.2-0.1c0.1-1.8,0.4-3.6,0.9-5.3c0.1-0.2,0.3-0.4,0.5-0.4
		c1.8,0.2,3.1,2.5,4,4c1.6-0.8,3.2-1.5,4.9-2.1c0.4-0.1,0.7,0.3,0.5,0.6c-0.7,1.5-1.7,2.9-2.9,4c1,1.1,1.8,2.4,2.5,3.6
		c0.1,0.2,0,0.5-0.3,0.6c-1.7,0.1-3.7,0-5.3-0.7c-0.7,1.4-1.6,2.7-2.8,3.8c-0.2,0.2-0.5,0.1-0.6-0.2c-0.2-1.4-0.4-2.7-0.5-4
		c-1.7,0-3.5-0.2-5.2-0.3C159,98.8,159,98.3,159.2,98.1z M160.6,98.2c1.4,0.1,2.8,0.2,4.1,0.4c0,0,0.1,0,0.1,0.1
		c0.2,0,0.4,0.1,0.4,0.3c0.1,1.2,0.2,2.4,0.3,3.5c0.9-1,1.7-2.1,2.4-3.2c0.1-0.2,0.3-0.2,0.4-0.1c0.1,0,0.1-0.1,0.2,0
		c1.5,0.2,3,0.4,4.5,0.5c-0.6-1.1-1.4-2-2.1-3.1c-0.1-0.1-0.1-0.2,0-0.3c-0.1-0.1-0.2-0.2-0.1-0.4c0.7-1,1.5-2,2.1-3
		c-1.3,0.5-2.5,1-3.7,1.5c-0.2,0.1-0.3,0-0.4-0.1c0,0-0.1,0-0.1,0c-0.7-0.6-1.2-1.3-1.8-1.9c-0.5-0.6-1-1.4-1.7-1.6
		c-0.5,1.6-0.8,3.3-0.9,5c0,0.2-0.2,0.3-0.3,0.4c0,0.1-0.1,0.1-0.1,0.2C162.8,96.8,161.7,97.5,160.6,98.2z"/>
	<path class="st77" d="M163.4,92.2c0.1-0.3,0-0.7,0.1-1.1c0-0.4,0.1-0.7,0.2-1.1c0.1-0.2-0.3-0.3-0.3-0.1c-0.2,0.7-0.5,1.5-0.3,2.3
		C163.1,92.4,163.3,92.4,163.4,92.2z"/>
	<path class="st77" d="M162.5,92.3c0.1-0.5,0.1-0.9,0.2-1.4c0-0.3-0.3-0.4-0.4-0.1c-0.1,0.5-0.3,0.9-0.4,1.4
		C161.7,92.5,162.4,92.7,162.5,92.3z"/>
	<path class="st77" d="M173.8,118.3c0.9-0.8,1.4-2,1.4-3.1c0-0.2-0.3-0.2-0.4,0c-0.2,1.1-0.7,1.9-1.4,2.8
		C173.4,118.2,173.6,118.5,173.8,118.3z"/>
	<path class="st77" d="M174.1,119.3c0.7-0.4,1.2-1.2,1.4-1.9c0.1-0.3-0.3-0.5-0.5-0.2c-0.4,0.7-0.9,1.2-1.3,1.7
		C173.5,119.1,173.8,119.4,174.1,119.3z"/>
	<path class="st77" d="M156.3,123.4c0.2,0.1,0.4-0.2,0.2-0.3c-0.4-0.3-0.7-0.6-1-0.9c-0.3-0.3-0.4-0.7-0.7-1
		c-0.2-0.2-0.6-0.1-0.5,0.2C154.6,122.2,155.5,123,156.3,123.4z"/>
	<path class="st77" d="M154.4,123.2c0.2,0.1,0.3-0.2,0.2-0.3c-0.2-0.2-0.5-0.5-0.6-0.8c-0.2-0.3-0.2-0.6-0.4-0.9
		c-0.2-0.2-0.5-0.1-0.5,0.2C153.1,122.1,153.9,122.9,154.4,123.2z"/>
	<path class="st77" d="M178.2,88.1c0.7,0.4,1.2,0.8,1.8,1.3c0.2,0.2,0.6-0.1,0.4-0.3c-0.5-0.7-1.3-1.2-2-1.4
		C178.1,87.6,178,88,178.2,88.1z"/>
	<path class="st77" d="M179,90.7c0.2,0.3,0.7,0,0.5-0.3c-0.3-0.5-0.6-1-1-1.4c-0.2-0.3-0.6,0-0.4,0.3
		C178.3,89.8,178.6,90.3,179,90.7z"/>
</g>
<g>
	<path class="st77" d="M110.4,81c6.6-4,13.4,0.9,17.5,6.3c4,5.2,5.8,11.4,1.2,16.7c-6.6,7.6-15,15.3-23.3,21.1
		c0.3,1.1,0.2,2.1-0.9,3.2c-2.4,2.6-5.5,4.9-9.1,5.2c-0.1,0-0.2,0-0.2-0.1c-0.1,0-0.2,0-0.2-0.1c-0.1-0.2-0.2-0.4-0.2-0.6
		c0,0.2-0.1,0.3-0.3,0.3c-2.8-0.6-5.7-2.2-7.8-4.2c-1.9,0-3.2,4.1-4.1,5.3c-0.9,1.3-2,2.6-3.6,3.1c-2.1,0.8-4.6,0.1-6.2-1.5
		c-1.9-2-2.1-5.2-0.8-7.6c2.1-3.9,6.6-2,9.3-4.9c-1.2-1.5-2.2-3.2-3.2-4.8c-0.8-1.4-1.5-2.7-1.4-4.3c0,0,0-0.1,0-0.1
		c0-0.1,0-0.1,0-0.2c0.9-3.8,3.6-9.1,7.7-10.3c0.1,0,0.2,0,0.3,0.1c0,0,0,0,0.1,0c0-0.2,0-0.3,0.1-0.5
		C92.6,95.2,101.1,86.6,110.4,81z M95.1,132.6c-3.4-7.7-8.2-13.8-16.1-17.5c-0.1-0.1-0.2-0.1-0.2-0.2c-0.2-0.1-0.5-0.2-0.7-0.3
		c0.3,3,3,5.9,4.4,8.4c0,0,0,0,0,0.1c0.2,0.2,0.3,0.4,0.1,0.6c-1.3,1.6-2.6,2.1-4.6,2.5c-2.5,0.5-3.9,0.7-4.9,3
		c-0.4,0.9-0.5,2.2-0.3,3.1c0.4,2.4,2.3,4,4.6,4.1c4.5,0.2,5.1-4.6,7.2-7.3c0.6-0.8,1.3-1.2,2.1-1.1c0.1-0.2,0.4-0.3,0.6-0.2
		c2.5,1.9,4.8,3.4,7.7,4.7C95,132.5,95.1,132.6,95.1,132.6z M104,126.2c0.5-3.2-2.3-6.6-4.1-9.1c-1.7-2.4-3.6-4.5-5.7-6.5
		c-2.3-2.2-5.6-5.6-8.9-6c-0.2,0-0.4-0.2-0.4-0.3c-3.5,2-5.6,5.7-6.8,9.5c0.4,0.1,0.7,0.3,1,0.5c0.1,0,0.2,0,0.3,0
		c7.6,3.7,14.1,10.3,16.3,18.7c0,0,0,0,0,0C99,131.8,103.4,129.9,104,126.2z M86.1,103.7c3.4,0.8,6.4,3.9,8.8,6.2
		c3.5,3.3,6.4,7.2,8.8,11.3c0.7,1.2,1.4,2.2,1.8,3.2c0.5-0.4,0.9-0.9,1.4-1.3c0,0-0.1-0.1-0.1-0.1c-0.2-1.2-0.3-2.4-0.7-3.7
		c-0.1-0.3,0.4-0.5,0.5-0.2c0.4,1.1,0.6,2.4,0.6,3.6c1-0.9,2-1.8,3-2.7c0-0.7-0.1-1.4-0.5-2.1c-0.2-0.3,0.4-0.6,0.5-0.2
		c0.3,0.6,0.4,1.3,0.4,2c0.8-0.7,1.6-1.4,2.4-2c0-1.3-0.3-2.4-0.9-3.5c-0.2-0.3,0.3-0.6,0.5-0.3c0.6,1,0.9,2.2,0.9,3.4
		c0.9-0.7,1.7-1.5,2.6-2.2c0.1-0.8-0.1-1.5-0.4-2.2c-0.1-0.3,0.3-0.5,0.5-0.2c0.3,0.7,0.4,1.4,0.4,2.1c0.7-0.6,1.4-1.2,2.1-1.8
		c-0.2-1.4-0.5-2.7-1.1-3.9c-0.2-0.3,0.3-0.6,0.5-0.3c0.6,1.2,1,2.4,1.1,3.8c0.8-0.7,1.6-1.4,2.3-2.1c0-0.2-0.1-0.5-0.1-0.7
		c-0.1-0.4-0.3-0.8-0.5-1.2c-0.1-0.2,0.2-0.4,0.4-0.2c0.4,0.5,0.5,1.1,0.6,1.7c0.2-0.2,0.4-0.4,0.6-0.6c0.4-0.4,0.8-0.8,1.2-1.2
		c-0.1-1.2-0.4-2.3-0.9-3.4c-0.1-0.3,0.3-0.6,0.5-0.2c0.5,1,0.8,2.1,0.9,3.2c0.7-0.7,1.4-1.3,2.1-2c-0.1-0.6-0.2-1.2-0.3-1.8
		c0-0.2,0.3-0.4,0.4-0.1c0.2,0.5,0.3,1,0.3,1.5c0.5-0.5,1-1,1.4-1.6c0.1-1.4-0.3-2.5-0.8-3.8c-0.1-0.3,0.2-0.5,0.4-0.3
		c0.7,1,1,2.2,0.9,3.5c0.7-0.9,1.3-1.8,1.7-2.9c1.8-4.4-0.5-9-3.2-12.5c-2.4-3.2-7-7.6-11.4-7.5c-4.8,0.1-9.1,4.5-12.6,7.4
		C97.1,92.7,91.5,98.1,86.1,103.7z"/>
	<path class="st77" d="M73.4,133.1c0.1,0.3,0.5,0.2,0.5-0.1c-0.3-1.3-0.1-2.4,0.2-3.6c0.1-0.2-0.3-0.4-0.4-0.2
		C73.1,130.3,73.1,131.8,73.4,133.1z"/>
	<path class="st77" d="M74.2,130c-0.2,0.5-0.2,1.2-0.1,1.7c0,0.2,0.4,0.2,0.4,0c0-0.6,0.1-1.1,0.2-1.6
		C74.7,129.8,74.3,129.8,74.2,130z"/>
	<path class="st77" d="M91.3,127.4c0.3,1.1,1,2.3,1.5,3.3c0.1,0.2,0.4,0.1,0.4-0.2c-0.4-1.1-0.8-2.3-1.5-3.3
		C91.5,127,91.2,127.2,91.3,127.4z"/>
	<path class="st77" d="M90.1,127.5c0.3,0.6,0.8,1.3,1.2,1.9c0.1,0.2,0.4,0.1,0.3-0.2c-0.3-0.6-0.7-1.3-1-1.9
		C90.4,127,90,127.2,90.1,127.5z"/>
	<path class="st77" d="M90.2,104.7c1,0.4,1.7,1.1,2.5,1.9c0.1,0.1,0.4,0,0.3-0.2c-0.6-1-1.6-1.7-2.6-2.1
		C90,104.2,89.9,104.6,90.2,104.7z"/>
	<path class="st77" d="M89.8,103.5c0.8,0.3,1.4,0.7,1.9,1.4c0.2,0.2,0.5,0,0.4-0.3c-0.5-0.8-1.2-1.4-2.1-1.7
		C89.6,102.9,89.5,103.4,89.8,103.5z"/>
	<path class="st77" d="M127.1,89.5c0.5,0.9,1.1,1.8,1.4,2.8c0.1,0.2,0.3,0.1,0.3-0.1c-0.3-1-0.7-2-1.3-2.9
		C127.3,89.1,127,89.3,127.1,89.5z"/>
	<path class="st77" d="M125.4,88.9c0.7,0.7,1.3,1.5,1.8,2.4c0.1,0.2,0.4,0.1,0.3-0.2c-0.4-0.9-1-1.8-1.7-2.5
		C125.5,88.3,125.1,88.6,125.4,88.9z"/>
</g>
<g>
	<path class="st77" d="M178.2,169.1c3,7.1-2.9,13.1-8.8,16.4c-5.7,3.2-12.1,4.1-16.7-1.3c-6.6-7.7-12.9-17.1-17.4-26.1
		c-1.1,0.1-2.1-0.1-3.1-1.3c-2.2-2.8-4.1-6.2-3.8-9.8c0-0.1,0.1-0.2,0.2-0.2c0-0.1,0-0.2,0.1-0.2c0.2-0.1,0.4-0.1,0.6-0.2
		c-0.2,0-0.3-0.1-0.2-0.3c1.1-2.7,3-5.3,5.3-7.1c0.3-1.9-3.5-3.7-4.7-4.8c-1.1-1.1-2.2-2.4-2.6-4c-0.5-2.2,0.5-4.6,2.4-5.9
		c2.3-1.6,5.4-1.3,7.6,0.3c3.6,2.7,1,6.8,3.5,10c1.7-1,3.5-1.7,5.2-2.4c1.5-0.6,2.9-1.1,4.5-0.8c0,0,0.1,0,0.1,0c0.1,0,0.1,0,0.2,0
		c3.6,1.4,8.5,4.9,9,9.1c0,0.1,0,0.2-0.1,0.3c0,0,0,0,0,0.1c0.2,0,0.3,0,0.5,0.2C166.7,149.4,173.9,159.1,178.2,169.1z M129.3,146.3
		c8.1-2.3,14.8-6.1,19.6-13.3c0.1-0.1,0.2-0.2,0.2-0.2c0.2-0.2,0.3-0.4,0.4-0.7c-3-0.2-6.3,2.1-9,3.1c0,0-0.1,0-0.1,0
		c-0.2,0.2-0.5,0.2-0.7,0c-1.4-1.5-1.7-2.9-1.8-4.9c-0.1-2.5-0.1-3.9-2.2-5.3c-0.8-0.5-2.1-0.8-3-0.8c-2.4,0-4.3,1.7-4.7,4
		c-0.8,4.4,3.8,5.7,6.2,8.2c0.7,0.7,1,1.4,0.8,2.3c0.2,0.2,0.3,0.4,0.1,0.6c-2.2,2.2-4.1,4.3-5.8,6.9
		C129.4,146.3,129.4,146.3,129.3,146.3z M134.3,156.1c3.1,1,6.8-1.3,9.6-2.7c2.6-1.3,5-2.9,7.3-4.7c2.5-1.9,6.3-4.7,7.3-7.9
		c0.1-0.2,0.2-0.3,0.4-0.4c-1.5-3.8-4.8-6.4-8.4-8.1c-0.2,0.4-0.4,0.7-0.7,0.9c0,0.1,0,0.2-0.1,0.3c-4.8,7-12.3,12.4-20.9,13.4
		c0,0,0,0,0,0C129.5,150.3,130.8,155,134.3,156.1z M159.3,141.7c-1.3,3.3-4.8,5.7-7.4,7.8c-3.8,2.9-8,5.3-12.5,7
		c-1.3,0.5-2.4,1.1-3.5,1.3c0.4,0.5,0.7,1,1.1,1.6c0,0,0.1,0,0.1,0c1.3,0,2.5,0,3.7-0.1c0.3,0,0.4,0.5,0.1,0.5
		c-1.2,0.2-2.4,0.3-3.6,0.1c0.8,1.1,1.5,2.2,2.3,3.4c0.7,0.1,1.4,0.1,2.2-0.2c0.3-0.1,0.5,0.4,0.2,0.5c-0.6,0.2-1.3,0.2-2,0.2
		c0.6,0.9,1.1,1.8,1.7,2.7c1.3,0.2,2.4,0,3.6-0.4c0.4-0.1,0.5,0.4,0.2,0.6c-1.1,0.4-2.3,0.5-3.5,0.4c0.6,1,1.2,1.9,1.8,2.9
		c0.7,0.2,1.5,0.1,2.2-0.1c0.3-0.1,0.5,0.4,0.2,0.5c-0.7,0.2-1.4,0.2-2.1,0c0.5,0.8,1,1.5,1.5,2.3c1.4,0,2.7-0.1,4-0.6
		c0.3-0.1,0.5,0.4,0.2,0.5c-1.3,0.4-2.6,0.6-3.9,0.5c0.6,0.9,1.1,1.7,1.7,2.6c0.2,0,0.5,0,0.7,0c0.4,0,0.8-0.2,1.2-0.3
		c0.2,0,0.4,0.3,0.2,0.4c-0.5,0.3-1.2,0.4-1.8,0.3c0.2,0.2,0.3,0.5,0.5,0.7c0.3,0.4,0.6,0.9,1,1.4c1.2,0.1,2.3-0.1,3.5-0.4
		c0.3-0.1,0.5,0.4,0.2,0.5c-1.1,0.4-2.2,0.5-3.3,0.4c0.5,0.8,1.1,1.6,1.7,2.4c0.6,0,1.2,0,1.8,0c0.2,0,0.3,0.4,0.1,0.4
		c-0.5,0.1-1,0.1-1.5,0.1c0.4,0.6,0.9,1.1,1.3,1.6c1.3,0.2,2.6,0.1,3.9-0.2c0.3-0.1,0.5,0.3,0.2,0.5c-1.1,0.6-2.4,0.6-3.6,0.4
		c0.8,0.8,1.6,1.6,2.6,2.1c4,2.4,9,0.8,12.8-1.3c3.5-1.9,8.6-5.8,9.1-10.2c0.6-4.8-3.1-9.6-5.4-13.6
		C168.5,154.2,164,147.9,159.3,141.7z"/>
	<path class="st77" d="M132.1,124.9c-0.3,0-0.3,0.5,0,0.5c1.3-0.1,2.4,0.3,3.5,0.7c0.2,0.1,0.5-0.2,0.3-0.4
		C134.8,124.9,133.4,124.7,132.1,124.9z"/>
	<path class="st77" d="M135,126c-0.5-0.3-1.1-0.3-1.7-0.3c-0.2,0-0.2,0.3,0,0.4c0.5,0.1,1,0.3,1.6,0.5
		C135.1,126.6,135.2,126.2,135,126z"/>
	<path class="st77" d="M135.1,143.3c-1.2,0.1-2.4,0.6-3.5,1c-0.2,0.1-0.1,0.4,0.1,0.4c1.1-0.2,2.4-0.5,3.5-1
		C135.4,143.7,135.3,143.3,135.1,143.3z"/>
	<path class="st77" d="M135.1,142.2c-0.7,0.2-1.4,0.6-2,0.9c-0.2,0.1-0.1,0.4,0.1,0.3c0.7-0.2,1.4-0.5,2.1-0.7
		C135.6,142.5,135.4,142.1,135.1,142.2z"/>
	<path class="st77" d="M157.6,145.6c-0.6,0.9-1.3,1.6-2.2,2.2c-0.2,0.1,0,0.4,0.1,0.3c1-0.5,1.9-1.3,2.5-2.3
		C158.2,145.5,157.8,145.3,157.6,145.6z"/>
	<path class="st77" d="M158.9,145.4c-0.4,0.7-0.9,1.3-1.6,1.7c-0.2,0.1,0,0.5,0.2,0.4c0.8-0.4,1.6-1,2-1.9
		C159.6,145.3,159.1,145.1,158.9,145.4z"/>
	<path class="st77" d="M167.2,184.3c-1,0.4-1.9,0.8-2.9,1c-0.2,0-0.1,0.3,0.1,0.3c1.1-0.1,2.1-0.4,3.1-0.9
		C167.7,184.6,167.5,184.2,167.2,184.3z"/>
	<path class="st77" d="M168.1,182.7c-0.8,0.6-1.7,1-2.6,1.4c-0.2,0.1-0.1,0.4,0.1,0.4c1-0.3,1.9-0.7,2.8-1.3
		C168.7,183,168.4,182.5,168.1,182.7z"/>
</g>
<g>
	<path class="st77" d="M121.3,169.7c-0.3,5.5-2.2,11.1-6.6,14.7c-4.9,4-11.7,4.4-17.6,3.8c-5.2-0.5-12.4-1.7-15.8-6.1
		c-3.1-4-3-10.2-2.1-14.8c2-10.7,9.3-26.3,22.4-24.5c0.2,0,0.3,0.2,0.3,0.4c0.4-0.1,0.8-0.1,1.2,0.1c0.3,0,0.7,0.1,1,0
		c0-0.1,0.1-0.1,0.2-0.1c0.1,0,0.2,0,0.3,0c0.1,0,0.1,0,0.2,0c0.1,0,0.2,0,0.2,0.1c5.6,0.9,9.7,5.2,12.9,9.7
		C121,157.9,121.6,163.9,121.3,169.7z M117.3,154.1c-3.3-4.9-7.1-8.7-12.8-10.4c-0.3,0-0.7,0-1,0c0.4,0.3,0.7,0.7,0.8,1.2
		c0.2,0.7,0,1.5-0.4,2c5.3,1.7,8.7,8.2,4,12.6c-3.3,3.1-12.4,4.3-16.3,0.9c-0.1,0.1-0.4,0.2-0.5,0c-2.4-2.6-1.4-6.1,0.6-8.7
		c1.4-1.8,3.2-3.3,5.3-4.1c1.9-0.7,3.7-0.5,5.6-0.7c0.7-0.4,1.2-1,1-1.9c-0.2-0.9-1.1-1.5-2-1.6c-0.1,0-0.1,0.1-0.2,0.1
		c-12.2-0.9-18.6,12-21.1,22.2c-1.3,5.2-1.9,12.7,2.3,16.8c3.6,3.5,10.2,4.6,15,4.9c5.6,0.4,11.8,0,16.3-3.7
		c4.5-3.8,6.2-9.7,6.3-15.4C120.5,163.5,120.1,158.3,117.3,154.1z M102.6,147.7c-0.1,0-0.2-0.1-0.3-0.2c-2.1,0.7-4.3,0.5-6.3,1.6
		c-3.4,2-6.4,6.1-4.7,10c3.2,2.8,8.9,2.4,12.7,1.2c7.4-2.2,6.2-10.8-0.5-13c0,0,0,0,0,0C103.2,147.5,102.9,147.6,102.6,147.7z"/>
	<path class="st77" d="M102.5,144.9c0.3,0.6-0.2,1.3-0.7,1.5c-0.6,0.2-1.2,0-1.5-0.5c-0.2-0.5-0.1-1.2,0.4-1.5
		c0.1-0.1,0.3,0,0.3,0.1C101.6,144.4,102.3,144.4,102.5,144.9z M101.8,145.2c-0.3-0.1-0.7,0-0.9,0c0,0.3,0.2,0.6,0.6,0.5
		C101.7,145.7,102.1,145.4,101.8,145.2z"/>
	<path class="st77" d="M90.4,152.3c-1,0.7-1.5,1.9-1.6,3c0,0.2,0.3,0.3,0.4,0.1c0.3-1.1,0.8-1.9,1.5-2.7
		C90.9,152.5,90.6,152.1,90.4,152.3z"/>
	<path class="st77" d="M90.2,151.3c-0.7,0.4-1.2,1.1-1.6,1.8c-0.1,0.3,0.3,0.6,0.5,0.3c0.4-0.7,0.9-1.1,1.4-1.6
		C90.8,151.6,90.5,151.2,90.2,151.3z"/>
	<path class="st77" d="M108.3,148.3c-0.2-0.1-0.4,0.2-0.2,0.3c0.3,0.3,0.7,0.6,0.9,1c0.2,0.3,0.4,0.7,0.6,1.1
		c0.2,0.3,0.6,0.1,0.5-0.2C109.9,149.6,109,148.8,108.3,148.3z"/>
	<path class="st77" d="M110.1,148.6c-0.2-0.1-0.4,0.1-0.2,0.3c0.2,0.3,0.4,0.5,0.6,0.8c0.1,0.3,0.2,0.6,0.4,0.9
		c0.2,0.2,0.5,0.2,0.5-0.1C111.4,149.8,110.6,149,110.1,148.6z"/>
	<path class="st77" d="M105.3,169.5c1,3.3-3.1,6.3-5.8,7c-0.2,0.1-0.4-0.1-0.5-0.3c-2.7-1-6.4-3.5-4.8-6.9c1.2-2.6,4.3-2,5.6,0
		c0.7-1.2,1.7-2.4,3.2-2.1C104.1,167.5,105,168.4,105.3,169.5z M103.4,168.5c-1.3-0.7-2.6,0.7-3.4,1.7c-0.1,0.2-0.3,0.4-0.5,0.2
		c-0.6-0.6-1.3-1.4-2.1-1.6c-1.6-0.4-2.5,1.3-2.3,2.7c0.3,2.1,2.5,3.2,4.1,4.2c1.9-0.9,4-1.9,4.9-3.9
		C104.6,170.6,104.5,169.1,103.4,168.5z"/>
	<path class="st77" d="M106.6,169.2c0.4,1,0.4,2.2-0.3,3.1c-0.1,0.2,0.2,0.4,0.4,0.2c0.8-1.1,0.9-2.4,0.4-3.6
		C106.9,168.6,106.4,168.8,106.6,169.2z"/>
	<path class="st77" d="M108.1,168.4c0.1,0.8,0.2,1.4-0.1,2.2c-0.1,0.2,0.3,0.4,0.4,0.2c0.3-0.8,0.5-1.7,0.3-2.5
		C108.6,167.9,108,168.1,108.1,168.4z"/>
</g>
<g>
	<g>
		<path class="st77" d="M27.3,102.8c0-5.5,1.6-11.2,5.7-15.1c4.6-4.3,11.4-5.1,17.4-4.9c5.2,0.1,12.4,0.9,16.2,5.1
			c3.4,3.8,3.6,10,3,14.7c-1.3,10.8-7.6,26.8-20.9,25.8c-0.2,0-0.3-0.2-0.3-0.4c-0.4,0.1-0.8,0.1-1.2,0c-0.3,0-0.7,0-1,0
			c0,0.1-0.1,0.1-0.1,0.1c-0.1,0-0.2,0-0.3,0c-0.1,0-0.1,0-0.2,0c-0.1,0-0.2,0-0.2-0.1c-5.7-0.6-10-4.6-13.5-8.9
			C28.2,114.6,27.3,108.7,27.3,102.8z M32.1,118.1c3.6,4.7,7.6,8.3,13.4,9.6c0.3,0,0.7,0,1,0c-0.4-0.3-0.7-0.6-0.9-1.1
			c-0.2-0.7-0.1-1.5,0.3-2c-5.4-1.3-9.1-7.6-4.7-12.3c3.1-3.3,12.2-5,16.2-1.9c0.1-0.2,0.4-0.2,0.5-0.1c2.6,2.4,1.7,6,0,8.7
			c-1.2,1.9-3,3.5-5,4.5c-1.8,0.8-3.7,0.8-5.6,1c-0.7,0.4-1.1,1.1-0.9,2c0.2,0.9,1.2,1.5,2.1,1.5c0,0,0.1-0.1,0.2-0.1
			c12.2,0.1,17.8-13.2,19.7-23.4c1-5.3,1.1-12.8-3.4-16.7c-3.8-3.3-10.4-3.9-15.2-4c-5.6-0.1-11.8,0.7-16.1,4.7
			c-4.3,4-5.6,10-5.4,15.7C28.4,109,29.1,114.2,32.1,118.1z M47.3,123.7c0.1,0,0.2,0,0.3,0.1c2-0.9,4.3-0.7,6.2-2
			c3.3-2.2,6-6.5,4.1-10.2c-3.4-2.6-9-1.8-12.8-0.4c-7.2,2.6-5.5,11.1,1.3,12.9c0,0,0,0,0,0C46.7,123.9,47,123.7,47.3,123.7z"/>
		<path class="st77" d="M44.5,98.1c1.4-0.9,2.8-1.9,4.1-2.8c0.1,0,0.1-0.1,0.2-0.1c0.1-1.8,0.4-3.6,0.9-5.3c0.1-0.2,0.3-0.4,0.5-0.4
			c1.8,0.2,3.1,2.5,4,4c1.6-0.8,3.2-1.5,4.9-2.1c0.4-0.1,0.7,0.3,0.5,0.6c-0.7,1.5-1.7,2.9-2.9,4c1,1.1,1.8,2.4,2.5,3.6
			c0.1,0.2,0,0.5-0.3,0.6c-1.7,0.1-3.7,0-5.3-0.7c-0.7,1.4-1.6,2.7-2.8,3.8c-0.2,0.2-0.5,0.1-0.6-0.2c-0.2-1.4-0.4-2.7-0.5-4
			c-1.7,0-3.5-0.2-5.2-0.3C44.3,98.8,44.3,98.3,44.5,98.1z M45.9,98.2c1.4,0.1,2.8,0.2,4.1,0.4c0,0,0.1,0,0.1,0.1
			c0.2,0,0.4,0.1,0.4,0.3c0.1,1.2,0.2,2.4,0.3,3.5c0.9-1,1.7-2.1,2.4-3.2c0.1-0.2,0.3-0.2,0.4-0.1c0.1,0,0.1-0.1,0.2,0
			c1.5,0.2,3,0.4,4.5,0.5c-0.6-1.1-1.4-2-2.1-3.1c-0.1-0.1-0.1-0.2,0-0.3c-0.1-0.1-0.2-0.2-0.1-0.4c0.7-1,1.5-2,2.1-3
			c-1.3,0.5-2.5,1-3.7,1.5c-0.2,0.1-0.3,0-0.4-0.1c0,0-0.1,0-0.1,0c-0.7-0.6-1.2-1.3-1.8-1.9c-0.5-0.6-1-1.4-1.7-1.6
			c-0.5,1.6-0.8,3.3-0.9,5c0,0.2-0.2,0.3-0.3,0.4c0,0.1-0.1,0.1-0.1,0.2C48,96.8,47,97.5,45.9,98.2z"/>
		<path class="st77" d="M59.1,118.3c0.9-0.8,1.4-2,1.4-3.1c0-0.2-0.3-0.2-0.4,0c-0.2,1.1-0.7,1.9-1.4,2.8
			C58.6,118.2,58.9,118.5,59.1,118.3z"/>
		<path class="st77" d="M59.4,119.3c0.7-0.4,1.2-1.2,1.4-1.9c0.1-0.3-0.3-0.5-0.5-0.2c-0.4,0.7-0.9,1.2-1.3,1.7
			C58.8,119.1,59.1,119.4,59.4,119.3z"/>
		<path class="st77" d="M63.5,88.1c0.7,0.4,1.2,0.8,1.8,1.3c0.2,0.2,0.6-0.1,0.4-0.3c-0.5-0.7-1.3-1.2-2-1.4
			C63.4,87.6,63.3,88,63.5,88.1z"/>
		<path class="st77" d="M64.3,90.7c0.2,0.3,0.7,0,0.5-0.3c-0.3-0.5-0.6-1-1-1.4c-0.2-0.3-0.6,0-0.4,0.3
			C63.6,89.8,63.9,90.3,64.3,90.7z"/>
	</g>
	<g>
		<path class="st77" d="M63.4,169.1c3,7.1-2.9,13.1-8.8,16.4c-5.7,3.2-12.1,4.1-16.7-1.3c-6.6-7.7-12.9-17.1-17.4-26.1
			c-1.1,0.1-2.1-0.1-3.1-1.3c-2.2-2.8-4.1-6.2-3.8-9.8c0-0.1,0.1-0.2,0.2-0.2c0-0.1,0-0.2,0.1-0.2c0.2-0.1,0.4-0.1,0.6-0.2
			c-0.2,0-0.3-0.1-0.2-0.3c1.1-2.7,3-5.3,5.3-7.1c0.3-1.9-3.5-3.7-4.7-4.8c-1.1-1.1-2.2-2.4-2.6-4c-0.5-2.2,0.5-4.6,2.4-5.9
			c2.3-1.6,5.4-1.3,7.6,0.3c3.6,2.7,1,6.8,3.5,10c1.7-1,3.5-1.7,5.2-2.4c1.5-0.6,2.9-1.1,4.5-0.8c0,0,0.1,0,0.1,0c0.1,0,0.1,0,0.2,0
			c3.6,1.4,8.5,4.9,9,9.1c0,0.1,0,0.2-0.1,0.3c0,0,0,0,0,0.1c0.2,0,0.3,0,0.5,0.2C52,149.4,59.2,159.1,63.4,169.1z M14.6,146.3
			c8.1-2.3,14.8-6.1,19.6-13.3c0.1-0.1,0.2-0.2,0.2-0.2c0.2-0.2,0.3-0.4,0.4-0.7c-3-0.2-6.3,2.1-9,3.1c0,0-0.1,0-0.1,0
			c-0.2,0.2-0.5,0.2-0.7,0c-1.4-1.5-1.7-2.9-1.8-4.9c-0.1-2.5-0.1-3.9-2.2-5.3c-0.8-0.5-2.1-0.8-3-0.8c-2.4,0-4.3,1.7-4.7,4
			c-0.8,4.4,3.8,5.7,6.2,8.2c0.7,0.7,1,1.4,0.8,2.3c0.2,0.2,0.3,0.4,0.1,0.6c-2.2,2.2-4.1,4.3-5.8,6.9
			C14.7,146.3,14.7,146.3,14.6,146.3z M19.6,156.1c3.1,1,6.8-1.3,9.6-2.7c2.6-1.3,5-2.9,7.3-4.7c2.5-1.9,6.3-4.7,7.3-7.9
			c0.1-0.2,0.2-0.3,0.4-0.4c-1.5-3.8-4.8-6.4-8.4-8.1c-0.2,0.4-0.4,0.7-0.7,0.9c0,0.1,0,0.2-0.1,0.3c-4.8,7-12.3,12.4-20.9,13.4
			c0,0,0,0,0,0C14.8,150.3,16.1,155,19.6,156.1z M44.5,141.7c-1.3,3.3-4.8,5.7-7.4,7.8c-3.8,2.9-8,5.3-12.5,7
			c-1.3,0.5-2.4,1.1-3.5,1.3c0.4,0.5,0.7,1,1.1,1.6c0,0,0.1,0,0.1,0c1.3,0,2.5,0,3.7-0.1c0.3,0,0.4,0.5,0.1,0.5
			c-1.2,0.2-2.4,0.3-3.6,0.1c0.8,1.1,1.5,2.2,2.3,3.4c0.7,0.1,1.4,0.1,2.2-0.2c0.3-0.1,0.5,0.4,0.2,0.5c-0.6,0.2-1.3,0.2-2,0.2
			c0.6,0.9,1.1,1.8,1.7,2.7c1.3,0.2,2.4,0,3.6-0.4c0.4-0.1,0.5,0.4,0.2,0.6c-1.1,0.4-2.3,0.5-3.5,0.4c0.6,1,1.2,1.9,1.8,2.9
			c0.7,0.2,1.5,0.1,2.2-0.1c0.3-0.1,0.5,0.4,0.2,0.5c-0.7,0.2-1.4,0.2-2.1,0c0.5,0.8,1,1.5,1.5,2.3c1.4,0,2.7-0.1,4-0.6
			c0.3-0.1,0.5,0.4,0.2,0.5c-1.3,0.4-2.6,0.6-3.9,0.5c0.6,0.9,1.1,1.7,1.7,2.6c0.2,0,0.5,0,0.7,0c0.4,0,0.8-0.2,1.2-0.3
			c0.2,0,0.4,0.3,0.2,0.4c-0.5,0.3-1.2,0.4-1.8,0.3c0.2,0.2,0.3,0.5,0.5,0.7c0.3,0.4,0.6,0.9,1,1.4c1.2,0.1,2.3-0.1,3.5-0.4
			c0.3-0.1,0.5,0.4,0.2,0.5c-1.1,0.4-2.2,0.5-3.3,0.4c0.5,0.8,1.1,1.6,1.7,2.4c0.6,0,1.2,0,1.8,0c0.2,0,0.3,0.4,0.1,0.4
			c-0.5,0.1-1,0.1-1.5,0.1c0.4,0.6,0.9,1.1,1.3,1.6c1.3,0.2,2.6,0.1,3.9-0.2c0.3-0.1,0.5,0.3,0.2,0.5c-1.1,0.6-2.4,0.6-3.6,0.4
			c0.8,0.8,1.6,1.6,2.6,2.1c4,2.4,9,0.8,12.8-1.3c3.5-1.9,8.6-5.8,9.1-10.2c0.6-4.8-3.1-9.6-5.4-13.6
			C53.8,154.2,49.3,147.9,44.5,141.7z"/>
	</g>
</g>
<g>
	<g>
		<path class="st77" d="M178.2,54.3c3,7.1-2.9,13.1-8.8,16.4c-5.7,3.2-12.1,4.1-16.7-1.3c-6.6-7.7-12.9-17.1-17.4-26.1
			c-1.1,0.1-2.1-0.1-3.1-1.3c-2.2-2.8-4.1-6.2-3.8-9.8c0-0.1,0.1-0.2,0.2-0.2c0-0.1,0-0.2,0.1-0.2c0.2-0.1,0.4-0.1,0.6-0.2
			c-0.2,0-0.3-0.1-0.2-0.3c1.1-2.7,3-5.3,5.3-7.1c0.3-1.9-3.5-3.7-4.7-4.8c-1.1-1.1-2.2-2.4-2.6-4c-0.5-2.2,0.5-4.6,2.4-5.9
			c2.3-1.6,5.4-1.3,7.6,0.3c3.6,2.7,1,6.8,3.5,10c1.7-1,3.5-1.7,5.2-2.4c1.5-0.6,2.9-1.1,4.5-0.8c0,0,0.1,0,0.1,0c0.1,0,0.1,0,0.2,0
			c3.6,1.4,8.5,4.9,9,9.1c0,0.1,0,0.2-0.1,0.3c0,0,0,0,0,0.1c0.2,0,0.3,0,0.5,0.2C166.7,34.7,173.9,44.4,178.2,54.3z M129.3,31.6
			c8.1-2.3,14.8-6.1,19.6-13.3c0.1-0.1,0.2-0.2,0.2-0.2c0.2-0.2,0.3-0.4,0.4-0.7c-3-0.2-6.3,2.1-9,3.1c0,0-0.1,0-0.1,0
			c-0.2,0.2-0.5,0.2-0.7,0c-1.4-1.5-1.7-2.9-1.8-4.9c-0.1-2.5-0.1-3.9-2.2-5.3c-0.8-0.5-2.1-0.8-3-0.8c-2.4,0-4.3,1.7-4.7,4
			c-0.8,4.4,3.8,5.7,6.2,8.2c0.7,0.7,1,1.4,0.8,2.3c0.2,0.2,0.3,0.4,0.1,0.6c-2.2,2.2-4.1,4.3-5.8,6.9
			C129.4,31.6,129.4,31.6,129.3,31.6z M134.3,41.4c3.1,1,6.8-1.3,9.6-2.7c2.6-1.3,5-2.9,7.3-4.7c2.5-1.9,6.3-4.7,7.3-7.9
			c0.1-0.2,0.2-0.3,0.4-0.4c-1.5-3.8-4.8-6.4-8.4-8.1c-0.2,0.4-0.4,0.7-0.7,0.9c0,0.1,0,0.2-0.1,0.3c-4.8,7-12.3,12.4-20.9,13.4
			c0,0,0,0,0,0C129.5,35.6,130.8,40.3,134.3,41.4z M159.3,27c-1.3,3.3-4.8,5.7-7.4,7.8c-3.8,2.9-8,5.3-12.5,7
			c-1.3,0.5-2.4,1.1-3.5,1.3c0.4,0.5,0.7,1,1.1,1.6c0,0,0.1,0,0.1,0c1.3,0,2.5,0,3.7-0.1c0.3,0,0.4,0.5,0.1,0.5
			c-1.2,0.2-2.4,0.3-3.6,0.1c0.8,1.1,1.5,2.2,2.3,3.4c0.7,0.1,1.4,0.1,2.2-0.2c0.3-0.1,0.5,0.4,0.2,0.5c-0.6,0.2-1.3,0.2-2,0.2
			c0.6,0.9,1.1,1.8,1.7,2.7c1.3,0.2,2.4,0,3.6-0.4c0.4-0.1,0.5,0.4,0.2,0.6c-1.1,0.4-2.3,0.5-3.5,0.4c0.6,1,1.2,1.9,1.8,2.9
			c0.7,0.2,1.5,0.1,2.2-0.1c0.3-0.1,0.5,0.4,0.2,0.5c-0.7,0.2-1.4,0.2-2.1,0c0.5,0.8,1,1.5,1.5,2.3c1.4,0,2.7-0.1,4-0.6
			c0.3-0.1,0.5,0.4,0.2,0.5c-1.3,0.4-2.6,0.6-3.9,0.5c0.6,0.9,1.1,1.7,1.7,2.6c0.2,0,0.5,0,0.7,0c0.4,0,0.8-0.2,1.2-0.3
			c0.2,0,0.4,0.3,0.2,0.4c-0.5,0.3-1.2,0.4-1.8,0.3c0.2,0.2,0.3,0.5,0.5,0.7c0.3,0.4,0.6,0.9,1,1.4c1.2,0.1,2.3-0.1,3.5-0.4
			c0.3-0.1,0.5,0.4,0.2,0.5c-1.1,0.4-2.2,0.5-3.3,0.4c0.5,0.8,1.1,1.6,1.7,2.4c0.6,0,1.2,0,1.8,0c0.2,0,0.3,0.4,0.1,0.4
			c-0.5,0.1-1,0.1-1.5,0.1c0.4,0.6,0.9,1.1,1.3,1.6c1.3,0.2,2.6,0.1,3.9-0.2c0.3-0.1,0.5,0.3,0.2,0.5c-1.1,0.6-2.4,0.6-3.6,0.4
			c0.8,0.8,1.6,1.6,2.6,2.1c4,2.4,9,0.8,12.8-1.3c3.5-1.9,8.6-5.8,9.1-10.2c0.6-4.8-3.1-9.6-5.4-13.6C168.5,39.5,164,33.2,159.3,27z
			"/>
		<path class="st77" d="M167.2,69.6c-1,0.4-1.9,0.8-2.9,1c-0.2,0-0.1,0.3,0.1,0.3c1.1-0.1,2.1-0.4,3.1-0.9
			C167.7,69.9,167.5,69.5,167.2,69.6z"/>
		<path class="st77" d="M168.1,68c-0.8,0.6-1.7,1-2.6,1.4c-0.2,0.1-0.1,0.4,0.1,0.4c1-0.3,1.9-0.7,2.8-1.3
			C168.7,68.2,168.4,67.8,168.1,68z"/>
	</g>
	<g>
		<path class="st77" d="M121.3,55c-0.3,5.5-2.2,11.1-6.6,14.7c-4.9,4-11.7,4.4-17.6,3.8c-5.2-0.5-12.4-1.7-15.8-6.1
			c-3.1-4-3-10.2-2.1-14.8c2-10.7,9.3-26.3,22.4-24.5c0.2,0,0.3,0.2,0.3,0.4c0.4-0.1,0.8-0.1,1.2,0.1c0.3,0,0.7,0.1,1,0
			c0-0.1,0.1-0.1,0.2-0.1c0.1,0,0.2,0,0.3,0c0.1,0,0.1,0,0.2,0c0.1,0,0.2,0,0.2,0.1c5.6,0.9,9.7,5.2,12.9,9.7
			C121,43.2,121.6,49.2,121.3,55z M117.3,39.4c-3.3-4.9-7.1-8.7-12.8-10.4c-0.3,0-0.7,0-1,0c0.4,0.3,0.7,0.7,0.8,1.2
			c0.2,0.7,0,1.5-0.4,2c5.3,1.7,8.7,8.2,4,12.6c-3.3,3.1-12.4,4.3-16.3,0.9c-0.1,0.1-0.4,0.2-0.5,0c-2.4-2.6-1.4-6.1,0.6-8.7
			c1.4-1.8,3.2-3.3,5.3-4.1c1.9-0.7,3.7-0.5,5.6-0.7c0.7-0.4,1.2-1,1-1.9c-0.2-0.9-1.1-1.5-2-1.6c-0.1,0-0.1,0.1-0.2,0.1
			c-12.2-0.9-18.6,12-21.1,22.2c-1.3,5.2-1.9,12.7,2.3,16.8c3.6,3.5,10.2,4.6,15,4.9c5.6,0.4,11.8,0,16.3-3.7
			c4.5-3.8,6.2-9.7,6.3-15.4C120.5,48.7,120.1,43.6,117.3,39.4z M102.6,33c-0.1,0-0.2-0.1-0.3-0.2c-2.1,0.7-4.3,0.5-6.3,1.6
			c-3.4,2-6.4,6.1-4.7,10c3.2,2.8,8.9,2.4,12.7,1.2c7.4-2.2,6.2-10.8-0.5-13c0,0,0,0,0,0C103.2,32.8,102.9,32.9,102.6,33z"/>
		<path class="st77" d="M105.3,54.8c1,3.3-3.1,6.3-5.8,7c-0.2,0.1-0.4-0.1-0.5-0.3c-2.7-1-6.4-3.5-4.8-6.9c1.2-2.6,4.3-2,5.6,0
			c0.7-1.2,1.7-2.4,3.2-2.1C104.1,52.8,105,53.7,105.3,54.8z M103.4,53.8c-1.3-0.7-2.6,0.7-3.4,1.7c-0.1,0.2-0.3,0.4-0.5,0.2
			C99,55,98.3,54.2,97.4,54c-1.6-0.4-2.5,1.3-2.3,2.7c0.3,2.1,2.5,3.2,4.1,4.2c1.9-0.9,4-1.9,4.9-3.9
			C104.6,55.9,104.5,54.4,103.4,53.8z"/>
		<path class="st77" d="M106.6,54.5c0.4,1,0.4,2.2-0.3,3.1c-0.1,0.2,0.2,0.4,0.4,0.2c0.8-1.1,0.9-2.4,0.4-3.6
			C106.9,53.9,106.4,54.1,106.6,54.5z"/>
		<path class="st77" d="M108.1,53.7c0.1,0.8,0.2,1.4-0.1,2.2c-0.1,0.2,0.3,0.4,0.4,0.2c0.3-0.8,0.5-1.7,0.3-2.5
			C108.6,53.2,108,53.4,108.1,53.7z"/>
	</g>
</g>
<g>
	<g>
		<path class="st77" d="M63.4,54.3c3,7.1-2.9,13.1-8.8,16.4c-5.7,3.2-12.1,4.1-16.7-1.3c-6.6-7.7-12.9-17.1-17.4-26.1
			c-1.1,0.1-2.1-0.1-3.1-1.3c-2.2-2.8-4.1-6.2-3.8-9.8c0-0.1,0.1-0.2,0.2-0.2c0-0.1,0-0.2,0.1-0.2c0.2-0.1,0.4-0.1,0.6-0.2
			c-0.2,0-0.3-0.1-0.2-0.3c1.1-2.7,3-5.3,5.3-7.1c0.3-1.9-3.5-3.7-4.7-4.8c-1.1-1.1-2.2-2.4-2.6-4c-0.5-2.2,0.5-4.6,2.4-5.9
			C17,8,20.2,8.2,22.4,9.8c3.6,2.7,1,6.8,3.5,10c1.7-1,3.5-1.7,5.2-2.4c1.5-0.6,2.9-1.1,4.5-0.8c0,0,0.1,0,0.1,0c0.1,0,0.1,0,0.2,0
			c3.6,1.4,8.5,4.9,9,9.1c0,0.1,0,0.2-0.1,0.3c0,0,0,0,0,0.1c0.2,0,0.3,0,0.5,0.2C52,34.7,59.2,44.4,63.4,54.3z M14.6,31.6
			c8.1-2.3,14.8-6.1,19.6-13.3c0.1-0.1,0.2-0.2,0.2-0.2c0.2-0.2,0.3-0.4,0.4-0.7c-3-0.2-6.3,2.1-9,3.1c0,0-0.1,0-0.1,0
			c-0.2,0.2-0.5,0.2-0.7,0c-1.4-1.5-1.7-2.9-1.8-4.9c-0.1-2.5-0.1-3.9-2.2-5.3c-0.8-0.5-2.1-0.8-3-0.8c-2.4,0-4.3,1.7-4.7,4
			c-0.8,4.4,3.8,5.7,6.2,8.2c0.7,0.7,1,1.4,0.8,2.3c0.2,0.2,0.3,0.4,0.1,0.6c-2.2,2.2-4.1,4.3-5.8,6.9
			C14.7,31.6,14.7,31.6,14.6,31.6z M19.6,41.4c3.1,1,6.8-1.3,9.6-2.7c2.6-1.3,5-2.9,7.3-4.7c2.5-1.9,6.3-4.7,7.3-7.9
			c0.1-0.2,0.2-0.3,0.4-0.4c-1.5-3.8-4.8-6.4-8.4-8.1c-0.2,0.4-0.4,0.7-0.7,0.9c0,0.1,0,0.2-0.1,0.3c-4.8,7-12.3,12.4-20.9,13.4
			c0,0,0,0,0,0C14.8,35.6,16.1,40.3,19.6,41.4z M44.5,27c-1.3,3.3-4.8,5.7-7.4,7.8c-3.8,2.9-8,5.3-12.5,7c-1.3,0.5-2.4,1.1-3.5,1.3
			c0.4,0.5,0.7,1,1.1,1.6c0,0,0.1,0,0.1,0c1.3,0,2.5,0,3.7-0.1c0.3,0,0.4,0.5,0.1,0.5c-1.2,0.2-2.4,0.3-3.6,0.1
			c0.8,1.1,1.5,2.2,2.3,3.4c0.7,0.1,1.4,0.1,2.2-0.2c0.3-0.1,0.5,0.4,0.2,0.5c-0.6,0.2-1.3,0.2-2,0.2c0.6,0.9,1.1,1.8,1.7,2.7
			c1.3,0.2,2.4,0,3.6-0.4c0.4-0.1,0.5,0.4,0.2,0.6c-1.1,0.4-2.3,0.5-3.5,0.4c0.6,1,1.2,1.9,1.8,2.9c0.7,0.2,1.5,0.1,2.2-0.1
			c0.3-0.1,0.5,0.4,0.2,0.5c-0.7,0.2-1.4,0.2-2.1,0c0.5,0.8,1,1.5,1.5,2.3c1.4,0,2.7-0.1,4-0.6c0.3-0.1,0.5,0.4,0.2,0.5
			c-1.3,0.4-2.6,0.6-3.9,0.5c0.6,0.9,1.1,1.7,1.7,2.6c0.2,0,0.5,0,0.7,0c0.4,0,0.8-0.2,1.2-0.3c0.2,0,0.4,0.3,0.2,0.4
			c-0.5,0.3-1.2,0.4-1.8,0.3c0.2,0.2,0.3,0.5,0.5,0.7c0.3,0.4,0.6,0.9,1,1.4c1.2,0.1,2.3-0.1,3.5-0.4c0.3-0.1,0.5,0.4,0.2,0.5
			C37.1,64,36,64.1,34.8,64c0.5,0.8,1.1,1.6,1.7,2.4c0.6,0,1.2,0,1.8,0c0.2,0,0.3,0.4,0.1,0.4c-0.5,0.1-1,0.1-1.5,0.1
			c0.4,0.6,0.9,1.1,1.3,1.6c1.3,0.2,2.6,0.1,3.9-0.2c0.3-0.1,0.5,0.3,0.2,0.5c-1.1,0.6-2.4,0.6-3.6,0.4c0.8,0.8,1.6,1.6,2.6,2.1
			c4,2.4,9,0.8,12.8-1.3c3.5-1.9,8.6-5.8,9.1-10.2c0.6-4.8-3.1-9.6-5.4-13.6C53.8,39.5,49.3,33.2,44.5,27z"/>
		<path class="st77" d="M52.5,69.6c-1,0.4-1.9,0.8-2.9,1c-0.2,0-0.1,0.3,0.1,0.3c1.1-0.1,2.1-0.4,3.1-0.9
			C52.9,69.9,52.8,69.5,52.5,69.6z"/>
		<path class="st77" d="M53.4,68c-0.8,0.6-1.7,1-2.6,1.4c-0.2,0.1-0.1,0.4,0.1,0.4c1-0.3,1.9-0.7,2.8-1.3C54,68.2,53.7,67.8,53.4,68
			z"/>
	</g>
</g>
</svg>
