<svg xmlns="http://www.w3.org/2000/svg" viewBox="0 0 43 43" width="43" height="43">
	<style>
		tspan { white-space:pre }
		.shp0 { fill: #7accc8 } 
		.shp1 { fill: #ffffff } 
	</style>
	<g id="Group_807">
		<g id="Group_645">
			<path id="Ellipse_90" class="shp0" d="M21.5 43C9.61 43 0 33.39 0 21.5C0 9.61 9.61 0 21.5 0C33.39 0 43 9.61 43 21.5C43 33.39 33.39 43 21.5 43Z" />
			<g id="Twitter">
				<path id="Path_1-2" class="shp1" d="M29 17.35C28.87 17.4 28.74 17.46 28.6 17.5C28.47 17.55 28.33 17.6 28.19 17.63C28.05 17.67 27.92 17.7 27.77 17.73C27.63 17.76 27.49 17.78 27.35 17.8C27.5 17.71 27.64 17.61 27.77 17.49C27.9 17.38 28.02 17.25 28.13 17.12C28.23 16.98 28.33 16.84 28.41 16.69C28.49 16.53 28.56 16.37 28.61 16.21C28.47 16.29 28.33 16.37 28.18 16.44C28.03 16.51 27.88 16.58 27.73 16.64C27.58 16.7 27.42 16.75 27.26 16.79C27.11 16.84 26.95 16.88 26.79 16.91C26.36 16.45 25.78 16.14 25.16 16.04C24.54 15.94 23.9 16.05 23.34 16.34C22.78 16.64 22.34 17.12 22.08 17.69C21.82 18.27 21.75 18.91 21.89 19.53C21.32 19.5 20.76 19.41 20.21 19.27C19.66 19.12 19.12 18.92 18.62 18.66C18.11 18.4 17.63 18.09 17.18 17.73C16.74 17.37 16.33 16.97 15.98 16.53C15.79 16.84 15.67 17.19 15.62 17.54C15.56 17.9 15.58 18.27 15.66 18.62C15.74 18.97 15.89 19.31 16.1 19.61C16.3 19.9 16.56 20.16 16.86 20.36C16.75 20.36 16.64 20.35 16.53 20.33C16.41 20.31 16.3 20.29 16.19 20.26C16.08 20.23 15.98 20.19 15.87 20.15C15.77 20.11 15.66 20.06 15.56 20L15.56 20.04C15.56 20.37 15.62 20.69 15.73 21C15.84 21.31 16 21.6 16.21 21.85C16.42 22.11 16.67 22.33 16.95 22.5C17.23 22.67 17.54 22.79 17.86 22.85C17.8 22.87 17.74 22.88 17.68 22.9C17.62 22.91 17.55 22.92 17.49 22.93C17.43 22.94 17.36 22.94 17.3 22.95C17.23 22.95 17.17 22.95 17.11 22.95C17.06 22.95 17.02 22.95 16.97 22.95C16.93 22.95 16.88 22.94 16.84 22.94C16.79 22.94 16.74 22.93 16.7 22.92C16.66 22.92 16.61 22.91 16.57 22.9C16.66 23.18 16.79 23.45 16.96 23.69C17.14 23.94 17.35 24.15 17.59 24.33C17.83 24.51 18.09 24.64 18.37 24.74C18.66 24.84 18.95 24.89 19.25 24.9C19 25.09 18.73 25.27 18.45 25.42C18.16 25.58 17.87 25.7 17.57 25.81C17.26 25.91 16.95 25.99 16.64 26.04C16.32 26.1 16 26.12 15.68 26.12C15.62 26.12 15.57 26.12 15.51 26.12C15.45 26.12 15.4 26.11 15.34 26.11C15.28 26.11 15.23 26.1 15.17 26.1C15.11 26.09 15.06 26.09 15 26.08C16.23 26.87 17.66 27.32 19.12 27.37C20.59 27.42 22.04 27.07 23.33 26.37C24.61 25.67 25.69 24.63 26.43 23.37C27.18 22.11 27.57 20.67 27.57 19.2L27.56 18.83C27.7 18.73 27.84 18.62 27.97 18.51C28.1 18.4 28.23 18.28 28.35 18.15C28.47 18.03 28.58 17.9 28.69 17.76C28.8 17.63 28.9 17.49 29 17.35Z" />
			</g>
		</g>
	</g>
</svg>