<svg xmlns="http://www.w3.org/2000/svg" width="166.842" height="167.655" viewBox="0 0 166.842 167.655">
  <g id="Group_643" data-name="Group 643" transform="translate(-397.741 -3579)">
    <g id="New-Patient-Forms-01" transform="translate(397.502 3578.737)">
      <path id="Path_2215" data-name="Path 2215" d="M147.764,144.326a60.012,60.012,0,0,1-9.233,7.806C108.4,173.7,72.81,167.408,65.256,165.9c-11.163-2.266-32.818-6.631-48.43-25.013C-6.844,113.018-3.151,69.2,15.147,40.331,18.5,35.043,36.214,5.666,72.222.966c21.823-2.854,47.171,2.938,65.553,18.3C176.469,51.662,173.7,116.963,147.764,144.326Z" transform="translate(0 0)" fill="#fff" opacity="0.8"/>
    </g>
    <g id="Location-01" transform="translate(394.453 3588.453)">
      <path id="Path_2262" data-name="Path 2262" d="M120.5,181.857c0,2.1-14.666,3.757-32.8,3.757s-32.8-1.662-32.8-3.757S69.566,178.1,87.7,178.1,120.5,179.834,120.5,181.857Z" transform="translate(-0.598 -46.819)" fill="#d0cfae"/>
      <path id="Path_2263" data-name="Path 2263" d="M87.1,71.749a21.819,21.819,0,1,1,0-43.637h0V9.4c-77.3,8.6,0,124.843,0,124.843V71.749Z" transform="translate(0)" fill="#e52627"/>
      <path id="Path_2264" data-name="Path 2264" d="M100.3,9.4V28.112a21.819,21.819,0,0,1,0,43.637v62.422S177.6,18,100.3,9.4Z" transform="translate(-13.198)" fill="#ee3c4d"/>
    </g>
  </g>
</svg>
