<?xml version="1.0" encoding="utf-8"?>
<!-- Generator: Adobe Illustrator 22.0.1, SVG Export Plug-In . SVG Version: 6.00 Build 0)  -->
<svg version="1.1" id="Layer_1" xmlns="http://www.w3.org/2000/svg" xmlns:xlink="http://www.w3.org/1999/xlink" x="0px" y="0px"
	 viewBox="0 0 121.5 170.3" style="enable-background:new 0 0 121.5 170.3;" xml:space="preserve">
<style type="text/css">
	.st0{fill:#616262;}
	.st1{fill:#F3FAFB;}
	.st2{fill:#E54D25;}
	.st3{fill:#595A5A;}
</style>
<g>
	<path class="st0" d="M122.2,163.6c0,3.5-2.5,6.4-5.5,6.4H5.2c-3.1,0-5.5-2.9-5.5-6.4V34.1c0-3.5,2.5-6.4,5.5-6.4
		c37.1,0,74.3,0,111.4,0c3.1,0,5.5,2.9,5.5,6.4"/>
	<path class="st1" d="M5.2,31.8c-1.1,0-1.9,1-1.9,2.2v129.5c0,1.2,0.9,2.2,1.9,2.2h111.4c1.1,0,1.9-1,1.9-2.2V34.1
		c0-1.2-0.9-2.2-1.9-2.2C80.4,31.8,44.2,31.8,5.2,31.8z"/>
	<path class="st0" d="M12.2,49.7c-1,0-1.8,0.9-1.8,2.1c0,1.1,0.8,2.1,1.8,2.1h30.6c1,0,1.8-0.9,1.8-2.1c0-1.1-0.8-2.1-1.8-2.1H12.2z
		"/>
	<path class="st0" d="M12.2,66.3c-1,0-1.8,0.9-1.8,2.1c0,1.1,0.8,2.1,1.8,2.1h30.6c1,0,1.8-0.9,1.8-2.1c0-1.1-0.8-2.1-1.8-2.1H12.2z
		"/>
	<path class="st0" d="M12.2,82.8c-1,0-1.8,0.9-1.8,2.1s0.8,2.1,1.8,2.1h30.6c1,0,1.8-0.9,1.8-2.1s-0.8-2.1-1.8-2.1H12.2z"/>
	<path class="st0" d="M12.2,115.9c-1,0-1.8,0.9-1.8,2.1c0,1.1,0.8,2.1,1.8,2.1h30.6c1,0,1.8-0.9,1.8-2.1c0-1.1-0.8-2.1-1.8-2.1
		C42.8,115.9,12.2,115.9,12.2,115.9z"/>
	<path class="st0" d="M12.2,132.4c-1,0-1.8,0.9-1.8,2.1c0,1.1,0.8,2.1,1.8,2.1h30.6c1,0,1.8-0.9,1.8-2.1c0-1.1-0.8-2.1-1.8-2.1H12.2
		z"/>
	<path class="st0" d="M12.2,149c-1,0-1.8,0.9-1.8,2.1c0,1.1,0.8,2.1,1.8,2.1h30.6c1,0,1.8-0.9,1.8-2.1c0-1.1-0.8-2.1-1.8-2.1H12.2z"
		/>
	<path class="st2" d="M86.1,120.8c0.8-1.6,1.6-2.9,2.7-3.8c1.3-1.2,2.9-1.9,5.1-1.9c2.3,0,4.5,1.1,6,2.9s2.5,4.2,2.5,6.9
		c0,1.7-0.3,3.4-0.8,5.2h-6l0,0c-0.2,0-0.4,0.1-0.6,0.3l0,0l-3.5,5l-2.9-8.9c-0.1-0.3-0.2-0.5-0.5-0.6c-0.4-0.2-0.8,0.1-1,0.5l0,0
		l-4.8,14.7l-7.4-10.6c-0.1-0.2-0.4-0.4-0.6-0.4h-3.7c-0.5-1.7-0.8-3.5-0.8-5.2c0-2.7,0.9-5.1,2.5-6.9c1.5-1.8,3.7-2.9,6-2.9
		C82.2,115.1,84.3,117,86.1,120.8L86.1,120.8z M101,131.8h-5l-4,5.8c-0.1,0.1-0.2,0.3-0.4,0.3c-0.4,0.2-0.8-0.1-1-0.5l0,0l-2.7-8.2
		l-4.5,13.9c0,0.2-0.1,0.3-0.3,0.5c-0.3,0.3-0.8,0.2-1.1-0.1l0,0L74,132h-2.7c2.6,6.8,8.4,13.5,14.3,20.3l0.5,0.6l0.5-0.6
		C92.5,145.4,98.4,138.6,101,131.8z"/>
	<path class="st3" d="M60.8,0c3.6,0,6.9,1.5,9.3,3.8c2.4,2.4,3.8,5.6,3.8,9.3c0,1-0.1,1.9-0.3,2.8V16h13.3c1.4,0,2.7,0.6,3.7,1.5
		c0.9,0.9,1.5,2.2,1.5,3.7v6.4c0,3-1.2,5.7-3.2,7.7s-4.7,3.2-7.7,3.2H40.4c-3,0-5.7-1.2-7.7-3.2s-3.2-4.7-3.2-7.7v-6.4
		c0-1.4,0.6-2.7,1.5-3.7c0.9-0.9,2.2-1.5,3.7-1.5H48v-0.1c-0.2-0.9-0.3-1.8-0.3-2.8c0-3.6,1.5-6.9,3.8-9.3C53.9,1.4,57.2,0,60.8,0z"
		/>
	<polygon class="st2" points="102.3,64.6 102.3,72.8 90.3,72.8 90.3,84.9 82,84.9 82,72.8 70,72.8 70,64.6 82,64.6 82,52.5 
		90.3,52.5 90.3,64.6 	"/>
</g>
</svg>
